<svg xmlns="http://www.w3.org/2000/svg" viewBox="902.968 2254.17 86.258 65.105"><defs><style>.a{fill:#ccc;}.b{fill:#fff;}</style></defs><g transform="translate(902.968 2254.17)"><path class="a" d="M28.3,70.182v-25L21.5,35.5V75.951H38.738l4.121-5.838H28.3Zm37.772-.412A2.989,2.989,0,0,1,64.7,67.3V56.378a8.14,8.14,0,0,0-2.541-6.112,8.4,8.4,0,0,0-6.181-2.541,7.748,7.748,0,0,0-2.06.275l-4.121,5.769h2.129c2.816,0,4.67.893,5.563,2.747l-7.829,5.425H57.9v6.181a7.658,7.658,0,0,0,2.129,5.288,8,8,0,0,0,5.013,2.747l3.915-5.494a5.513,5.513,0,0,1-2.884-.893Zm-10.988.275a5.026,5.026,0,0,1-3.709-1.511,4.792,4.792,0,0,1-1.58-3.571v-3.09l-2.129,1.442A6.805,6.805,0,0,0,44.3,69.152a6.234,6.234,0,0,0,2.678,5.425,9.727,9.727,0,0,0,5.769,1.511,4.01,4.01,0,0,0,1.374-.275l4.121-5.838H55.083ZM90.245,50.4a8.916,8.916,0,0,0-6.524-2.678,5.854,5.854,0,0,0-1.58.206l-4.121,5.838h2.884a5.4,5.4,0,0,1,5.288,5.288V70.319l6.8-9.683V56.927A8.614,8.614,0,0,0,90.245,50.4ZM83.378,70.182a5.026,5.026,0,0,1-3.709-1.511,5.091,5.091,0,0,1-1.58-3.709V45.183l-6.8-9.683V67.091a8.873,8.873,0,0,0,2.678,6.456,8.72,8.72,0,0,0,6.387,2.678,10.209,10.209,0,0,0,1.717-.206l4.052-5.838Z" transform="translate(-6.734 -11.12)"/><path class="b" d="M24.586,5.769A14.475,14.475,0,0,0,14.972.824L10.92,6.593h1.648a8.916,8.916,0,0,1,6.524,2.678A8.916,8.916,0,0,1,21.771,15.8V29.325a4.813,4.813,0,0,1-1.717,3.64,5.816,5.816,0,0,1-4.121,1.648H10.508l4.052,5.7a13.007,13.007,0,0,0,3.159.343A10.373,10.373,0,0,0,25.342,37.5a10.062,10.062,0,0,0,3.228-7.348V16.07a15.019,15.019,0,0,0-3.983-10.3ZM4.121,16.208V31.8a2.8,2.8,0,0,1-1.3,2.4A4.652,4.652,0,0,1,0,35.162l3.777,5.494a8.078,8.078,0,0,0,5.082-2.816,8.559,8.559,0,0,0,2.06-5.7V6.456l-6.8,9.752ZM58.856,9.683,52.057,0V40.451h6.8V9.683ZM41.206,19.3V9.615L34.407,0V40.451h6.8V25.273h6.8l4.052-5.906H41.206Z"/></g></svg>