<svg id="588717df-a409-4d9e-9961-5b79ed3e6a15" data-name="Layer 1" xmlns="http://www.w3.org/2000/svg" viewBox="0 0 107.86 35.96"><title>voices-mark-outlines</title><path d="M230.3,113.59l0,0.1v0.38l-0.14.62-0.14.1,0,0.14,0.14,0-0.14.72-0.38,2.06-0.14.1,0,0,0,0.82-0.19.43v0.58L228.81,121l0.14,0.14-0.19.29,0,0.24-0.1.19-0.19,1.25-0.29.77v0.48L228,125l0,0.77-0.19.43,0,0.38-0.38,1.87,0,0.82-0.14.24-0.1.67-0.14.48,0,0.77-0.14.34,0,0.72-0.1.43-0.19.43v0.38l-0.34,1.3,0,0.58-0.24.72,0,1,0,0.1-0.38,2-0.38,1.1,0.1,0.24-0.14.14,0,0.19,0,0.43-0.1.19,0,0.19-0.24.91-0.38,1.92,0,0.77-0.19.48-0.24.38-0.38.19-0.82,0-0.1,0h-0.48l-0.1,0h-0.77l-0.34.1h-1.15l-0.1,0h-0.38l-0.1,0h-0.86l-0.48-.29-0.14-.82-0.29-.67v-0.38l-0.1-.38,0.1-.34-0.19-.48-0.19-.86-0.43-2,0-.58-0.1-.38,0-.72-0.43-1.54V136.4l-0.24-.72-0.38-2.06,0-.14,0.1,0-0.29-.58-0.19-1.15-0.19-.43H215l0-.19-0.14,0-0.14-.14-0.1-.48-0.14-.34,0-.91-0.1-.58-0.19-.43-0.29-1.78-0.38-1.68,0-.86-0.24-.48-0.1-.82-0.14-.38-0.1-1.15-0.24-1.06-0.38-2-0.24-.82,0-.58-0.19-.72,0-.19,0-.38-0.19-.29,0.14-.24-0.29-.67-0.24-1.73,0.14-.19,0.48-.34h0.86l0.1,0h2.74l0.1,0h1.34l0.19,0,0.19,0.19-0.1,0L217,112l0,0,0.14,0.24,0.29,0,0.1,0.19,0.1,0.48-0.1.24,0.38,0.91v1.2l0.14,0.38,0.19,1.06v0.58l0.19,0.43v0.43l0.1,0.19,0,1,0.24,1.1,0,0.29,0.14,0.14-0.1.24-0.29-.1,0.48,0.67,0.24,1.68,0.14,0.34,0,0.67,0,0.1,0.1,0.58,0.38,1.68,0,0.91,0.34,1.25,0,1.06,0,0.1,0.19,0.86,0,0.86,0,0.1,0.43,0.62,0.14,0,0.1-.14,0.29-1.78,0.34,0,0-.19,0-.19-0.1,0-0.1,0-0.1-.14,0.1-.29,0.1-.77,0.24-1.1,0.14-1.34,0.24-.77,0-.86,0-.1V124.2l0.14-.34,0-.86,0.29-.67,0-.24,0-.38,0.1-.14,0.14-1.82,0.19-.24v-0.62l0.1-.14,0.1-1.06,0.19-.53,0-.43,0-.29,0.14-.34,0.34-2.21,0-.77,0.14-.58,0.24-.53,0.38-.24h0.48l0.1,0h0.38l0.38-.1,1.06,0,0.1,0H228l0.1,0h1.15l0.82-.1,0.24,0.14,0.19,0.43v0.82l-0.19.48v0Zm-17.62,4.13v-0.1l-0.1,0,0,0.19Zm0.24-3.6-0.1-.1,0,0.14Zm0.29,6-0.1,0-0.1,0,0,0.14,0.14,0v-0.1Zm0,0.82,0,0h-0.1l0,0.1Zm0.38-.91,0.1-.1-0.1-.1-0.14,0V120h0.14Zm0.38,4.13-0.1-.1-0.19,0v0.1l0.14,0.19,0.14-.14v-0.1Zm-0.1-9.26,0,0,0,0.1Zm-0.1.77,0,0.14h0.1v-0.19Zm0.62-2.83-0.14,0,0,0.1,0.1,0.1,0.1,0v-0.1Zm-0.14,1.92,0.1,0h-0.14v0.1Zm0.24,5,0.14,0v-0.1l-0.19,0Zm0.24,9.41,0.1-.14-0.34,0,0.14,0.1h0.1Zm0-4.27,0.14,0-0.14-.14v0.1Zm0.1,3.26,0.1-.1,0-.19h-0.1l-0.14.34Zm0.34-13.68-0.24-.14-0.14.14h0.14l0,0.1,0.19,0V114.5Zm-0.34,8.93,0.14,0.14h0.19l0.19-.14,0-.24-0.48.14v0.1Zm0.19-2.11,0,0-0.14,0H215Zm0,5.76,0,0v0.19H215Zm0.24-1.3,0.14,0.1,0.19,0-0.14-.19,0-.19,0-.38-0.14,0-0.24.19v0.1h0.19l0.14,0.19-0.34.19Zm0,3.6,0.29,0v-0.1l-0.38-.1-0.1.24Zm0-12,0,0,0,0.1Zm0,2.11,0,0.1,0.1,0,0-.1Zm0,11.09,0.1,0v-0.1l-0.1,0v0.1Zm0.14-4.08-0.1.14,0.1,0,0.19-.29Zm0.19-2.11-0.24.29,0,0.19,0.14-.24,0.24,0,0.1-.19V124.2l-0.1-.19-0.1,0,0,0.14,0,0.29h-0.1Zm-0.14,7.49h0.1l-0.14-.14,0,0.1Zm0-15.07V117l0.14,0.1,0-.1-0.14-.24Zm0.43,10.8,0.34,0,0.24-.14-0.19-.24v0.1l-0.14.1,0-.1h-0.19l-0.19.1-0.14-.14-0.1,0,0,0.1,0.19,0,0.1,0.14Zm-0.14-3.89v-0.14h-0.19v0.1l0.14,0.14Zm0,9.36h-0.14l0,0.1,0.1,0.1Zm-0.1-9.94,0,0,0.1,0-0.14-.1v0.1Zm0.1,11.91-0.1-.14,0,0.24Zm0.77-12.34-0.19,0-0.48.34h0.38l0.1,0V123l0.29-.24v-0.1h-0.1ZM216.09,117l-0.14.14h0.14V117ZM216,132.12l0,0v0.1Zm0.24-9.65v-0.1l-0.14-.14-0.1,0,0,0.14,0.14,0.14ZM216,124.3l0,0.43,0.14,0.1,0.14-.53-0.1-.1H216v0.1Zm0-5.18v0.1l0.1,0,0.1,0,0-.19h-0.1Zm0.19,0.72-0.1,0-0.1,0v0.1l0.19,0,0-.1Zm0,0.77,0.1-.19-0.1-.14-0.14.14,0,0.29,0.19,0.1V120.6Zm-0.14,13.15,0-.1v0.14Zm0-20.11,0.38-.1-0.43,0Zm0,0.67,0.1,0.19,0.14,0,0-.24-0.1-.19-0.19,0v0.34Zm0,13.58,0,0,0,0.14v-0.1Zm0,7.06,0,0,0,0-0.1-.1V135Zm0.19,3,0-.14-0.14.14h0.1Zm0.48-17.14-0.1,0-0.34.14,0,0.19h0.29l0.19-.1,0-.1Zm-0.43,9.94,0,0.1,0.1,0.1,0-.19h-0.1Zm0,3.46,0.14,0.1-0.1-.19-0.1,0,0,0.1Zm0-5.62,0.1,0.24h0l-0.1-.34Zm0.38-1.63-0.29-.19,0,0.29,0.14,0.1,0.19-.1v-0.1Zm-0.24,8.16h0.14l-0.14-.14,0,0Zm0.43-8.64,0-.14-0.1,0-0.24.1,0,0.24H217v-0.14Zm-0.43,2.35h0l0.34,0.29,0-.14-0.38-.24Zm0.14,2.88h-0.1l0,0.1,0.19,0Zm0.19-19.06-0.1-.14-0.19,0,0.1,0.19,0.19,0v-0.14Zm-0.19,20.79,0.38,0.1,0.1,0-0.38-.38-0.19.38Zm0.43-11.52-0.24-.14,0-.1,0-.1h-0.1l-0.1.34,0.19,0.1H217Zm-0.19,3.46-0.24-.1,0,0.14,0.19,0v-0.1Zm0.1,2.54-0.24,0-0.1.14,0.24,0,0.1,0v-0.1Zm-0.14,4.27-0.14.14v0.1h0.1l0.14-.14v-0.14Zm0-1.3,0,0,0,0.1Zm0-7.2,0-.1v0.1h0Zm0.34,1.82-0.1,0-0.24.24,0.1,0.1,0.34-.1ZM217,134l0,0.1,0.19,0,0.14-.14,0-.1H217l-0.1.14Zm0-4.27,0,0.14H217l0-.19Zm0,2.16,0.19,0,0-.14,0-.24-0.1-.14,0,0.19-0.14.1Zm-0.1,8.78,0.19,0,0-.1-0.24,0v0.1Zm0.14-.43h0.1l0.14-.14-0.1,0-0.19,0,0,0.1Zm0-13.78,0.14,0-0.24-.24v0.24Zm0.14,1.25-0.1.19L217,128l0.53,0.19-0.14.34v0.19l0.19,0v-0.24l0.1,0,0.1,0,0-.1-0.1,0-0.19-.38,0.14-.48-0.43.1v0.1Zm0,4.61-0.1,0-0.14.14,0.1,0,0.14,0v-0.1Zm0-18.82,0,0-0.1,0,0,0.14Zm0.24,13.2-0.29.29,0,0.14,0.19,0,0.34-.29v-0.1l-0.19-.1v0.1Zm-0.24,8-0.1.14,0.1,0,0.14-.19h-0.14Zm0-4.27,0,0,0,0.1Zm0-5.52,0.1,0,0,0-0.14-.19v0.19Zm0,8,0.14,0,0-.1-0.19-.19v0.24Zm0.1,1.39,0,0.14,0.19,0.1h0.19l-0.1-.38,0.1-.38-0.19-.24-0.1,0,0.14,0.29-0.14.29-0.19,0Zm0.43-12h-0.29l-0.1.1,0,0.24h0.19l0.1-.1,0.24,0v-0.24Zm-0.34,1.1,0,0,0,0.1Zm0,9.94-0.14.14,0,0,0.19,0v-0.1Zm0.1,3.7,0,0-0.29-.1V137l0.1,0.1Zm0-7.06,0-.19-0.1-.1-0.1.19,0,0.1h0.1Zm-0.1-3.79,0,0.1h0.1l0-.1-0.19-.1v0.1Zm0.1,9.17v0.29l0.19-.19,0-.24,0-.29-0.19,0-0.1.19Zm0,4.56,0.34,0.24h0.29L218,139.9l-0.53-.1Zm0.1-10.61,0.1,0L218,129l-0.24,0-0.14.24,0,0.19h0.1Zm0.62,3.74-0.43-.43-0.14.14-0.1.29h0.67Zm-0.62,4v0.29l0.1,0,0-.24-0.1,0Zm0.14-.67,0,0,0,0,0.1,0.1v-0.1Zm0-11.9,0.14,0v-0.14h-0.14v0.1Zm0.29,13.87-0.29-.1,0.1,0.14,0.24,0Zm0-13-0.1,0-0.1.1,0.19,0v-0.1Zm0-2.69v-0.1h-0.1v0.1H218Zm0.19,7.3,0,0-0.14-.19-0.14,0,0,0.19h0.19Zm0-2.35-0.14-.1v0.19h0.19Zm0.14,4.66-0.1-.1H218l0,0.14,0.14,0.1,0.1,0v-0.1ZM218,135.43l0.1,0,0.14,0v-0.1l-0.24,0v0.14Zm0.1-1h0.19l0-.1-0.1,0-0.19,0Zm0.38-.72h-0.1l-0.1-.19-0.1,0-0.1.29,0.24,0,0,0.19,0.24-.1,0-.1Zm-0.29,1-0.1.34h0.19l0.38-.24,0.1-.24,0,0-0.1.1h-0.38Zm0,5.76-0.1.24,0.34,0.34,0-.1,0.29-.1,0.1-.14-0.38,0v-0.1l0.14-.1v-0.1l-0.43-.1v0.1Zm0.1-16.75-0.1,0,0,0.14h0.14v-0.1Zm-0.1,12.29,0,0.1,0.1,0,0-.14h-0.1Zm0-12.72,0,0.1,0.1,0v-0.1Zm0,14.5,0.14,0.14h0.1l0-.19-0.14,0Zm0-17.76,0.1,0-0.1,0v0.1Zm0.34,10.66-0.14-.14-0.19,0,0,0.1,0.29,0.19v-0.1Zm-0.24,10.71,0.24,0,0.14-.1-0.29,0-0.19.1v0.1h0.1Zm0-16.85,0.19,0.29v-0.14l-0.14-.24Zm0,11.9,0,0.1h0.14v0Zm0.14-14.54-0.1,0,0,0.14h0.43l-0.19-.19h-0.1Zm-0.14,17.67,0,0.1,0.14,0,0.14-.19-0.14-.1-0.14,0Zm0.14,2.59,0.19-.19-0.24-.24-0.1.14,0,0.29h0.1Zm0,0.38,0,0-0.14,0,0.19,0.1v-0.1Zm0-21,0,0,0,0.1Zm-0.1,8.45v0h0.14l-0.1-.1Zm0.1,2.5,0,0,0,0h0.1Zm0.14-8.45-0.19,0,0,0.1,0.14,0v-0.1Zm0,16-0.1,0,0,0.19,0.14-.14h-0.1Zm0.29-4-0.14,0-0.19,0v0.19l0.1,0.14,0.19,0,0.19-.29,0-.1H219Zm-0.14,1,0.14,0,0-.19-0.14,0-0.1.24Zm0.1-1.49h-0.1l-0.1.24,0.1,0.1,0.24-.14,0-.1Zm0,7.54,0.19-.19-0.24,0-0.1.14h0.14Zm-0.1-10.94,0,0.1H219l-0.1-.14Zm0.48,1.58-0.14-.1-0.19.1-0.1.14h0.43V133.8Zm-0.38,4.27,0,0,0,0.1H219v-0.1Zm0-13.44,0.1,0,0-.1-0.1,0Zm0.14,9.65,0-.14-0.19,0,0,0.14Zm0.1,5.81,0-.1,0-.1-0.14,0,0,0.14h0.1Zm0.1,1.92-0.1.1-0.14.38,0.1,0,0.29-.14,0-.38h-0.19Zm-0.14,1.73,0-.1-0.1,0v0.14h0Zm0-9.17,0.1,0.1,0.1,0-0.1-.19h-0.1v0.14Zm0.1,3.26h0.1l-0.14-.14,0,0.1Zm0-5.28h0.1l0.1-.1-0.19,0v0.14Zm0.38,6,0-.1-0.24,0,0,0.24,0.14,0,0.19,0v-0.1Zm0.1,4.8,0-.1-0.24-.14-0.14.1,0.24,0.19,0.19,0v-0.1Zm-0.29-13,0.1,0.14,0.1,0,0-.19h-0.1Zm0,10.85v0.1l0.14,0.1,0.1,0v-0.1l-0.14-.1Zm0.19,1.34,0.1,0v-0.19l-0.29.19,0,0.19Zm0-2.45,0,0-0.1,0,0,0.14Zm0,0.72,0.29,0,0.19,0,0-.14,0-.29-0.19,0-0.19,0v0.1l-0.14.14,0,0.19h0.1Zm0-5.28,0,0,0,0v-0.1Zm0-7.68,0.19,0.1,0,0,0-.1-0.19,0v0.1Zm0.29,10.27-0.19,0,0,0.1,0.14,0v-0.1Zm0.43,5.76,0.1-.1v-0.14l-0.19-.14,0,0h-0.24l0,0L220,144h0.1Zm-0.38-5V139l0.19,0.34,0.14-.1v-0.19l-0.19-.29h-0.1Zm0.19,3.46-0.14.14,0,0.34,0.29-.24,0.1-.24H220Zm0.14-.29-0.19-.19,0,0.14,0,0.1,0.14,0ZM220,136l0,0.19h0.1l0-.24-0.1,0V136Zm0.1,5.57v-0.1l-0.14-.1v0.19h0.14Zm0-4-0.1,0,0.14,0v0Zm0.53,0.58-0.19-.1-0.43,0v0.14l0.19,0,0.19-.1,0,0,0,0.19,0.14,0,0.14-.19Zm0,1.68-0.48.1V140l0.14,0,0.24,0,0,0.24,0.1,0,0.19-.14V140l-0.14-.19Zm-0.1-2.16-0.24,0-0.1.14,0,0.1,0.34-.1Zm-0.34,3.6,0.1,0,0,0-0.1-.14Zm0.24,1.2,0,0,0,0.1Zm0-2.88,0,0,0,0.1Zm-0.1,2,0.1,0.14,0.14-.1v-0.14l-0.24-.1v0.19Zm1.82-.62v0.34l0.19,0V141l0.29,0.1-0.1-.24-0.43-.24-0.1-.19h-0.19l-0.19-.1-0.43,0-0.1.1,0,0.1,0.14,0L221,141l-0.24.1,0-.19-0.1,0,0,0.24,0.1,0,0.29,0.19,0.24-.1,0.1-.19v-0.19l0.1-.1,0.24,0,0,0.14h0l0-.19,0.14-.1,0,0.19,0.24,0Zm-1.06,2.35-0.1-.14-0.38-.19H220.6l0.1,0.1v0.1l0.53,0.34v-0.19Zm-0.1-.77h-0.38l-0.1.1h0.1l0.53,0.38,0,0.14,0.14,0.14,0.1,0-0.38-.53,0-.24Zm-0.19-3.31-0.19-.1,0,0.14,0.1,0Zm-0.14-1.68,0.14,0.38,0.29,0,0.19,0,0.19,0.14v0.1h0l0,0.19,0.19-.19-0.1-.29-0.24-.19-0.1,0-0.14,0-0.29-.24Zm0.24,4.27,0.1,0.1h0.1v-0.19l-0.19,0v0.14Zm0.14-2.11,0,0.1,0.14,0-0.19-.14v0.1Zm0.24,4.13,0.19-.24-0.1-.14-0.24,0,0,0.1,0,0.29Zm0.67-2.11,0.1,0,0-.24-0.19,0-0.29.19-0.34.58,0.1,0,0.1,0.34,0.14,0.19h0.14v-0.1l-0.19-.19h0.24v-0.1l-0.14-.19L222,142v-0.29Zm-0.53-10.94,0,0h0.1Zm0,9.07v0.1l0.14-.1h-0.14Zm0,1.63,0,0.19,0.14,0.1,0-.19-0.1-.14Zm0.24-5.66v-0.1h-0.14l0,0.1,0.14,0.1Zm-0.1,7.2,0,0,0,0.1Zm0.24-3.79h-0.19l0,0.19H222Zm0.14,4.22-0.29,0-0.1.14,0.1,0,0.19,0,0,0.1,0.14,0,0.1,0Zm-0.19.53-0.19,0,0,0.1,0.24,0Zm0-2.59h0.1v-0.1l-0.1,0-0.1.1Zm0.1-4.22-0.1.19h0.1l0.1-.14Zm0.24,2.5-0.1-.1h-0.14l-0.1.1v0.1l0.1,0,0.14,0.1,0.1,0v-0.1Zm-0.24-9.7,0.19,0.19,0.1,0,0-.19-0.24,0v0.1Zm0.1-.72,0,0v0.38l0.34,0-0.14-.19,0-.29H222Zm0.1,4.66,0.1,0v-0.1h-0.1l0,0.1Zm0,4h0.14l-0.1-.1Zm0,6.43,0.1,0.14,0.19,0.1,0.19,0-0.24-.24-0.19,0Zm0.1-5.62,0,0.19,0.19-.1,0-.14,0-.19-0.24-.14v0.38Zm0.29-1.68-0.14-.1-0.1,0,0.19,0.19,0.1,0Zm-0.14-8.88,0,0,0,0.1h0.1v-0.1Zm0.38,9.36-0.14,0-0.29.53,0.34-.19,0.14-.29ZM222.52,143l-0.1.1,0,0.19,0.24-.1,0-.19h-0.14Zm0,0.62-0.19,0,0,0.1,0.14,0v-0.1Zm-0.1-8.11,0,0v0.1l0.14,0h-0.1Zm0,2.78,0.1,0,0.1-.19-0.1,0-0.14.1v0.1Zm0-5.23,0,0V133Zm0,9.07v-0.1h0v0.1h0Zm0.19-9.94v-0.1l-0.19,0,0.14,0.19ZM222.62,135l0-.1V135h0Zm0.19,6.53,0-.14-0.1,0-0.19.19,0,0.1Zm-0.1-7.54-0.1,0,0.1,0.14,0.19-.1-0.1.34H223l0.14-.1V134l0.1-.19-0.14-.1v0.1H222.9l0,0.14h-0.14Zm0.14,4.75-0.14.1-0.1.19v0.24h0.14l0.19-.14,0-.24,0-.19Zm-0.19,1.06,0.1,0,0.29-.1,0-.34h-0.14l-0.14.1-0.1.19Zm0.14-3.89h-0.14V136l0.14,0.14v-0.24Zm0.14,7.82,0-.14-0.24,0-0.1.19H223Zm-0.14,2.06,0,0,0,0.1Zm0-17.09H223l0-.1,0-.14h-0.1v0.24Zm0,9.27,0,0,0.1,0v-0.1h-0.14v0.1Zm0-8.54,0,0,0.1-.1,0-.24H223l-0.1.1v0.19Zm0.53,5.47-0.1-.14-0.43.19,0.14,0.14,0.38,0v-0.14ZM223,137.64l0.43-.38,0.24,0,0-.1-0.38-.14L223,137v0.1l0.14,0.14,0,0.14-0.19,0v0.19H223Zm0.34,4.94-0.14-.29h0l0-.34-0.14-.1-0.1.1,0,0.24,0.24,0.43Zm0-13.15-0.19,0-0.14.24,0.38,0,0-.19ZM223,132.79l0,0.14h0.1l0-.14H223Zm0,7.39,0.14,0.1,0.14,0,0-.1-0.24,0v0.1Zm0.14-9.89,0.1,0v-0.1l-0.19-.1v0.24h0.1Zm0.14,5.42,0.1-.1h0.1v-0.14l-0.19,0-0.24.19,0.14,0.24,0.19,0Zm0,5.9,0.1,0-0.14-.34-0.19,0,0.1,0.34h0.14Zm-0.19-8.45,0.1,0,0.1-.1-0.14,0Zm0.24-.43-0.14.14,0.19,0,0-.19h-0.1Zm0,5,0,0-0.1.1,0,0.14h0.1v-0.19Zm-0.1-12.38,0.14,0.24,0.29-.19v-0.14l-0.29,0-0.1,0Zm0.1-1.25,0.1,0.1,0-.1-0.1-.1Zm0,6.19,0,0,0.1,0v-0.1h-0.19Zm0.19,9.41,0-.1-0.19,0,0,0.19,0.19,0v-0.1Zm0-7.82h-0.1l0,0.1,0.24-.1,0-.1Zm0,11v-0.1l-0.14-.1,0.1,0.29Zm0.1-17.19-0.1,0,0.14,0.1,0-.14h-0.1Zm0,2.88,0-.1h-0.1v0.1h0.14Zm0.14,1.2-0.1-.14-0.19,0,0.1,0.19,0.19,0.1v-0.1Zm-0.29,5.33v0.14h0.1l0.1-.14h-0.19Zm0.1,1,0.14-.14v-0.1l-0.1-.1h-0.1l0,0.34h0.1Zm0.14,0.38-0.1-.14,0,0.19,0.1,0Zm0.72-5.86-0.1-.14-0.24,0-0.43.1,0.48,0.19h0.29v-0.1ZM224,127.8h0.19l-0.1-.24-0.19,0Zm0.14,4.42,0-.14-0.19,0,0.1,0.14,0.19,0Zm0,0.77h-0.14l0,0.29,0.19,0.1,0.1-.1v-0.1Zm0.1,9.6H224l0,0.1h0.19v-0.1ZM224,138.79l0.24,0,0-.1-0.19,0v0.1ZM224.15,122l0,0,0,0.1Zm0.14,18.1,0.1,0V140l-0.19-.1-0.14.1v0.1h0.24Zm-0.14-14.45,0.14,0.14,0.19,0,0-.1,0-.14-0.14,0-0.24,0Zm0.14-11,0,0,0,0,0.19,0.19Zm-0.1,11.71,0.14,0.14,0.14,0.43,0.24,0-0.24-.67-0.29,0v0.19Zm0.14,5.14-0.14.34,0.14,0,0.1-.29h-0.1Zm0,11.38-0.1-.14,0,0.19Zm0-12,0,0,0,0.19,0.1-.24h-0.1Zm0.43,1.82,0.1,0,0-.14-0.14-.14v-0.14l-0.38.1-0.1.14,0,0.24h0.43Zm-0.43,2.93,0,0.1,0.1,0v-0.1Zm0.24-10.94-0.19.14,0.14,0.29,0.19,0.14,0-.14,0.14-.14,0.14,0.14,0,0.19,0.1,0-0.29-.48-0.34-.19v0.1Zm0.24,4.08,0.29,0.29,0.1,0-0.1,0-0.14-.29-0.34,0-0.24.34h0.1l0.24-.24Zm-0.38.82,0,0.19h0.1l0.14-.19h-0.19Zm0,5.71v0.1l0.1,0Zm0.14-9.31-0.1,0v0.14h0.14Zm0.14,7.15-0.19-.19,0,0.19,0.14,0.14,0.1,0v-0.1Zm-0.14,7.54,0.38,0v-0.1l-0.29-.1-0.14.14h0Zm0.48-9-0.38-.38,0,0.34,0.24,0.14ZM224.82,123l0,0,0,0.1Zm0,3.31h0l0-.14-0.24.1Zm-0.14,4.27,0.19,0.19,0-.1,0-.1-0.19-.1v0.1Zm0,9.7,0,0,0-.14-0.1,0v0Zm0.43-7.44-0.24,0-0.14.14,0.19,0.14,0.14-.14Zm-0.24-3.36,0.19,0,0-.1-0.14,0v0.1Zm0.1,2.69-0.1-.1v0.14Zm0-4.75,0.24,0,0-.14-0.19,0,0,0.1Zm0.14,2.64V130l-0.19.14v0.1l0.1,0ZM225,120.17v0.1l0.14,0,0-.1,0-.1h-0.1Zm0.53,8.16,0.19,0,0.1-.1-0.14-.1-0.1-.29-0.19.24,0,0.19h0.19Zm0-2h0.1l0.1-.14H225.5v0.14Zm0.24-1.49-0.14,0,0,0.1,0.14,0Zm-0.1-4.66,0,0.14,0.1-.19Zm0.48,4.7L226,125l0,0.1,0.19,0.1v-0.34h-0.14Zm0.1-6.29-0.1,0,0,0.29,0.19,0,0-.29h-0.1Zm0,10.51,0-.1h-0.1v0.1h0.14Zm0.14-1.82,0,0-0.1,0v0.1h0.19Zm0.19-9.79-0.1,0v0.1Zm0.58,2.06v0l0.14,0-0.1-.14Zm0.29-.48,0.1,0v-0.1l-0.19.14h0.1Zm0.67,2.35-0.1,0-0.1,0,0,0.14,0.19,0Zm0-1.34,0-.1H228l0,0.1,0.14,0v0Zm0.19,0-0.1,0h0.1v0Zm1.15-5.52h-0.1v0.1l0.1,0V114.6Zm0.53-.19,0-.1,0-.19-0.19,0,0,0.19,0.19,0.19Z" transform="translate(-211.1 -111.1)"/><path d="M250,125.35v1.25l-0.14.58L250,128l0,1-0.1.19-0.1-.19-0.19.1,0.1,0.14,0.19,0.1,0,0.1,0,0.24-0.24.24,0,0.29h0.1l0.19-.14,0.1,0.14v1.1l-0.1.48,0.1,0.14,0,0.19v0.82l0,0.1v0.77l-0.14.38v0.24l0.14,0.24v1.25l-0.14.24,0.14,1.3,0,0.1v0.58l0.1,0.72-0.14.43,0,0.38L249.64,141l-0.19.38-0.1.48-0.67,1.2-0.1,0-0.43.77-1.34,1.34-0.72.34,0,0.19-0.58.19,0,0.1-0.67.38-0.58,0-0.48.24-0.58,0-0.14-.1-0.38.24-0.29,0-0.43-.1-0.19.1h-1.2l-0.1,0H239.9l-1.34-.24-1.92-.58-1.49-1,0-.1-0.19-.1-0.67-.72-0.29-.48-0.34-.19-0.58-1L232.46,141l-0.19-.91,0-.86,0-.1v-4l0-.38,0,0,0.1-1.1-0.1-.48v-2.45l0-.1v-2l0-.1v-1.54l0,0,0-.91,0-.1v-1.06l-0.1-.14,0.1-.29-0.1-.48,0.14-.34-0.1-1.34,0.1-.34,0.34,0.24-0.29-.38-0.19-1,0-.24,0.1-.14-0.1-1.25,0.1-.38,0-1,0.19-.53,0.19-.14-0.1-.43,0.24-.62,0.58-1.15,0.58-.67,0.19-.34,0.43-.38,0.24,0,0-.19,1.39-1.06,0.58-.14,0.67-.38,0.43-.14,1.25-.19,0.48-.19,0.14,0,0.1,0.19,0.29-.24h1.44l0.86,0.1,0.1,0.24,0.14,0.1v-0.29l0,0,1,0.34,0.1-.1h0.29l0.34,0.19h0.29l0.53,0.29h0.19l0,0.19,0.14,0,0.19,0.14-0.1.29,0,0.14,0.19,0,0.1-.1,0.53,0,0.1,0.1,0,0.24,0.34,0,0.14,0.43h0.24l0.19,0.1,0.86,1,0.14,0.38,0.19,0.19,0.67,1.39-0.14.24,0.29,0.29,0,0.24-0.19.14,0,0.1,0.19-.1,0.1,0.24,0,0.14-0.14.14,0.34,0.14,0.1,0.82-0.14.29,0.14,0.38-0.19.58L250,120.6l0,0.67-0.29-.1L249.5,121l-0.19,0,0.1,0.24,0.29,0.29,0.14,0,0.1,0.1,0,0.43-0.1.19,0.1,0.29v0.77l0,0.1v1.92Zm-17.67-1.3,0.1,0V124l-0.14,0Zm0.1,7.39,0.14-.24-0.19,0,0,0.14Zm0.62-8.64,0.1-.14h-0.29l-0.19-.1,0,0.19,0.29,0.14Zm-0.19-.58-0.14.14,0.19,0,0-.19h-0.1Zm0.19-.82-0.24-.19,0,0,0.29,0.29,0.14-.14,0-.1Zm-0.1,2.5,0,0,0,0.1Zm0,8.21,0.1,0-0.14,0v0.1h0Zm0-13.35H233v-0.1h-0.1v0.1Zm0.19,5.81,0.1,0v-0.1l-0.14,0Zm0.14,5.42-0.19-.1,0,0.19h0.1Zm0-4.8,0,0,0,0.1Zm0-6.19,0.14,0.1,0-.24-0.1-.1V119Zm0.43,3.55-0.19.1-0.1.19,0,0.1,0.34-.14,0-.24h0Zm-0.29,1.87,0,0.14,0-.1,0.14,0h-0.24Zm0.67,2.5-0.34-.38-0.34-.14,0.29,0.38,0.38,0.19v0Zm-0.58,15.17h0.1V142l-0.14,0Zm0.29-14.69,0-.14-0.1-.14-0.19,0,0.14,0.29Zm-0.24.34,0,0.1h0.1v-0.1l-0.14-.14v0.14Zm0.29,3-0.24,0v0.1l0.14,0.1,0.1,0v-0.1Zm-0.14-10.61,0.19,0.24-0.14.19h0.14l0.19,0.1,0.1,0,0-.29L233.9,120H233.7v0.19Zm0.1,1.82-0.1.1,0.1,0,0.1-.1Zm0,1.54-0.1.19,0,0,0.19-.19,0-.14Zm0-4.37-0.1.43,0.24,0,0-.14,0-.29-0.1,0Zm0,23.62,0,0,0,0.1v-0.14Zm0.1-24,0,0,0,0.1Zm0,2.88,0-.1h-0.1Zm0.14,1.1-0.14.24,0.1,0.1v0.1l0.19,0,0-.38-0.14-.14H234Zm0,1.25,0,0-0.1.1,0,0.24,0.29,0,0-.24Zm-0.1,6.62,0-.34,0,0v0.38Zm0.19-10.75,0,0-0.1,0V120h0.19Zm-0.14,4.9,0.14,0-0.14,0v0.1Zm0.29-6.53-0.1,0-0.14.29,0.1,0.29,0.1,0v-0.43l0.14-.24h-0.1Zm-0.19,11.38,0.19,0v-0.1l-0.1,0-0.14,0Zm0.1-12.72,0,0.1,0,0,0.1-.1Zm0,10.08-0.1.14,0.24,0,0-.19h-0.19Zm0-7.58,0-.1v0.1h0Zm0.24,8.59-0.24.1v0.1h0.38l0-.1Zm-0.1-13.35,0,0,0,0.1Zm0.1,1.78h-0.1l-0.1.1,0.1,0.29,0.14,0.1,0,0v-0.34Zm0,5.71-0.19,0,0,0.19,0.19,0Zm0,1.3,0.1-.1V123l0,0-0.14.19,0,0.24h0.14Zm-0.14,6.72,0,0.1,0.14,0-0.1-.29-0.1,0v0.19Zm0.19-5.86,0-.24h-0.1l0,0.19,0.14,0.1Zm-0.1,6.62,0.19,0,0-.1-0.19,0Zm0.14-9.79-0.14-.1v0.24l0.24-.1Zm0.14,2.5-0.29,0,0.19,0.1Zm-0.1,5.47-0.14,0v0.1l0.14,0v-0.1Zm-0.1.82,0.14,0.14,0.1,0-0.1-.19h-0.1Zm0.14,9h-0.14v0.34l0.19-.19Zm0.1-13.39-0.14,0,0,0.14h0.19l0.1-.1v-0.1h-0.1Zm0-7.1-0.14,0v0.1l0.14,0v-0.1Zm0.1,2.69,0,0,0-.38-0.19,0,0,0.14,0.1,0.1,0,0.19Zm-0.19,2,0,0.1,0.14-.14-0.19,0V123Zm0.1,4.51,0.19,0,0,0,0-.24-0.14,0-0.14.14v0.1Zm0.1,10.13v-0.1l-0.14,0,0,0.14Zm0.1-18,0.1-.14-0.1-.24-0.14,0,0,0.24,0,0.24Zm-0.1,4.27,0.14,0,0-.1h-0.1l-0.1.14h0.1Zm0,1.39,0,0,0,0.1Zm0.72,2.83,0.14-.19h0.14l0-.1h-0.14l-0.38.19,0,0v-0.29l0,0-0.38.43,0.24,0.48,0.29,0,0.1-.14-0.24-.1,0-.14,0.43,0.1v-0.19Zm-0.48,1.3-0.24.1,0.14,0.1Zm-0.24,6.24,0,0.19,0.19-.19h-0.24Zm0.19,4.66v-0.1l-0.14,0,0.1,0.14Zm0-6.1,0.1,0-0.1,0v0.1Zm0,10.22v0l0.14,0-0.1-.14Zm0-30.1v0.14l0.1,0,0-.1,0-.1h-0.1Zm0.29,12,0.14,0.34-0.43.14,0.1,0.29,0.14,0.19,0.48-.34-0.1-.14-0.1-.48-0.19-.14-0.1,0Zm-0.1,4.51,0,0-0.1.1Zm-0.1,6.1,0.24,0v-0.1h-0.24V137Zm0.1-17.19,0.1-.1-0.1,0v0.14Zm0.1,13.25,0.1,0,0-.14-0.19,0,0,0.14h0.1Zm0,1.06-0.1,0,0.19,0.38,0.1,0,0-.1-0.14-.38h-0.1Zm0-13.35v0.1l0.19,0,0-.14-0.14-.19Zm0.43-5.18-0.19,0-0.14.1,0,0.24,0.1,0.1,0.14-.19,0.14,0.1,0.1-.1,0-.14Zm-0.14,1.49-0.24.1,0,0.19,0.19,0V117.1Zm-0.14,3.17h-0.1v0.1h0.14Zm0,16.08,0,0,0.1-.19-0.14,0v0.1Zm0.19-14.83,0.1-.14,0-.1-0.19.14v0.1l0.1,0Zm0.34-5.28-0.29.24-0.1,0,0.14,0.38,0.1,0,0-.34,0.24-.1-0.1-.19h0Zm-0.24,3.7-0.14,0,0,0.1,0.1,0v-0.1Zm0.14,5.52h-0.24l0,0.1,0.19,0,0-.1Zm0,2.06-0.1,0-0.1,0,0.24,0.1Zm-0.14,9.36h0.1l0-.1,0,0-0.14,0Zm0-15.27,0.14,0.1,0.1,0,0-.29-0.19-.1v0.34Zm0.24-3h-0.14l0,0.1h0.1v-0.1Zm0.48,2.5,0-.1-0.58-.19v0.34l0.53,0.1,0,0Zm-0.38-2-0.1-.1H236l0,0.19,0.14,0.1v-0.19ZM236,126.46l0.1,0,0.1-.19-0.1,0-0.14.14v0.1Zm0,3.12,0.19,0.14,0.1,0-0.1-.14-0.19,0v0.1Zm0.1,2.45h0.1l0.1-.29-0.14,0-0.1.1,0,0.19Zm0-16.18,0,0.1,0.38,0-0.34-.48v0.43Zm0,7.44,0-.1-0.1,0,0,0.1Zm0.1-6,0-.1-0.1.14h0.14v0Zm0.1,2.69-0.24-.1v0.19l0.1,0,0.19,0Zm-0.14,4.27,0-.19-0.1-.1,0,0.29h0.1Zm0,3.46,0-.1h-0.1v0.1h0.14Zm0,0.43,0,0,0,0.1,0,0Zm0.67,13.3,0-.1h-0.72l0.62,0.1h0.14Zm-0.38-23.38-0.1,0-0.14,0-0.1.14,0.1,0,0.24,0v-0.14Zm-0.24,7h0.24l0,0,0-.14-0.19,0-0.14.1V125Zm-0.1,8.88V134l0.14,0.19,0-.38Zm0.1-6v0.1l0.1,0Zm0.38-10.75V117l-0.14-.14-0.19,0V117l0.1,0.19,0.14,0.1Zm0,2.16-0.19-.38-0.1.34,0.24,0.14Zm-0.1,2.5-0.1,0,0,0.19,0,0Zm0.1,13.68,0-.19-0.19,0-0.1.14,0,0.1h0.19Zm-0.14,4.7,0,0,0,0.1Zm0-18.72,0.14,0.1,0-.1-0.19-.1v0.1Zm0-6.24,0.1,0-0.1-.14v0.1Zm0,12.29,0,0.1,0,0.1h0.34l0-.1-0.24-.14Zm0.19-9.75,0.1,0,0-.19h-0.1l-0.1.14,0,0.1h0.1Zm0,14.26,0.1-.14-0.1,0-0.19.19h0.19Zm-0.14,4.13,0-.1h-0.1Zm0-21.41h0.14v-0.1l-0.14,0v0.14Zm0.1,3.41,0.14-.1-0.1,0-0.14.14h0.1Zm0.19,5.71-0.24.1,0,0.19,0.1,0,0.19-.1,0.1-.19Zm-0.19-4.85,0,0.19,0.29,0v-0.14h-0.24Zm0,20.88h0.14l-0.14-.1V140Zm0-11.86,0,0.1,0.19,0v-0.19l-0.19,0Zm0.19-3.7-0.14,0v0.19h0.1l0.1-.14Zm-0.1-10.13,0.14,0.14,0-.29-0.1,0Zm0.53,1.3-0.19-.1h-0.29l0,0,0,0.19,0.34,0,0.19-.14ZM237,126.17V126l-0.19,0,0,0.1,0,0.19Zm-0.1-9.7,0.24-.14-0.1-.19-0.14,0-0.1.19v0.14Zm-0.1,18,0,0.14,0-.34v0.19Zm0.14,6.34v0h-0.14l0.1,0.14Zm0.19-18.67L237,122l-0.14.1,0,0.19,0.29-.1,0-.1ZM237,131.74l-0.1-.1,0,0.14Zm-0.1-18,0.1,0,0-.1-0.1,0Zm0.1,9.36h0.14l0.14-.14-0.1,0-0.29,0v0.1Zm0,6.82,0,0,0,0.1Zm0-15.17-0.1.1,0,0,0.14-.1Zm0,20.64-0.1-.1,0,0.14ZM237,113.26v0.14h0.1l0.14-.14H237Zm0.19,4.94-0.1,0-0.1.29,0.14,0.1,0.19,0Zm-0.1,5.71h0.1l0.1-.14-0.1,0-0.19.14Zm0.1-9.84-0.14-.1v0.1h0.14Zm0,17.33,0.14,0.14,0-.14-0.19-.14v0.14ZM237.3,140h-0.1l0,0.1,0,0.1h0.1V140Zm0-14.55,0,0.1,0.14,0.1v-0.19h-0.1Zm0,20.5,0.1,0-0.1,0v0.1Zm0.19-29.28,0-.24-0.19,0,0,0.19h0.1Zm0,6,0.1-.24-0.1,0-0.14.1,0,0.29h0.1v-0.1Zm-0.1-9.22,0.1,0.29,0.19,0.1,0.38-.1-0.58,0,0.58-.1,0.1-.67-0.24.19-0.29.48,0-.14-0.14-.1Zm0.29,8.11-0.14-.1-0.1,0,0,0.14,0.29,0v-0.14Zm-0.19,17.67-0.1-.1v0.1h0.1Zm0.14-21.17-0.1-.19-0.1.29h0.19v-0.1Zm-0.1,5.9,0,0.24,0.38,0.1,0-.14-0.24-.29Zm0,12.87,0,0.1,0.19,0,0-.1-0.14,0Zm0-13.2,0,0.1h0.1v-0.1l-0.14-.1v0.1Zm0.19,15.31,0.19-.29-0.34,0,0,0.43Zm0.24-23.38,0.14,0.19h0.14l0-.34-0.14-.1-0.29,0,0,0.19,0.14-.1,0.1,0.1v0.1Zm-0.1,7.82,0,0,0,0-0.1,0v0.1Zm0.14-9.84-0.14,0,0.1,0,0,0v0Zm-0.14.43,0.1,0.1H238V114l-0.1-.1h-0.1V114Zm0.29,9.84-0.19,0-0.1.14,0.29,0,0-.1Zm0,7.44-0.1,0-0.1.19,0,0.14,0.14-.1,0.1-.29h-0.1Zm-0.1-12h0.19l-0.19-.19,0,0.14Zm0,13.39,0,0,0,0.1h0.1v-0.1Zm0.14,7.25-0.19,0,0.19,0v-0.1Zm0-27.89,0.1,0-0.1,0V112Zm6,11.47-0.19,0-0.34.14,0-.72,0-.1,0-1.06,0-.1v-0.38l0-.1V120.6l0-.1v-0.77l0.24,0.1v0.34l0.19,0,0.19-.34,0-.29-0.48.14-0.14-.14v-0.82L243.3,118l-0.29-.38-0.77-.58-0.48-.14-0.77,0-0.1,0-0.19-.34-0.14.34h-0.24l-0.91.43-0.53.72-0.14.34-0.1.48,0,0.72-0.14.34,0.1,0.38V122l-0.29.1,0,0.14,0.24,0,0.14,0.1,0,0.67-0.1.14,0.1,0.19,0.1,0.53-0.14.34,0,0.86,0,0.1-0.1.62,0.1,1.44,0,0.1v1.92l0,0.1v0.86l0,0v0.82l-0.19,0v0.1l0.14,0.14,0,0.19,0,0.86,0,0.1v5.71l0,0.19,0.19,1,0.38,0.86,0.1,0,0.14,0.24,0.34,0.24,0.62,0.29,0.67,0.1,0.67,0,1.15-.43,0.14-.24,0.43-.14-0.14-.19,0.24-.48,0.1-1.06,0.1-.1v-1.58l-0.1-.14,0-.29,0-.1,0-1.15-0.1-.1v-1.68l0.24-.58,0-.19h0.1l0.24,0.24,0.19,0-0.48-.48-0.14-.34,0-1.15,0-.19,0.19,0.1-0.14-.53,0.1-.19,0-.58-0.14-.67,0.14-.29-0.14-.43,0.1-.19,0-1.06,0-.1-0.1-.58v-0.77l0-.1v-0.38l-0.1-.38,0.14-.58,0-.48,0.53,0.1v-0.24Zm-5.9-.91,0.14,0-0.14,0v0.1Zm0,9.6v-0.1h0v0.1h0Zm0-18.77,0.19-.14,0.1-.24-0.29,0,0,0.34h0Zm0.72,1.68,0,0.14,0.1,0.1,0.1,0,0.14-.34h0.1l-0.19-.24,0.1-.1-0.19,0-0.1-.19-0.29.14h-0.29l-0.19.53,0.19,0,0.1-.29L239,115v0.1Zm-0.67,12,0,0,0,0.1Zm0.1-13.54v0.1l0.14-.1h-0.14Zm0.14-1.92,0,0.14,0-.14h-0.1Zm0.1,0.34,0,0,0.1,0v-0.1h-0.19Zm0.19,4.27-0.1,0-0.14,0,0.24,0.1v-0.1Zm0,28.56,0-.19h-0.1l-0.1.1,0,0.19Zm0.43-31.49-0.14-.14v0.38h-0.19l-0.14.14,0.14,0.1,0.34,0,0.1,0.1v0.53l0.19,0,0.1-.43,0.14,0.1,0.1,0.38H240l0.19-.29,0-.19,0.29,0,0,0.19,0.29,0v0.24l-0.29.19,0.34,0.34v0.19l0.62,0,0.1-.14h-0.19l-0.14-.24,0-.34-0.19,0-0.14.24-0.14,0,0-.19,0.1-.1,0.19,0,0.19,0,0-.29-0.43,0-0.1-.1V114l0.19-.34,0-.14-0.38.14-0.14-.19-0.14,0-0.14.24-0.1,0,0-.29-0.24.14-0.24,0-0.14,0-0.1-.19v0Zm-0.29-.72,0,0-0.19.19v0.19l0.29-.14,0-.34L239,112.2l-0.1.24Zm0.43-.82,0,0,0,0.1Zm0,1,0,0,0.1,0v-0.14l-0.14,0v0.1Zm0.38,0.34,0-.1-0.19,0v0.1l0.14,0.19,0.1,0v-0.1Zm0-.82-0.1,0,0,0.14h0.29l0.29-.14,0-.1-0.19,0-0.14-.34-0.1,0v0.34l0,0Zm0.1,2.74H240l0.19-.14,0-.34-0.29.1-0.14.34Zm0.24-2.06-0.19,0,0.14,0.14Zm0.19,2.59h-0.1v0.19h0.1l0.1-.14Zm0.1-.48,0.14,0.43h0.1l0.1-.1v-0.19l-0.24-.34h-0.19Zm0.29-2.54-0.29.1,0,0.19,0.29,0,0.19-.1,0-.29Zm-0.1,1.25,0,0-0.14.19v-0.29Zm0.14,30.34,0.1,0V144l-0.1,0v0.1Zm0.1-28H241l0.43-.43,0-.24h0l-0.1.29-0.38.1,0,0.19ZM241,143.5l-0.14-.1,0,0.14,0.19,0v-0.1Zm0-31.73,0,0.29,0.19,0,0.24,0,0.14-.1v-0.1h-0.14l-0.34-.19Zm0.24,4.56,0,0,0,0,0,0.1Zm0.43-2.5v-0.14l-0.1-.1-0.19,0-0.1.14,0,0.1h0.1l0.19,0.14,0.14,0.34,0,0,0.14,0.1,0-.29,0-.1,0.34,0.67-0.14.19,0-.29-0.1,0,0,0.43,0.24,0.1,0.19,0.24,0.14-.29,0.14-.1,0.48,0.24,0.1-.1-0.14-.82-0.24.14h-0.19l-0.24-.14-0.1-.29,0.1,0,0.19,0.14,0,0v-0.38l-0.58.14-0.38.24Zm-0.19,2.06-0.14,0,0.1,0,0.14,0Zm0.58-3.17-0.29.14-0.14.43,0.1,0.19,0.1,0,0.14-.14,0.14-.29,0.19,0v-0.62l-0.19.14,0,0.14H242Zm-0.24,3.74,0,0-0.19-.14,0,0.14Zm0-4.61H242v-0.1h-0.19v0.1Zm0.43,3.84,0-.1-0.19,0,0,0.1,0,0.1,0.24,0v-0.1Zm-0.14,27.55-0.1,0v0.14h0.14Zm0.34-31.44-0.1,0,0,0.14,0.1,0,0.34,0-0.19-.14Zm0.43,4.7-0.24-.29-0.14,0,0.38,0.53v-0.19Zm-0.29,26,0,0,0,0.1,0.1,0v-0.1Zm0-27,0.38,0.38,0.14-.29,0-.29-0.14-.1-0.38.19Zm0,0.29-0.1-.1v0.1h0.1Zm0-3.74,0.1,0.1,0-.14Zm0.14,34.32,0,0,0.19,0-0.14-.14-0.1,0v0.1ZM243,114.7l0,0-0.19-.24,0-.1H243v0.29Zm-0.19-2.26,0,0.1,0.1,0Zm0.14,3.79-0.14-.1v0.1h0.14Zm0-4.22h0l0-.1V112ZM243,142.44l0,0,0,0.1Zm0.29-29.86-0.34.14v0.19l0.29,0v0.19l-0.29.19,0.24,0.53L243.5,114l0.19,0,0.43,0,0.53,0.34v-0.24l-0.1-.1-0.19,0-0.1-.14,0.14-.38h-0.24l-0.14.1,0.1,0.14,0,0.19-0.67-.1,0.19-.53-0.19,0v-0.29l0.14-.14,0.24,0,0.1-.14h-0.19l-0.29-.14Zm-0.19,4.22-0.14,0,0,0.1h0.14Zm0.38-1.73-0.1,0,0,0.1,0.14,0.1v-0.14Zm-0.1-3.17,0.1,0,0.14-.14,0-.1-0.19,0v0.14Zm0.14,4.27h-0.1l0,0.1,0.19,0Zm-0.14.72,0.1,0.14,0.43,0,0-.14,0.24-.29-0.1,0-0.24.19H243.4v0.1Zm0.14,23.86h-0.1l0,0.1,0.53,0-0.34,0Zm0,5.66,0-.19-0.1-.1-0.1.19,0,0.1h0.1Zm0-30.72,0.38-.1,0,0.24-0.14.14,0.38,0.19,0.1,0.14,0.19,0,0.34,0v0.1l-0.14.19,0.29,0.34H245l0.29,0.19-0.29.24-0.14-.19-0.14,0,0,0.19,0.19,0.29v0.24l0.24,0.43,0.62,0,0.62-.1-0.29-.19-0.19,0-0.14-.1,0-.24-0.14-.24-0.14-.1,0-.14,0.24-.29,0.19,0-0.1.24,0,0.19,0.29-.1,0.34,0,0.1-.38,0.34,0-0.24-.82-0.34.1,0.1-.24,0.14-.1,0.19,0v-0.1l0.19-.19-0.1-.14-0.29-.19,0-.19,0.38-.48,0.1,0v-0.29h-0.19l-0.29.24-0.19,0-0.1-.48h-0.1l0,0.43-0.1,0-0.14,0-0.1,0,0,0.14,0.19,0,0.29-.1-0.1.43-0.29,0-0.29,0,0-.14,0-.1-0.48,0v-0.1l0.1-.1h0.29l-0.1-.29-0.34,0-0.14.24-0.14-.14,0.1-.19,0-.38h-0.1l-0.1.14v0.72l0,0.1-0.24-.1,0,0.19,0.34,0.29,0.1,0.29,0.19,0.1h0.19l0.19-.38,0.14-.1v0.34l-0.62.67-0.24,0-0.58-.29-0.1-.58-0.24-.14,0,0.1-0.1.19-0.43,0Zm0,25.39h-0.1v0.1l0.1,0,0.1-.1Zm0.1-22.8,0-.1-0.14-.19,0,0.24,0.14,0.14v-0.1Zm-0.14,5.28,0.1,0v0h-0.1Zm0,20.35,0.19,0,0-.1-0.24,0v0.1Zm0.19,0.82,0.14,0.19,0.1,0-0.14-.24Zm0.19-21.84v-0.1h-0.14V123l0.1,0Zm0.48,1.39-0.14-.1h-0.34l-0.14.1v0.1l0.43,0.1,0.19-.1v-0.1Zm-0.62,1,0.1,0,0.24-.14-0.34,0v0.14ZM244,120.6l-0.14-.14,0,0.19,0.14,0Zm0.24,7.1-0.34-.14-0.1,0,0.14,0.24h0.19l0.58-.19v-0.14l-0.14,0-0.29.29ZM243.88,132h0v0.1h0.1Zm0,9.55-0.1-.1v0.14Zm0.1,4.27h-0.1l-0.1.1,0.1,0,0.1,0v-0.1Zm-0.1-33.6,0,0,0.1,0.1,0.1-.19Zm0.24,2.21,0-.1-0.19,0,0,0.1,0.29,0.14v-0.1Zm-0.29,1.1v0l0.14,0h-0.14Zm0.24,12.77,0-.19-0.24,0,0,0.14,0.1,0,0,0Zm0-6.1,0-.14-0.19,0,0.19,0.19Zm-0.24.48,0.19,0,0-.1-0.24,0v0.1Zm0,0.43,0,0.14,0.1-.19Zm0.53,4.13-0.53-.1,0.43,0.14Zm-0.38-11.47,0,0.19-0.14,0V115.8h0.1Zm0,15.51,0.19,0,0-.1,0,0-0.24,0Zm0.43-15.94-0.1-.34-0.19-.19-0.14.38h0.19l0.14,0.29,0.19,0Zm-0.34,3.74-0.1,0,0.14,0.1,0-.14h-0.1Zm0-1.92,0,0,0.29-.1,0.1-.29h-0.14l-0.19.24h-0.14Zm0.19,11.28-0.24.19v0.1l0.1,0,0.1,0,0.14-.24Zm-0.1-3.26h0l0,0.24,0.1,0v-0.29Zm0.24,1-0.24.14,0,0.14,0.1,0,0.24-.1,0.1-.19-0.1-.14Zm-0.24-5.47v0l0.1-.1Zm0.14-9-0.1.14h0.14l0,0.1,0-.29Zm0.34,13.87-0.14.1-0.29-.1,0,0.24,0.38,0,0.1-.19h-0.1Zm-0.34,4.13,0,0-0.14.1Zm0.43-11.19,0-.1,0-.24-0.1,0-0.38,0,0.1,0.19Zm-0.24,4.32v-0.19l-0.24-.19,0.1,0.38,0.1,0.1Zm-0.14,10.22,0,0,0,0.1Zm0.1-2.5,0,0-0.1,0,0.1,0.29,0.14-.24Zm0,3.41,0.53-.14-0.62.14h0.1Zm0.24-2.64,0-.1H244.5l0,0.1,0.19,0.1Zm-0.14.34-0.1,0v0.1l0.1,0,0.1-.14Zm0,0.62,0.14-.14-0.24,0v0.19h0.1Zm0.14-12,0.14-.1,0-.14-0.29,0-0.1.1,0,0.24,0.19,0Zm0,10.18-0.1.1,0,0.1,0.34-.19,0.24,0,0.1-.34-0.14-.1,0.19-.1-0.1-.1h-0.1l-0.19.29-0.19.1-0.24-.14-0.1.14,0.19,0.19Zm0,2.93,0-.1-0.14,0v0.14h0.19Zm0-20.79,0,0,0-.14-0.14,0v0.24h0.14Zm0,9.7,0.14-.38,0.24-.14-0.34-.82-0.1.19,0.19,0.43-0.29.1,0,0.29,0.14,0.29v0.14Zm-0.1,7.3-0.1,0,0.1,0.1,0.1,0v-0.1h-0.1Zm0.1-13.63H245l0.14-.1-0.1-.19-0.34,0,0,0.19Zm0,3,0.19-.19-0.1,0-0.19.19,0,0.14Zm0,9.22L245,128l0.14-.48-0.19-.1,0,0.34-0.19,0-0.14.38h0.1Zm0,3.74,0.14,0,0-.1h-0.14l0,0.1Zm1.2-7.44,0-.14,0-.1-0.24.14-0.38,0,0.14-.34,0-.29-0.19.1-0.62-.1,0,0.1,0,0.1,0,0.24,0.19-.24,0.24,0,0,0.82,0.1,0.38-0.14.1-0.29-.19v0.19l0.29,0.14h0.14l0,0.19h0.24v-0.14l-0.1-.19,0-.38Zm-1.1,4.85,0-.1h-0.1v0.24l0.14,0v-0.19Zm0-6.53-0.1.19,0,0,0.19-.14,0-.19Zm0,3.5,0-.14-0.14.14,0,0.1ZM245,113l-0.1.1h0.19V113H245Zm0,2.16-0.1,0,0-.1,0.29,0,0,0.19,0,0.14Zm0.19,4,0,0-0.19.14,0,0.14,0.14,0.1,0.24,0,0-.19h0.14l0,0.19-0.1,0v0.1l0.48,0.19-0.14-.14-0.1-.62-0.1-.14-0.19,0-0.14.14h0ZM245,131.31l0.1,0,0.14,0,0.1-.14-0.19-.1-0.19.19Zm0,11.62,0.1-.14H245l0,0.14H245Zm0-17.19,0-.1H245v0.1h0.1Zm0-9v-0.1l0.19-.14,0.1,0,0,0.24-0.19,0Zm0,2.11,0,0,0-.14-0.1,0v0.14Zm0.14,20.4V139l-0.14,0,0,0.14h0.1ZM245,144l0.1,0.24,0.29,0-0.1-.19-0.19-.1,0-.1Zm0.1-31.78,0,0.24,0.14,0,0.1-.34-0.19,0v0.1Zm0.29,14.45-0.24-.1-0.1.1v0.14l0.1,0,0.24-.1v-0.1Zm0.62-6.29-0.19-.34-0.19,0,0.19,0.24-0.72.19,0,0.29,0.14,0.1,0.34,0-0.14,0,0-.1,0-.14,0.29-.14,0.14,0-0.1.34,0.14,0,0.14,0.14,0,0.14-0.19,0,0,0.1,0.19,0.19,0,0.29,0.29,0.19,0.1-.14-0.1-.53,0.14,0,0.14,0-0.14-.34,0.14-.19-0.14-.34-0.34,0Zm-0.91,1.92,0.14,0.1v0Zm0.24,4.9-0.19,0,0,0,0,0.19h0.38Zm0,3.46-0.29.19,0.24,0,0.43-.29-0.19-.14Zm0.29-7.87v-0.34l0.24,0-0.14-.53-0.24-.14-0.38.29,0.43,0,0,0.24-0.19.38,0.19,0.19ZM245.18,143h0.1l-0.1-.1V143Zm0.1-6.38,0.24,0,0-.1-0.29,0v0.1Zm0.1,8.45V145h-0.1v0.1h0.1Zm0-31.54h0.14l0.19-.24-0.19,0-0.14.1v0.19Zm0.1,5.23,0.1-.1,0.19,0.1-0.1-.19-0.29,0v0.19l0.1,0v-0.1Zm-0.1,9.65,0.29,0.24,0.14-.14-0.19-.14h-0.19Zm0.24,3.74-0.24,0v0.1l0.14,0.1,0.1,0v-0.1Zm0.1-8.69-0.1,0-0.19.14,0,0.19,0.19,0,0.1-.19Zm-0.24,6.1,0,0.1,0,0.1h0.1l0-.19h-0.14Zm0,4.51h-0.1v0.1l0.19,0.1Zm0,10.51,0.14,0,0.14-.24-0.29.14-0.1.19Zm0-26.59h-0.1l0-.1Zm0,25.73,0,0,0,0.1Zm0.1-27.6,0,0.1,0.34,0.14-0.1-.24,0,0h0.24l0,0.34,0.19,0.1,0,0.19-0.29.1-0.58-.14,0-.29,0-.29Zm-0.1,22.18,0.1,0.1,0.19,0,0-.19-0.24,0v0.1Zm0-25.39,0,0.1h0.19l0.1-.19,0.19,0-0.53,0v0.1Zm0.1,21,0.14-.43h-0.14l-0.1.43h0.1Zm-0.1,7.58,0.1,0,0.19-.14,0-.1-0.1.1,0,0-0.1,0v0.1Zm0.19-27.75,0,0-0.1.24,0.24,0.19h0.1Zm0,18,0,0,0,0.1Zm0.14,6.14,0-.1-0.14,0,0,0.1L245.8,138Zm0-6.82,0.19-.14v-0.1l-0.1,0-0.19,0,0,0.24h0.14Zm0.43-17.81-0.48-.1,0,0,0.53,0.24v-0.19Zm-0.1,13.15h-0.29l-0.14.24,0.19,0,0.24,0,0.1-.14Zm-0.19,3.36-0.24-.14,0,0.19,0.14,0Zm-0.19,5.86,0,0,0.19,0-0.1-.14-0.14,0v0.1Zm0,3.07,0,0.1h0.1l0-.19h-0.1v0.1Zm0.1,5.52,0.19-.19h0.19l0-.1-0.48,0,0,0.29Zm0-21.12,0-.1H245.8v0.1h0.1Zm0,20,0,0,0,0.19,0.19-.14v-0.1l-0.1,0Zm0,1.92v-0.1l-0.1.14Zm0-19.68H246l0-.14-0.14,0v0.1Zm0.29,6.53,0.14-.34H246l-0.14.14,0.14,0.38,0.14,0.1v-0.29Zm-0.24,2.88,0,0.14,0.19,0v-0.14l-0.1-.14H246Zm0.14,1.54,0.1,0,0,0,0-.29h-0.1l-0.14.19Zm0.19-20.79v0.1l-0.19.19H246l0.19-.34Zm0.14,4-0.34-.14-0.1,0,0.14,0.1,0.1,0.19,0.24,0.24,0-.1,0-.19,0-.14h-0.1Zm0.38,8.4,0.1,0-0.62-.43,0-.29-0.14-.14,0,0,0,0.24,0.1,0.1-0.19,0v0.29l0.14,0,0.19,0,0.14,0.1,0,0.19h0.29ZM246,140.19l0.1,0-0.1-.14,0,0.1h0Zm0.29-10.94,0.24-.34v-0.19l-0.14-.19-0.24-.1-0.14.29,0.14,0,0,0.1-0.1.48Zm-0.14-6.43,0.29-.14,0-.1-0.1,0-0.34.29h0.1Zm0,7.25,0.14,0.1,0.14,0-0.19-.19-0.14,0Zm0.1,15-0.14,0v0h0.14Zm0.24-26.31-0.1,0-0.24.34,0.1,0.14,0.34-.24,0.29,0,0.14-.38,0,0,0.19,0,0.19,0,0.14-.24,0.14,0,0-.19,0-.14,0.14-.1-0.58,0,0-.19,0.14-.34-0.24-.14-0.19,0,0.1,0.14,0.14,0-0.24.82-0.43.24Zm-0.29,5.86,0.1,0,0-.29h-0.1l-0.1.1Zm0.1,12.58,0.1,0-0.1-.14-0.14,0v0.14h0.14Zm0-13.1-0.1,0,0,0.1,0.14-.14h-0.1Zm0,14,0,0.1,0.14,0,0.29-.29h-0.1l-0.14.19-0.24-.1v0.14Zm0.38-20.21,0.1-.24h-0.19l-0.24.29,0.34,0.34h0.1v-0.14l-0.1-.19v0Zm-0.34,8.45h0.1l0.1-.14-0.1,0-0.1,0v0.14Zm0.29,0.29-0.19-.14-0.1.1,0,0.19,0.14,0.1,0.1,0,0.1-.19h-0.1Zm-0.1-3.7-0.1-.1,0,0.14Zm-0.1,9.41,0.24,0,0.1-.19-0.1,0-0.29.1Zm0-12h0.1l0.1-.1Zm0.38,14.16,0.1-.29-0.19-.1-0.14,0-0.14.19,0.38,0.24v-0.1ZM246.42,139l0.14-.1,0-.1h-0.1V139Zm0.19,4.46v-0.1l-0.19,0,0.14,0.19Zm0.24-24v-0.1l-0.14-.14h-0.1l-0.1.1v0.14h0.34Zm-0.29,5.71h0.14l0-.1ZM247,136.35l0-.1h-0.24l0.1,0.14,0.19,0v-0.1Zm-0.14,7.92-0.1,0,0,0.1,0.1,0Zm0-22.08,0,0.1,0.14,0,0.14-.14,0-.1-0.19,0-0.14.1Zm0,3.55L247,126H247l0-.38-0.14,0-0.1.1Zm0.34-5.09-0.1-.29-0.19,0,0,0.19,0.19,0.14ZM246.86,127l-0.1.14,0.24,0.24,0-.43Zm-0.1,2.88,0,0,0.1-.19-0.14,0v0.1Zm0.14,2.93,0.19,0,0.1-.19h-0.43l0,0.24h0.1Zm-0.14,2.06h0.1v-0.1l-0.1-.1v0.19Zm0.34-20.79-0.1,0-0.1,0,0,0.14,0.34-.14h-0.1Zm0.19,5.9-0.14-.1-0.29,0,0,0.1,0.29,0.19,0.1,0V120Zm0.43,1.2,0-.19-0.38-.34,0-.24-0.1,0-0.24.43-0.1,0-0.14.29,0.34,0,0.14,0.48,0.14,0,0-.19,0-.14h0ZM247,124l0,0,0,0,0,0.1Zm0-4.7,0.1,0-0.14.14,0,0.14,0.14,0,0.1,0,0.14-.29,0.19,0,0-.19-0.34-.14-0.14.14Zm0,11.38,0.1,0,0.34,0-0.19,0v-0.24l-0.34.1Zm0.38-7.06v-0.14L247,123.1l0.29,0.53h0.14Zm-0.24-8.16,0,0,0.14,0.34-0.24.38,0,0.19,0.19-.1,0.38,0.19,0-.1-0.34-.38,0-.43-0.14-.14h-0.1Zm0,8.5,0-.1-0.1,0L247,124h0.14Zm0.34-8.83v-0.19l-0.14-.14-0.19,0,0,0.24,0.1,0.14,0.19,0.1Zm-0.1,7.39,0.24-.29-0.19,0-0.29.19v0.19l0.14,0,0,0.19,0,0.19,0.19-.19v-0.19Zm0,5.52h-0.14l0,0.19,0.24,0.1,0,0,0-.14Zm0,6.24-0.19,0,0,0.1,0.24,0.14,0.14,0Zm-0.1,1.92,0-.1-0.14,0v0.19Zm0-6,0.14-.14-0.1,0-0.1.14Zm0.43-13.06-0.14-.1-0.19,0-0.1.14,0.43,0V117.1Zm-0.34,3.84,0,0.1h-0.1l0-.1h0.1Zm-0.1,3.94v0l0.19,0Zm0.38,2.69,0.19-.19,0-.14-0.38,0-0.14.14,0.34,0.34h0.1ZM247.29,129l0.29,0.14,0.38,0,0-.34-0.14,0-0.29.14-0.29-.1V129Zm0.19,10.61,0-.1h-0.1l-0.1.1h0.14Zm0.14-19.83-0.14-.14,0,0.1,0.14,0.14Zm-0.19,5.81v0.14l0.1,0.19,0.1,0v-0.29l-0.1-.14Zm0.19,17.71-0.14-.14,0,0.19,0.14,0Zm0-20.07-0.14,0,0.14,0.14v-0.1Zm-0.14,9.5,0.14,0,0-.14Zm0.24,2h-0.19l0,0.14,0.24,0,0.1-.14Zm-0.14-19.59,0.43,0.19,0.29,0,0-.14-0.19,0-0.14-.1,0-.19-0.29-.14-0.1.1v0.19Zm0.14,0.72v-0.19h-0.1l0,0.1,0,0.1h0.1Zm0,14.69,0-.14,0,0.14h0.1Zm0,1.34,0.1,0,0.19-.29-0.1-.14-0.29.38,0,0.1h0Zm0,0.43,0-.19-0.19.14,0,0.1Zm-0.14,4.18,0.1,0,0-.1-0.14,0v0.1Zm0.29-13.2-0.19.19,0,0.24,0.19,0,0,0.14-0.14.19v0.1L248,124l0.29-.38-0.1,0L248,123.1l-0.14,0v0.24Zm0.14-3.6,0.1-.1,0-.14-0.29-.34-0.1,0,0.24,0.34,0,0.19H248Zm0.14,1.78-0.1,0-0.29-.1,0,0.19h-0.14l0,0.19,0.14,0,0-.19h0.29l0-.19h-0.1Zm-0.38,12.72,0,0,0,0.1Zm0-20.31V114l0.1,0Zm0,15.65,0.1-.14-0.14.14h0Zm0,6.19,0.1,0.1,0,0-0.14-.14v0.1ZM248,124.78l0.14-.43-0.1,0v0.1l-0.29.34,0.1,0.19,0.14,0v-0.19Zm-0.14,1.78,0.34-.48h-0.34l-0.1.48h0.1Zm0,6.67,0.14,0.14,0.1-.24-0.1,0-0.19,0Zm0.29-13.1-0.19-.19-0.1.1,0,0.19,0.14,0.1Zm-0.19,2.11,0,0.14,0.14-.14h-0.1Zm0.29,11.14-0.29.19,0,0.1,0.1,0,0.67-.43,0-.29-0.1-.14-0.14.24h-0.1l0-.1h-0.14l0.14,0.29v0.1ZM248,121.13l0.1,0,0.1-.19,0-.14-0.19.19,0,0.19H248Zm0,9.27,0.14-.24,0-.19L248,130l-0.1.19,0,0.19h0.1Zm0.19-13.54-0.19,0-0.1.19,0,0.24,0.14,0.1,0.19-.53Zm-0.19,20.83,0,0,0,0.1Zm0.19-19.92,0.14-.1,0-.19h-0.19l-0.19.14,0.1,0.19Zm-0.14,5,0,0.1,0.1,0Zm0.38,6.72,0-.1-0.14-.29h-0.14l-0.14.19Zm-0.34,4.75,0.29,0.34,0.19,0.1h0.29l0.14-.1H249l-0.38-.48-0.48,0Zm0.24-18.15V115.9l-0.1,0-0.1.14,0.14,0.14Zm0,2.16-0.19-.1,0.19,0.19v-0.1Zm-0.19,8.5h0.1l0-.14-0.14,0v0.1Zm0-.38,0,0.1,0.19,0,0.1-.1-0.1,0,0.1,0-0.34,0v0.1Zm0.48,5.86-0.14-.14-0.29,0,0.24,0.58,0.14,0.14h0.14l0.1-.14,0-.1h-0.24l0.1-.19v-0.1Zm-0.29-12.82,0.1,0v-0.1l-0.14-.14,0,0.29h0.1Zm0,3.36,0-.1v0.1h0Zm0.14,1-0.1,0-0.1.1,0,0.1,0.19,0Zm-0.1-4.9,0,0.1,0,0.14,0.1-.24h-0.1Zm0.19,1.49-0.24,0,0.1,0.19,0.19,0Zm0,8.5h-0.14l0.14,0.14v-0.14Zm0-.48,0.19,0,0.14-.1-0.19-.19-0.19.1v0.1Zm0,6-0.1,0v-0.1Zm0-17.09,0.14,0-0.1-.14Zm0,0.77,0,0.1,0.19-.1,0.19-.24-0.24,0-0.19,0v0.24Zm0,1.82,0.1,0.1h0.19l-0.1-.14-0.24,0Zm0,4.66,0,0.1h0.1l0-.1h-0.1Zm0.14,0.77v-0.1h-0.1l0,0.14Zm0,5.42,0,0.14,0.1,0,0.19-.19h-0.24Zm0.19-4.13v-0.1l-0.1,0-0.1.14,0.1,0.1Zm0.29-3.17-0.34-.14-0.1,0,0.1,0.24,0.34,0,0.1-.1v-0.1h-0.1Zm-0.43,2.74,0,0.1,0.62,0.14,0-.1-0.24-.14H249l-0.19-.1v0.1Zm0.24,4,0.14-.14-0.1,0-0.19-.29h-0.1l0,0.1v0.48l0.19,0.1v-0.19Zm-0.19-13.35,0,0.19,0.14,0,0-.24-0.19,0Zm0.14,0.72,0.1-.14-0.1,0-0.14.1v0.1H249Zm0,6.58-0.1.1,0,0.19,0.19,0,0.19,0L249,124Zm0.1,8.16-0.1-.19-0.1,0,0,0.14h0.14Zm0-13.49-0.1-.1,0,0.14Zm0.19,14.79-0.29-.14,0,0.1,0,0.14,0.29,0.1v-0.19Zm-0.14-4.66,0.14-.14-0.19-.34,0,0.1v0.38h0.1Zm-0.1.48,0.14,0.24v-0.34l-0.14-.1v0.19Zm0.34-4.46-0.19-.24-0.1.1,0,0.19,0.19,0.14,0.14-.14Zm0,9.41,0-.1-0.19,0,0,0.1,0.14,0Zm-0.19.43h0.14l0.1-.14,0-.1-0.24.14Zm0.24-16-0.19.19,0.29,0,0-.24-0.1-.1Zm-0.19,14.35,0.1,0.1h0.19l0-.1-0.34-.1v0.1Zm0.1-12.39h0.19v-0.1l-0.19,0,0,0.1Zm0,9.6,0.1,0,0.1-.1-0.19,0v0.1Zm0.38,0.34-0.29.29,0,0.24,0,0.29,0.19,0,0.1-.14,0.1-.62h-0.1Zm-0.19-3.5,0.38,0-0.38-.38-0.1.1v0.19Zm0.19,2.3,0-.19-0.24-.14,0,0.43h0.19Zm-0.19-11h0.1l0-.1-0.14-.1v0.19Zm0,4.42,0,0.1,0.1,0,0-.1Zm0.19,3.22,0.1,0,0-.19h-0.24l-0.1.14Zm-0.1-1.39v0.1h0.1l0-.1h-0.14Zm0.1,7.34,0.1-.14,0,0-0.14.1v0.14Zm0,0.58,0-.1-0.14.1,0.1,0v0Z" transform="translate(-211.1 -111.1)"/><path d="M259.58,142.25l0.1,0.24v2.06l0,0.1v1l-0.34.77-0.14.1h-1l-0.19,0-0.72-.14-0.43.1,0,0h-0.29l0,0-0.53,0-0.48.14h-0.82l-0.1,0h-0.72l-0.29-.29-0.19-.43v-2.26l0-.1v-0.48l-0.1-.67,0.1-.58-0.1-.14v-1.39l0-.1v-0.58l-0.1-.19,0.14-.38-0.1-.77v-1.34l0.1-.34-0.14-.29,0.14-1.06v-0.62l0-.1V133.9l0-.1v-0.58l0-.1,0.34-.14,0.14-.29v-0.19l-0.1,0v0.19l-0.43,0,0-1.06-0.1-.67,0.1-.1,0.1-.58,0-.1v-0.86l0-.1v-0.91l0.24-.34-0.24-.19v-1l-0.1-.67,0.14-.29,0-.38,0-.77-0.14-.48,0.1-.58,0-.86,0-.1v-0.38l0-.1v-1l0.14-.24,0.19,0,0.19,0.14H254v-0.1l-0.14-.14-0.14-.38-0.14.1V121l-0.1,0-0.1-.14-0.1-.38v-0.82l0.1-.62-0.1-.14,0-.29v-1.78l-0.1-.82,0.14-.34,0-.19v-1l-0.1-.29,0.19-.19-0.1-1.44,0.1-.38,0.34-.43,0.48-.1h1.25l0.48,0.14,0.29-.1h0.38l0.14,0.1,0.1-.1h1.87l0.38,0.14,0,0.29,0,0.19,0.14-.19,0-.29,0.34,0.24v1.58l0,0.1v1.54l0,0,0,0.67,0,0v0.77l0,0.1v0.48l0,0.1v0.82l0,0.1v1.44l0.1,0.48-0.14.38,0.1,0.38,0,0.62-0.1.14,0.1,0.19v0.38l0,0,0,0.67,0,0.1v0.91l0,0.1v0.43l0,0.1v0.58l0,0.1V126l0.1,0.24v0.58l-0.1.62,0.1,0.19V128l-0.1.38v2.35l-0.14.24,0.19,0.53,0,0.43-0.1.14-0.24.1,0.38,0.14v2.35l0,0.1v1.25l0,0.1v1.25l0,0.1v0.67l0,0.1,0,1.1,0,0.1V140l-0.1.19,0,0.53-0.1.14,0.14,0.29,0,0.62-0.1.34v0.1Zm-6.14-12.87,0.19,0.1,0.1,0-0.19-.19-0.1,0v0.1Zm0.14,2.5v-0.1h-0.14V132h0.1Zm0-15.07,0,0.24,0.19,0v-0.38l0-.1h-0.1v0.19Zm0,1.82,0,0,0,0.1Zm-0.1,1.06,0.19,0.1,0-.14-0.24,0v0.1Zm0,15.36,0.1,0-0.1,0,0,0.1h0Zm0.38-17.38,0-.1-0.19-.1-0.14,0,0.38,0.29v-0.14Zm-0.29,2.45h0.1V120l-0.19.1Zm-0.1,1.44h0.14l0-.1h-0.1v0.1Zm0.24,6.24-0.1-.1,0,0.1,0.1,0.1Zm-0.1,18h0.1l0-.1Zm0.1-24.34,0,0.1h0.1l0.24,0.29h0.1l0-.1-0.24-.43v0Zm0,7.49,0.1,0.19,0.1,0,0-.19-0.1-.14h-0.1Zm0.1,8.11,0.14-.14-0.1-.1-0.14.19Zm0-24.19,0.1-.1h-0.1v0.1Zm0.1,12.87,0,0,0,0.1Zm0,18.72,0-.1v0.14ZM254,120l0-.1-0.1.1h0Zm0.14,13.3,0.1-.1-0.1,0-0.14.14h0.14ZM254,126.6l0.1,0,0.1,0-0.14-.1Zm0.1-8.69,0,0.24,0.14,0.14,0-.48Zm0,9.07-0.1,0v0.1l0.19,0V127h-0.1Zm0.1-13.78,0-.1,0,0.14Zm0,14.06-0.14.14h0.19l0-.1Zm0.1,0.91v-0.1l-0.19-.1,0,0.1,0.19,0.19Zm-0.14-14.74,0,0.19,0.19,0,0-.1-0.19-.24Zm0,5.86v0h0.1l0-.1-0.1,0Zm0.14-3.55,0-.1h-0.1l0,0.1h0.1Zm0.14,0.77-0.14,0-0.1.1v0.1l0.29,0Zm-0.1,8.64,0.29-.29,0.1-.19-0.48.14,0,0.29,0.14,0.14v-0.1Zm0,1.87h0.1v-0.1l-0.14,0Zm0.24-12-0.24.24,0.29-.24h0Zm-0.1,2.35,0.38-.48-0.1-.1h-0.14l-0.29.14,0.1,0.38Zm0,5.86-0.14,0v0.19l0.14,0v-0.19Zm0.1,0.67,0-.1-0.19,0,0.14,0.14,0.14,0Zm0-1.25,0-.19-0.14,0,0,0.24h0.14Zm-0.1,9.55,0.38,0,0,0.1,0,0.19,0.1,0.1,0.29,0.1h0.29l-0.1-.19-0.34-.19,0.14-.48h-0.1l0.19-.43,0.29-.29-0.14-.1-0.24.38-0.1,0,0-.19-0.14-.14-0.1.82-0.43.19Zm0.19-17.81,0.1,0,0.19-.14v-0.1l-0.1,0-0.19,0v0.19Zm0.1,21.84,0-.14h-0.14v0.1Zm0-18.39,0,0.1,0,0.14,0.1,0,0.24,0.19-0.1-.29-0.19-.14Zm0,27.22,0.24,0.1-0.1-.14Zm0.48,0.86-0.19-.24-0.29,0,0.1,0.19,0.38,0.29V146ZM255,113.5l0,0-0.14,0,0,0.1H255Zm-0.1,22.13,0,0.1,0,0.19,0.19-.19,0-.19-0.14-.1v0.19Zm0,3.07,0.19,0.19,0.14-.14,0-.19-0.29,0-0.1.19h0.1Zm0-7.92,0.14,0-0.14,0v0.1Zm0.38,6.62,0.1-.1-0.1-.1-0.29,0-0.1.1v0.14h0.38ZM255,114.94l0.1,0-0.1,0-0.1,0Zm0,12.1,0.1,0-0.19,0H255Zm0,10.9-0.1.14,0,0.1,0.19,0,0-.19H255Zm0.19-21.55-0.14-.14,0,0.19,0.19,0v-0.1Zm-0.1,2.11,0.1-.1-0.19,0Zm0.53,1.78v-0.1l-0.29-.19-0.19.19-0.1-.1,0,0,0,0.14,0,0.1h0.67Zm-0.1,20.07,0.24-.67-0.1-.1-0.19,0,0,0.19h-0.1l-0.34.19,0.1,0.14,0.19,0,0.14,0.14-0.14.19,0,0.1Zm-0.34-20.16h0l-0.1.1,0,0,0.1,0v-0.19Zm0,4.9-0.14.1,0.1,0.19,0,0.48,0.19-.19,0.24-.48V125l-0.1-.19-0.14-.1-0.19.1v0.29Zm0-9.74-0.1.14h0.14l0-.19Zm0,14.11,0,0.14,0.1,0.14,0.1,0,0-.14-0.14-.14Zm0,1,0,0,0.19-.1,0-.1,0-.19-0.14,0-0.14.14,0,0.19Zm0,11.09,0.1-.14,0-.1-0.14,0,0,0.1,0,0.19h0.1Zm0.34-20.69,0,0.29-0.19.1-0.19,0v0.48l0,0.1,0.14,0,0-.29,0.1,0,0.62,0.34,0.19-.38,0-.1-0.19,0-0.14-.1,0-.1,0-.19-0.29-.24Zm0-6,0-.1-0.24,0-0.14.1,0.58,0.14-0.14,0v0Zm-0.1,3.07,0.38,0,0.19-.14v-0.14h-0.1v0.1l-0.1,0-0.72-.1,0.24,0.14Zm-0.1,6.24-0.1-.19-0.1,0,0,0.19,0.14,0.29h0.1v-0.24Zm-0.14,3.46,0.34,0.1,0-.53h-0.1l-0.29.38Zm0,1.63-0.14-.14v0.14h0.14Zm0,1.44,0,0,0,0.1Zm0,2.54,0.1,0,0.24-.1-0.38,0Zm0,1.54,0,0.1,0.1,0v-0.1Zm0.19-21.84-0.14.14,0,0.1h0.19V113Zm0.34,5.47-0.14,0-0.34.24,0,0,0.43-.1v-0.14Zm-0.24,8.4,0-.14h-0.19v0.1l0,0h0.14l-0.1,0h0.1Zm-0.1,10.08,0.1-.19h-0.14l-0.1.14,0,0.1Zm0.14-14.16-0.1,0-0.14.38,0,0.14,0.24,0.1,0.14,0-0.19-.53,0.1-.1h-0.1Zm-0.24,2.4v-0.24l0.19,0,0,0.24Zm0.14-5.62,0,0-0.1,0,0,0.14Zm0,15.75,0.1,0,0.29,0-0.1-.19-0.14,0-0.19,0,0,0.19h0.1Zm0,6.86,0.24-.1v-0.1l-0.29.1,0,0.14Zm0.34-25-0.19.14-0.19,0v0.19l0.48-.38h-0.1Zm-0.29,11.14,0.29,0.19h0.29L256,128l-0.29.14-0.1-.19h0l0,0.24Zm0-6.43,0,0,0.1,0.29,0.1-.19,0-.19Zm0,7.15,0,0.24,0.34,0,0.19,0.1,0.1-.48-0.29.1-0.29-.1Zm0.14,8.45h-0.1l0,0.1h0.14v-0.1Zm0-23.38-0.1,0v0.14h0.14l0-.19h-0.1Zm-0.1,1.1,0,0,0.1-.1-0.14,0v0.1Zm0.19,8.78,0.24-.14,0,0h-0.29l-0.1.19h0.19Zm0,7.06,0-.14-0.1,0-0.1.1,0,0.1h0.1Zm0,1.87h-0.19l0,0.1v0.38l0,0.1,0.14,0L256,133l0.29-.34,0-.14-0.1,0-0.14.1,0,0.29Zm0.1,1.06-0.14,0-0.14.19,0.48-.14h-0.19Zm-0.24-21.75,0.1,0-0.1,0v0.1Zm0,12.19v0.14l0.1-.1Zm0.62,5.47,0.1,0,0.19,0,0-.29-0.24-.14-0.53.14-0.1.14,0.29,0,0.29,0.14Zm-0.53,15,0.1-.14h-0.1l-0.1.19Zm1.15-25.2,0.1-.1-0.29-.14h-0.34v-0.19l-0.58-.19,0,0.19,0.29,0-0.14.1,0.34,0v0.1l0.14,0.19v0.19l0.34,0.1,0-.29ZM255.78,126l0.14,0-0.1-.14ZM256,114.5l-0.1,0,0,0,0,0.1H256v-0.1Zm0,2.11-0.1,0,0,0.19h0.1L256,117h0.1l-0.1-.24,0-.19H256Zm0,6.38,0,0,0,0.1Zm0.72-.38h-0.19l-0.24.24-0.34.58,0.1,0,0.24-.14,0.19-.38,0.1,0v0.19l0.14,0.24,0.24-.34h-0.14l-0.1-.1,0.1-.24Zm0,18.77,0.14,0,0.14-.24-1.1,0,0.72,0.19Zm-0.48-16.75,0.48-.24-0.14-.14-0.29.14,0-.24h0l-0.24.38,0.19,0.29Zm0,11,0-.14-0.19,0v0.19l0.1,0.1h0.1Zm-0.24,1.3,0.14,0,0.1-.1v-0.19l0.1-.19-0.24-.1-0.1.14V137Zm0.29,3.31,0-.1,0-.29,0-.29-0.1,0-0.24.34Zm-0.1-24,0.1-.53-0.19,0,0,0.34,0.1,0.19Zm0.24,22.51,0-.1-0.19,0-0.1-.14-0.14.14,0,0.19,0.19-.14-0.24.38,0.1,0,0.29,0v-0.29Zm0.77-23.62,0.14-.29,0.1,0-1,.24,0-.24,0.24-.34,0,0.24,0,0.1,0.43-.1,0.14-.1-0.34-.34,0.43-.14,0.38-.24,0-.19-0.34-.14v0.1l0.14,0.1V114l-0.77.1-0.14.14-0.19,0,0,0.1,0,0.1-0.1.29-0.1,0-0.14.34,0.14,0.14h0.14l0.43,0,0.1,0v0H257Zm-1,4.7,0-.14H256v0.1ZM256,126.7h0v-0.1h0v0.1Zm0.29,3.7,0,0-0.1,0-0.14.34,0.43-.24Zm-0.1,11.67,0.1-.19-0.1,0-0.14.19,0,0.1Zm0-23.52h0v0.1h0.1Zm0,15.89v-0.1l-0.1,0v0.14h0.1Zm0,0.38,0.19-.14,0.19,0,0-.24-0.1,0-0.34.14v0.29Zm0.14-19.63v0l-0.19,0,0.14,0Zm0,2.78-0.1.38,0.48,0.29v-0.14l-0.19-.24V118l-0.1,0h-0.1Zm0.29,3,0.34-.14-0.24-.14-0.38,0-0.1.24h0.38Zm-0.29,9.26,0,0,0,0.1Zm0-2.74,0,0.1,0,0.1,0.14,0,0-.19-0.1,0Zm0.24-10-0.14.1,0,0.14h0.19v-0.24Zm0,1.39,0,0-0.14.1,0,0.14,0.14,0v-0.14Zm-0.1,13.49h0.34l0.14-.1-0.43-.1-0.14.1Zm0.14,4.37,0.1,0,0.19,0,0-.1-0.38-.14-0.1.24h0.24Zm-0.14-8.35,0,0,0,0.1h0.1v-0.1Zm0.48-6.29-0.14.38,0.29,0,0.1-.1V122L257,121.9l-0.14,0-0.24-.34h-0.19l0.19,0.34,0.19,0.1Zm-0.48,5,0.19,0.34,0.29,0.14-0.29-.53-0.19,0V127Zm0.1,6.72,0,0.1,0-.1-0.1-.1v0.1ZM257,119.21l0.14,0,0.1,0V119l-0.1-.1-0.48,0v0l-0.1,0,0.24,0.14Zm-0.14,5.86-0.14.1-0.14.38,0.29-.19,0-.19Zm-0.29,11.09v0.1l0.1,0v-0.1Zm0,2.06,0,0,0.34-.19,0-.1-0.43,0v0.19Zm0-23,0.1,0.1h0.1v0l0-.1Zm0,12.82,0.24,0.38,0,0.29H257l0-.24-0.29-.48-0.14,0V128Zm0.29,1-0.14,0-0.14.1,0,0.19h0.19l0.1-.14Zm0.24,1.87,0,0-0.38-.53-0.19,0v0.24h0.14l0.1,0.34,0.19,0.1Zm-0.43,6.19,0.1-.14,0-.1h-0.1l0,0.24h0.1Zm0-18.1,0.14,0.1,0-.1H256.7Zm0.24,12.53,0-.14h-0.19l-0.1.14,0,0.1Zm0-18-0.19.14,0.14,0.14,0.24,0,0-.1,0-.14Zm-0.14,19.44v0.19l0.19,0.1,0,0.19,0.1,0.14h0.1v-0.43l-0.24-.29Zm0.53-11.76-0.34,0-0.14.14,0.38,0,0.14-.14h0ZM257,131.64l-0.1,0,0,0.14H257l0-.19H257Zm0.1-15.79-0.19.19,0,0.19H257l0.1-.14,0-.29-0.1,0v0.1Zm0,9.07,0.29-.1-0.1-.29-0.29.24,0,0.14H257Zm1.06-7.2,0-.24-0.29-.1-0.48.14-0.1-.14,0-.34L257,117l0,0.29,0.24,0.43,0.34,0.24,0.14-.34,0.29,0v0.24Zm-1.15,16.61v0.1l0.14,0.14h0.1l0-.29-0.14,0Zm0.14-11.62v-0.1H257l0,0.14Zm0.14,12.34-0.24.1,0.1,0.14,0.19,0,0.1-.14-0.1-.1Zm0.38,5.66,0,0.1,0.19,0v-0.19l-0.1-.19-0.19,0-0.14.14-0.38.1,0,0.19h0.14l0.29-.24Zm-0.48-24.15,0,0,0,0.1Zm0.19,6.82-0.14.14-0.14.34,0,0.1,0.43-.1,0.1-.1-0.19-.38h-0.1Zm0.24,1.68h-0.14l-0.29.14,0,0.1,0.14,0.29,0.24,0,0.14-.43Zm-0.34,6.24,0,0-0.1.1,0.1,0,0.14,0Zm0-7,0-.1-0.14,0v0.14h0.1Zm0,13.1,0.19-.29-0.19,0-0.1.29Zm0-11.33,0.14,0.1,0.19-.1,0-.1h-0.29v0.1Zm0,9.94,0.24,0-0.19-.19-0.1,0Zm0,2.93,0,0.14,0.19-.19,0-.14Zm0.19,1.06-0.24-.1,0,0.14,0.19,0V140Zm0-11.38,0,0v-0.29l-0.14-.1-0.1.34,0.1,0.14Zm-0.19,4.08,0.1,0.1,0.1-.14-0.14,0Zm0.24-16.08,0-.19-0.14-.1v0.19l0.1,0.19h0.1v-0.1Zm-0.14,10.61,0,0.19,0-.19h-0.1Zm0.14,6.38,0.48-.19-0.1-.1-0.1,0,0-.1h0.1v-0.19l-0.19.1-0.29.29Zm0-17.57-0.1,0,0.1,0v0.1h0.19Zm0.1,5.28-0.14-.1,0,0.24,0.19,0v-0.19Zm-0.1,5.14,0.1,0v-0.1l-0.1,0-0.1.19h0.1Zm0,0.53,0-.14h-0.1l0,0.19Zm0,2.64-0.1-.1v0.1h0.1Zm0,4.66,0,0.1h0.1v0Zm0,8.11v0h-0.1Zm0.34-23.62,0.14-.29,0-.19-0.19,0-0.29.1,0.29,0.24,0,0.14,0,0.1Zm0,9.17,0.1,0,0.1,0v-0.1l-0.14-.14-0.1,0-0.24-.24,0,0.1,0.19,0.34h0.14Zm-0.29,10.61,0.58-.43H258l-0.19-.24-0.19-.1-0.14.86Zm0,2.54h-0.1l0.1,0.19V141.1Zm0-26.59h0.1l-0.14-.14,0,0.1Zm-0.1,5.33h0.1l0-.14-0.14,0v0.1Zm0-2.78,0.1,0,0.1,0h-0.19Zm0-3.74,0,0.14,0.19,0,0.38-.1,0.1-.14h-0.58l-0.1,0ZM258,123.39L257.9,123l-0.19,0-0.1,0,0.1,0.29,0.24,0.19,0,0Zm-0.38,7.06,0,0.1,0.19,0,0-.19-0.14,0Zm0.29-5.42,0-.1h-0.1l-0.14.14,0,0.19,0.14,0.14h0.1V125Zm0,1.58-0.14-.1-0.1,0v0.1l0.19,0.1,0,0v-0.1Zm-0.14,5.18-0.1.14H258l-0.14-.14h0Zm0.29,2.3,0-.1h-0.29v0.19l0,0,0.29,0v-0.1Zm-0.24.53h0.1v-0.14H257.8l0,0.1Zm0-14.21,0,0.1,0,0,0.1-.1Zm0.14,2.35v-0.19l-0.19-.24,0,0.38,0.1,0.14Zm-0.19,7,0,0.1,0.14,0v-0.1l-0.14-.1Zm0,1.54,0.1,0.1H258v-0.1l-0.14-.1Zm0.1,5.86-0.1,0v0.14h0.1v-0.1ZM257.8,139l0.24,0.19v0l-0.24-.24V139Zm0.1-23.86,0,0.1H258l0.14-.19-0.1,0-0.19,0v0.1Zm0.43,1.39-0.43.1h0.48ZM258,121.08l0.1-.1v-0.1l-0.14-.1,0,0.29H258Zm0,3.31,0,0,0,0.1Zm0,2.5h0.1v-0.1l-0.1-.1v0.19Zm0.1-1.34,0,0.1h0.1Zm0,1.92,0.19,0,0.14-.14-0.34-.1v0.29Zm0.58,0.53-0.14-.1-0.43.14,0.48,0Zm-0.48,4.42,0-.1,0-.1-0.1.14,0,0.1Zm0-16.42,0,0,0,0h0.1Zm-0.1,13.44,0.1,0,0-.1-0.14,0v0.1Zm0.14-16.85-0.1,0,0,0.1h0.1Zm-0.1,7.87h0.1v-0.19h-0.1v0.19Zm0,10.8v0.1l0.1,0Zm0.29-6.48-0.1-.1-0.14,0,0,0.14,0.19,0v-0.14Zm0,4.75-0.1.14,0.19,0v-0.1h-0.1Zm0.1,1.58h-0.14v0.1l0.14,0.1v-0.19Zm0-7.25,0.1,0.1h0.1v-0.19h-0.19v0.1Zm0.19,3.46,0-.19-0.19.1,0,0.1h0.19Zm0,4.32,0-.14-0.1,0,0,0.24ZM259,118.15l-0.1-.14-0.24,0,0.1,0.24,0.19,0Zm-0.19,7.68h0.1l0-.19-0.19,0,0,0.19Zm0-5.52,0.1,0-0.1,0v0.1Zm0.48,8.35H259l-0.19.19-0.1.29,0.43,0.14L259,129l0-.1h0.1l0.14-.14Zm-0.34-1.92,0,0.1H259l-0.1-.19-0.14,0Zm0,7.06-0.1-.1v0.14Zm0.1-2.5,0-.1h-0.1v0.1H259Zm0,3.84-0.14,0,0.14,0v-0.1Zm0-17.47,0,0.24,0.1,0,0-.19H259Zm0.1,14.26,0.1-.14h-0.1l-0.1.1,0,0.1Zm-0.1.62v0.1h0.1l0-.1H259Zm0.14,0.53h0.19l0.14-.19-0.1-.14,0,0.1-0.29.19Zm0-13.92,0.14,0.14,0,0,0-.19h-0.1Zm0.19,6.77-0.14-.14v0.14l0.14,0.1v-0.1Zm0.1-13.54,0,0,0,0.1Zm0,3.89,0-.1,0,0.19,0.1,0v-0.14Z" transform="translate(-211.1 -111.1)"/><path d="M274.5,123.48l-0.24,0,0-.24v-3.7l-0.14-.77-0.58-1.1-0.43-.38V117l0,0-0.14.14-0.24,0-0.14-.24-0.14,0-0.19.19h-0.67v-0.38l0.24-.72-0.1,0-0.29.19-0.1-.14-0.19,0,0,0.19,0.19,0.14,0,0.62,0,0.1h-0.1l-0.67.34-1,.86-0.19.1,0.14,0,0,0.24-0.14.19v0.24l-0.1.14v0.48l0,0-0.1.53,0,0.62,0,0,0,0.43v2.06l0.1,0.19v0.14l-0.1.1,0,0.82,0.1,0.14,0,0.19v1.92l0,0v2.26l0,0.1v2.3l0,0.1v0.67l-0.1.29,0.1,1.1,0,0.1v0.86l0,0.1,0,0.62,0,0.1-0.1.38v1l0,0.1,0.1,0.19v1.44l0.19,1.2,0.19,0.53,0.72,0.62,0.38,0.24,0.43,0.14,0.58,0.1,0.53,0,0.1,0,1.15-.67,0.62-1.44,0-.77,0.1-.19-0.1-.72,0-.1V137l0-.1v-0.43l0-.1V136l0-.1v-0.38l0.1-.14V135l0-.1v-0.38l0,0,0-1,0.1-.34,0.24-.1,0-.34,0.48-.14h2.54l0.1,0h1.15l0.29,0.14,0.24-.1,0.62,0.1,0.1,0.1,0,0.19,0.19,0,0.14,1v1.73l0,0.1v2l0,0.1v1.06l0,0.1-0.14.77,0.1,0.19-0.24.91L279.45,143l-0.1,0,0,0.29-0.19.1-0.48.72-1,1-0.77.58,0,0.1-0.62.34-0.62.24-0.24.19-1.87.43-0.58-.1-0.24-.19-0.1.29-0.19,0-0.1,0h-1.49l-1.3-.24-1.63-.38-0.62-.29-0.29-.34-0.38-.14-0.62-.43-0.24-.58h-0.1l0,0.1h-0.1l-0.1-.14v-0.38l-0.1,0,0-.1,0,0.14-0.24-.1-0.14-.14-0.14-.29-0.14-.14-0.1-.43,0.14-.34-0.1-.1h-0.1l-0.14.19-0.53-.72,0-.67-0.1-.19-0.14-.1-0.29-.67-0.14-.14V139.8l0-.1,0-.86-0.1-.43,0.1-.58-0.14-.38v-1.3l0-.1v-0.72l0.1-.24-0.1-.77,0-.1v-0.38l0-.1V133l0-.1v-0.58l0-.1v-0.38l0,0v-0.77l0-.1-0.1-.34v-0.77l0.1-.19v-0.91l0-.14v-0.86l0-.14,0.14-.1-0.19-.29,0-.38,0.29-.58-0.19,0,0-.19,0-.58,0-.1,0-.82,0-.1v-4l0-.1-0.1-.43,0.14-1,0.14-.1-0.14-.29,0.14-.86,0.24-.86,0.53-1.2,0-.24,0.19-.19,0.24-.53,0.29-.24,0.58-.77,1.06-.86,0.43-.19,0.38-.38,1.25-.48,1.68-.43,0.72,0,0.1,0,0.24-.1,0.86,0,0.1,0h0.86l0.1,0h0.48l1.1,0.29h0.29l1.25,0.53,1.06,0.67,1.49,1.34,0.19,0.43,0.24,0.19,0.24,0.34,0,0.43,0.62,1.34,0.24,0.91,0.19,1.73v1l0,0.1v0.58l0.1,0.38,0,0.67-0.14.43v1.2l0.1,0.67-0.48.67h-1.63l-0.1,0h-1l-0.1,0h-1.73l-0.1,0h-0.43l-0.38-.14-0.38-.77V124l0.34-.38v-0.1Zm-11.42.38,0.1,0.1,0.1,0-0.14-.19-0.1,0Zm0.34,16,0.19,0,0-.1-0.58,0,0.29,0Zm-0.19-2.3h0.1v0Zm0-15,0.1,0,0-.1Zm0-.67,0,0.14,0-.1,0-.14Zm0.14,3.6,0,0,0,0.1Zm0,12.67-0.1,0h0.1v0Zm0.19-2.88,0,0,0,0.1Zm0.43,3.5,0.14,0.24,0,0.48,0.14,0.1,0-.19,0.19,0,0-.14-0.29-.34-0.1-.29,0.14,0.1v-0.19l-0.19,0-0.62.29,0.19,0.1,0.29-.1Zm-0.43-14.26,0.14,0V124.3l-0.14.14v0.1Zm0.1,1.58,0,0.1,0.1,0Zm0.14,1.63v-0.19l-0.19.14,0.14,0.1Zm-0.19,10.13,0.14-.14,0,0-0.1,0v0.14Zm0.24-14.06-0.19.14,0,0.19,0.34-.19,0.29-.29h-0.14l-0.14-.29-0.1.19v0.19Zm0.43,2.83-0.1,0-0.1-.19-0.14-.1,0,0.19-0.24.34,0.24,0.67,0.14-.48,0.1,0,0.24-.43h-0.1Zm-0.62,5.62,0.1,0,0-.14Zm0,5h0.14l-0.1-.1Zm0.1,1.06-0.1,0,0,0.14Zm0-13.15,0-.1H263.8v0.1h0.1Zm0,15.7,0.1-.1v-0.1l-0.24,0,0,0.14h0.1Zm0,0.38,0,0-0.14-.1v0.14h0.1Zm0-7.49,0,0L264,134l0-.24Zm0.14-1.87,0-.19-0.19,0,0,0.14h0.1Zm0-10.51H264v0.1l0.19,0Zm-0.1,5.42,0,0-0.1,0Zm0,6,0.1,0-0.1,0v0.1Zm0.14-4.8h0.1V127.9h-0.14l0,0.1Zm0,11.71,0.14,0.14,0-.24Zm0.1-15.51h0.1l0-.19-0.1,0-0.1.1v0.1Zm0.24,3.26,0-.1-0.34-.1,0.1,0.1Zm-0.29,1.92,0.1,0.14h0.1l0.1-.29h-0.1l-0.14-.14,0,0.1v0.19Zm0,2.93,0,0,0-.1Zm0.1,7.82,0,0h-0.14v0.1Zm0-12.43,0,0.1,0.24,0.14v-0.1l-0.29-.24v0.1Zm0.19-6.24-0.1,0,0,0.14,0.19,0,0-.14h-0.1Zm0.38,2.93-0.38.1-0.14.14,0.29,0,0.38-.14,0.19,0,0.14-.14h0.19l0.19,0.19,0.19,0-0.24-.34-0.24-.1-0.38.24h-0.19Zm-0.38,6.91-0.14,0,0.1,0.1,0.14-.1Zm-0.14,4.08,0.14,0.38,0.19,0v-0.19l-0.1-.14-0.24,0v0Zm0.34-15.31-0.14-.1-0.14.1,0.34,0.1Zm-0.19,5.71,0.1-.14h-0.1l-0.1.1v0.1Zm0.1,7.82-0.19.14,0,0.1,0.19-.1,0-.1Zm-0.1,3.5-0.1,0,0,0.14Zm0,4,0.1,0,0-.19-0.19,0,0,0.19h0.1Zm0.34-10.85-0.1-.29-0.24-.14,0,0.1,0,0.14,0.24,0.29Zm-0.29,9.75,0.24,0,0.19,0,0-.24-0.34.14-0.19-.1,0,0.24Zm0.19-19.44,0-.1-0.14,0,0,0.1,0.19,0.14Zm-0.1,8.45-0.1-.1,0,0.14Zm0.29,7.3-0.43-.1,0.14,0.38,0.19,0.14,0.14-.19,0-.19Zm-0.43,5,0.14,0v-0.1l-0.14-.14v0.19Zm0.19,1,0-.1h-0.1l0,0.14,0.19,0v-0.1Zm0-21.31-0.1,0-0.1,0v0.1h0.19v-0.1Zm0.14,2.21v0.14l-0.1.19h-0.19l0.1,0,0,0.29,0.1,0,0.14-.24h0.1l0.19,0.14,0,0.24,0,0.14,0.19-.29v-0.29l-0.29-.14,0.24-.19,0.29,0,0.19-.48,0-.29-0.1-.14-0.53-.29V122l0.48-.24-0.19-.43-0.24-.24,0,0.1,0,0.19,0.14,0.1,0,0.14-0.38.14-0.19.34v0.24l0.14,0.14v0.14l-0.1,0v0.19l0.14,0,0.19-.48,0.38,0.1,0.1,0.14,0,0.24-0.19,0-0.14.14-0.19,0-0.14.38-0.19-.29Zm-0.24,2.78,0,0.1h0.1l0-.14Zm0,0.48V127l0.14-.1,0-.24h-0.1l0-.1h0Zm0,5.9,0.24,0.1,0-.14-0.14-.1-0.1,0Zm0.1-4.22,0-.1-0.14.14ZM265,142.59l0-.38-0.48,0,0.34,0.38Zm-0.24-12.67,0.1-.1,0-.19h-0.1l-0.1.19,0,0.1h0.1Zm0,1.06,0.1-.24-0.1,0-0.14.19,0,0.1h0.1Zm-0.14,2,0.14,0.34h0.1l0.14-.24,0,0.38,0.14,0.14,0.1-.1v-0.24l-0.1-.19,0.34-.1-0.86-.1Zm0.1,7.68h-0.1v0.1h0.1v-0.1Zm0.1-21.41,0,0.14-0.19,0,0.1,0.19,0.34,0.34v-0.1l-0.1-.1,0-.29,0-.29-0.14-.14-0.14.1Zm0.43,16.56,0.1,0.29,0.19,0v-0.34l0,0,0,0,0.24,0.19,0.14,0,0-.1-0.24-.24,0.19-.1,0-.19-0.19-.24h-0.14l0,0.14-0.53.38-0.34-.29-0.14.14,0,0.14,0.38,0,0.14,0.14v0.1Zm-0.58,3.55v0.29l0.19-.1,0.29,0.14,0-.29-0.24-.19,0,0.1ZM265,128.81l-0.1-.1-0.19,0,0.1,0.19,0.19,0v-0.1Zm-0.24-13h0.1l0-.1Zm0,10.42,0,0.1,0.19-.1,0.14-.24-0.1,0-0.19.1Zm0.29,8-0.19.1-0.1.14H265l0.48-.34-0.14,0-0.19.1Zm-0.14-15.46h-0.1v0.1l0.1,0.1v-0.19Zm0.19,1.44-0.29-.14v0.24l0.19,0,0.14-.1Zm0,5.42,0.29-.1,0-.14-0.53-.38,0,0.1,0.14,0.53H265Zm-0.1,1.68,0-.1,0-.14-0.1.14,0,0.14Zm0,11.42,0,0,0.14,0.1v-0.1Zm0.14,1.54,0,0h0.43l0.38-.1,0.29,0.29,0.1,0-0.19-.48-0.38-.19-0.1,0,0.1,0.24-0.19,0-0.14-.14,0.1-.14h-0.34l0,0.24-0.29.19,0,0.19Zm0-11.14,0,0.1,0.1,0v-0.1Zm0.19,14,0.24-.19-0.29-.1L265,143l0,0.19h0.24Zm0-13.59-0.14.29V130l0,0,0.19,0,0.1-.14,0-.38-0.19,0,0,0v0.1Zm0,0.48-0.14.14,0,0.24h0.14l0.1,0.19h0.14l0-.1-0.19-.19,0,0v-0.24h-0.1Zm0.1,1.39,0.43-.1,0-.38,0,0-0.24.24h-0.24l-0.24.19v0.43l0.19-.24Zm0,3.36-0.24.14-0.1.14h0.29l0.14-.1,0-.19h0ZM265,136.44l0.19,0,0.1-.14-0.1,0-0.19,0v0.1Zm0.1-17.23,0,0,0.14,0-0.1-.1v0.1Zm0.67,7.3h-0.1l-0.24.34-0.24.14,0.14,0.38,0.19-.1,0.1,0.14,0,0.1-0.14-.1-0.24.1-0.14.24v0.19l0.67-.19,0.19,0.1,0-.29-0.19-.43-0.29,0v-0.1l0.14-.19,0.34-.24,0-.1Zm-0.62,7.34,0,0-0.1-.1,0,0.19,0,0Zm0,9.94h0.14l0-.1-0.14,0-0.1,0Zm0.1-27.6-0.1.14,0.1,0.1,0.38-.1-0.24-.14h-0.14Zm0.1,25.35,0.1-.14h-0.1l-0.14.14h0.14Zm0,0.1,0,0,0,0.1Zm0.1-22,0.1-.24-0.24.14,0,0.1h0.1Zm-0.14,9.79h0.19l0,0h-0.14Zm0.1,11.71,0,0,0,0.1Zm0.19-20.88,0.24,0,0.19,0v-0.14l-0.1-.19-0.29-.19h-0.19l0,0.1,0.19,0.19-0.14.1v0.1Zm-0.1,8.11,0.1,0,0.19,0-0.1-.48h-0.1l-0.1.14,0,0.24Zm0.19,7.92-0.24.19,0.1,0.14h0.1v-0.1l0.14-.19Zm-0.14-18.72,0,0,0,0.14,0.14-.14Zm0.1,7.54,0.24,0.14h0.58l-0.19-.19-0.48,0-0.14-.29h-0.14Zm0-4,0,0-0.1.14,0.14,0v-0.14Zm-0.1,20.26,0-.1,0,0,0,0.1Zm0-24.53h0.1l0-.1-0.14,0v0.14Zm0.19,11.9-0.19.19h0.14l0.14-.1v-0.1h-0.1Zm-0.19,3.84,0,0.14h0.1l-0.1-.24Zm0,1.44,0,0.1,0.1,0,0-.1Zm0,4.56,0,0.1,0.1,0v-0.1Zm0,2.26,0,0-0.14-.1v0.19Zm0.1-26.07h-0.14l0,0.1h0.14Zm0.77,8.59-0.91.19v0.14l0.14,0.14,0.43-.19,0.43-.29h-0.1Zm-0.86,2.54,0,0,0.14-.14,0,0-0.19,0Zm0,10.94,0,0.19,0.43,0.19,0.34-.14,0.24-.24,0.19,0,0.1-.1-0.34,0-0.19,0-0.1.29h-0.43l-0.24-.24Zm0,6h0.1v-0.1h-0.1v0.1Zm0-13.35v0l0.19,0.1,0-.1Zm0,14.31v0l0.1,0h-0.1Zm0.1-24.1,0.29,0v-0.19l0-.1h-0.14l-0.14.1Zm0,12.39,0.19,0,0-.1-0.14,0v0.1Zm0.19-10.51-0.14.29v0.38l0.19,0.34,0.29,0.1,0-.1v-0.43l0-.1,0-.29,0.19-.19v-0.1l-0.24,0-0.19.1Zm0.34,11.52-0.14-.14-0.34.14v0.19l0.48-.1v-0.1Zm0.19,9.6,0.19,0-0.14-.14-0.14,0,0-.19,0.14-.14,0-.14-0.19.1h-0.19l-0.43.14,0,0.24,0.38-.14-0.24.34v0.1l0.43-.19Zm-0.62-16.42h0.1l0-.1-0.14,0v0.14Zm0.34,15.55-0.14-.14h-0.19l0,0.29,0.34,0ZM266,137.4l-0.1,0v0.14l0.14,0.29-0.19.48v0.19L266,138.7l0.14-.58,0-.72H266Zm0,3.7,0.1,0V141h-0.1l-0.1.1Zm0,3.07,0,0-0.1-.14,0,0.19H266Zm0-28.66h0l0.1-.1-0.14,0v0.14Zm0,2.26,0.14,0.1,0.14,0-0.1-.19-0.19,0v0.1Zm0,12.63,0.1,0-0.1,0v0.1Zm0,8.83,0.1,0.19,0.1,0,0.1,0,0-.14-0.24-.14v0.1Zm0.19-22.56-0.1,0,0,0.1,0.14,0v-0.1Zm0,11.47,0,0,0,0.1Zm0,0.58,0.1,0,0.1-.1,0.1-.53h-0.1l-0.14.14-0.14.34Zm0,0.43,0,0.1h0.24l-0.1-.24-0.19,0v0.1Zm0.14,2.35,0-.1-0.1,0,0.14,0.14v-0.1Zm0.14-15.75,0-.1-0.19,0,0,0.19,0.19,0v-0.1Zm-0.24,4.85,0.14,0.14V120.6h-0.14Zm1.06,11.81,0.19,0,0.1,0,0-.14L267,132h-0.14l-0.19-.1-0.1-.14-0.19.14-0.24-.1,0,0.1,0.24,0.14,0.29,0,0,0.19-0.14.29h0.19l0.34-.19Zm-0.77,6.24,0,0-0.24,0,0.1,0.14,0.24,0Zm0.24-22.75-0.29.19-0.19,0v0.19l0.14,0.19,0.19,0v-0.14l0.24-.29Zm-0.19,10.51,0-.1-0.19-.1,0,0.19,0.14,0.1,0.19,0Zm-0.19,3.46,0-.1,0,0.14Zm0,2.93,0.14,0,0.14-.14,0-.14-0.29.1Zm0.14-7.15,0,0-0.1,0,0,0.1,0.24,0,0.1-.14h-0.24Zm0.48,1.39h0.1l0.14-.14h-0.43l-0.29-.24-0.14.1,0.24,0.24,0.14,0,0.19-.1Zm-0.48.38,0-.14-0.1-.1,0,0.24h0.1Zm0,12.34,0-.1-0.1,0v0.1Zm-0.14,4.46,0.24,0,0-.24-0.19.1v0.1Zm0-8.26,0.14,0.1v-0.14h-0.1Zm0-20.93,0,0.19,0-.24Zm0.58,1.87,0.24-.14-0.1,0-0.1-.24-0.24.34-0.29,0-0.1.38,0.43-.34h0.14Zm-0.48,17.28-0.1.14,0.1,0,0.1,0v-0.1Zm0.34,7.3,0,0h0l0.1-.1H267l0,0.1,0,0.1,0,0.24-0.19,0,0,0.14,0.43,0,0.19,0,0-.1-0.24-.19L267,141l-0.14-.14-0.24.53-0.14,0-0.1,0,0,0.1,0.29,0v0h0.1Zm-0.34-21.89,0.29,0.24,0.14-.24-0.43-.1v0.1Zm0,1.15,0.19,0,0-.19-0.14,0v0.19Zm0.19,9.5-0.1,0-0.1,0,0,0.1h0.14v-0.1Zm0.53,5.47,0.1,0,0.14,0-0.14-.34-0.67,0-0.14.24,0.19,0.19,0.19,0,0-.24,0-.1,0.14,0Zm-0.67,2.21,0.19,0.1h0.29l0.19-.1,0-.29-0.24,0-0.1-.19-0.19,0v0.19l-0.14.24Zm0.1-8.21-0.1.1h0.1v-0.1Zm0.38,10.18,0.34-.67-0.1-.1-0.43.24-0.29-.24v0.34l0.48,0.1-0.1.24,0,0.1h0Zm-0.48,1.68,0.1,0.1,0-.19Zm0.29-14.11-0.24.19v0.14l0.29-.1,0-.19ZM266.58,140l0,0,0,0.1Zm0-18.67,0.14,0,0.38-.19,0.14-.14L267,121l-0.48.14v0.24Zm0,2.59,0.1,0.19,0.19,0.1v-0.14l-0.1-.14-0.14,0Zm0.34,1.2-0.34-.1v0.14l0.34,0-0.1.29,0.1,0,0.14,0,0.14,0.1-0.1.14-0.34.1,0.14,0.38,0.24,0.29,0.24,0.1,0.14-.1,0-.34,0.1-.1h0.19l0.19,0.1-0.1-.19-0.14-.1h-0.53l0.29-.86-0.19,0L267,125l-0.1.1,0.1,0.1h-0.1Zm-0.34,3.07,0.1,0.1h0.1l-0.19-.19v0.1Zm0.14,10.85,0-.19-0.1-.1-0.1.29h0.14Zm-0.1-16.71,0.19,0.1,0.72-.14-0.91,0v0.1Zm0.58,12.19v-0.1l-0.53.14,0,0.14,0,0.1,0.58-.14ZM266.63,115l0.19,0,0-.1-0.14,0V115Zm0,23.57,0.1,0,0,0,0-.1h-0.1v0.1Zm0,2.83h0.14l-0.14,0v0Zm0.19-23.52-0.1,0,0,0,0,0.1h0.1v-0.1Zm-0.1,13.39,0.14,0v-0.1l-0.14,0v0.1Zm0,11.52h0.1l0,0Zm0.14,1.73-0.1-.14,0,0.1,0.1,0.1Zm-0.1-23.71,0.1,0.1,0-.19h-0.1Zm0.14,12.77,0-.1-0.1,0v0.1Zm0-16.13,0,0,0,0-0.14-.14Zm0,1.39,0,0,0,0.1Zm0,0.48-0.14-.14v0.14H267Zm0.38,3.46-0.1-.14-0.24-.1,0,0.19-0.14.19,0.14,0,0-.19,0.24,0.1Zm-0.14,1.73-0.1,0-0.29.14h0.29l0.14-.1h0Zm-0.34,3.6V128h0v0.1h0Zm0-12H267l0.1-.1,0-.1ZM267,133l-0.1-.1,0,0.1H267Zm0,2.11v0h-0.19l0.14,0.14Zm0.14,5.14-0.14-.14-0.19,0,0.1,0.14,0.43,0.1-0.19,0v-0.1ZM267.06,144h0l0.1-.19,0.14-.1-0.14-.43h-0.1l-0.1.1h-0.1l0,0.29,0.1,0.24ZM267,130.59h0.1v0l-0.14,0Zm0.43-7.1-0.1-.1H267l0,0.1,0.43,0.1v-0.1Zm-0.34,2.74,0.14-.14,0.14,0.14-0.1.14-0.24,0Zm0,10.37h0.1l0-.19h-0.1l-0.14.14Zm-0.1,5.66,0,0.1,0.19,0,0-.19-0.19,0v0.1ZM267.3,122l0.1-.14,0-.1-0.14,0-0.14.14V122l0.24,0.14V122Zm-0.14,6.38,0.34,0.14,0.1-.19,0-.1-0.48,0Zm0,14.31,0-.1h-0.1l0,0.14Zm0.14,2.06,0.19-.29-0.34,0,0,0.43v0l0.29,0ZM267.4,124l-0.19,0,0,0.24,0.1,0,0.24-.24Zm-0.1,3.65,0.29-.14,0.1-.14-0.34,0-0.19.24h0.14Zm0.1,1.58-0.24.19v0.1l0.1,0,0.14,0,0-.19,0-.19v0.1Zm-0.1.86,0.24,0.1,0-.24-0.38-.14,0,0.14Zm-0.14,6.1,0,0.1,0.34,0,0.24-.19V136l-0.19-.14-0.19,0V136l0.14,0-0.1,0-0.29,0v0.1Zm0-9.22,0.24,0.1,0.1-.14-0.34,0v0.1Zm0.1,0.29,0,0,0,0.1Zm0.14-12,0-.1-0.14,0,0.1,0.24h0.1v-0.1Zm0.19,2.69-0.14-.14-0.24,0v0.1l0.14,0.19,0.24-.1v-0.1Zm0.14,23.62,0.14-.14,0.1,0-0.14.14v0.1l0.19,0,0.34-.67v-0.19l-0.29.19-0.1.19-0.1,0-0.19,0-0.29-.43-0.19,0v0.1l0.43,0.82Zm-0.29-25-0.1,0-0.1,0,0.14,0.1,0.14-.1h-0.1Zm0.14,3.5,0,0-0.19,0-0.1.14,0.34,0.19,0.43-.1,0-.19-0.29,0-0.14.1Zm-0.19,17.28,0.1-.29-0.19,0,0,0.29,0.14,0.14v-0.1Zm-0.14,2.59,0.19,0.1-0.1-.19-0.1,0v0ZM268,117.48l0.19-.19,0.1-.29-0.24.1-0.14-.34-0.14-.1-0.29,0-0.14.62h0.19l0.38,0.14H268Zm-0.62,3.6,0.24,0.14,0.14,0,0-.19-0.29,0-0.19,0Zm0.24,1.58,0,0-0.14,0-0.1.19,0.19,0,0.1-.14v-0.1Zm-0.24-6.48h0.34l0-.14-0.1,0Zm0,2.54,0.19,0,0-.1-0.14,0v0.1Zm0.1,19.83,0.34,0.43,0.19,0-0.14-.48,0,0.1-0.34-.14,0,0Zm0,3.94h0.19l0-.1,0,0-0.19,0v0.1Zm0.24-28.95-0.14.1,0,0.19,0.24-.1,0-.19h-0.1Zm-0.1,25.78,0.1,0,0-.14-0.14,0-0.1.1v0.14h0.1Zm0,1-0.1,0,0.1,0.14,0.1-.14Zm0,3.36,0-.1h-0.1l0,0.1,0.1,0.1v-0.1Zm0-21.75,0.1,0.14,0-.19-0.14-.14v0.19Zm0,10.8v0.1l0.1,0,0-.19Zm0.1,2.06-0.1.1,0.14,0.1,0-.1,0-.19ZM267.88,123l-0.1,0-0.1.1,0.19,0.1V123Zm0,7.68,0,0,0-.1-0.14,0,0,0.19h0.19Zm0,2.4V133l-0.14-.1v0.19h0.14Zm0,4.94,0-.14-0.1-.1,0,0.24h0.1Zm0-11h0.1V127l-0.1,0-0.1.1Zm0,17-0.14,0,0.1,0.1Zm0.77-29.23H268.5V115l-0.72.1,0.91,0Zm-0.82,12.82h0.1l0-.1h-0.1Zm0,12.43v0.19l0.19,0.1v-0.19l-0.14-.19ZM268.21,114l-0.38.38,0.34,0,0.1-.34h0Zm-0.29,8.11H268l0.1-.1-0.29,0Zm0,6,0.1-.1,0-.29-0.1,0-0.14.43h0.1Zm0.24,15.41-0.14-.1-0.14,0,0.19,0.19,0.1,0v-0.1ZM268,119.83l0,0,0,0.1Zm0,0.53-0.1,0,0.14,0.14,0-.19h-0.1Zm0,3.94,0-.14-0.1,0,0,0.19h0.1Zm0,0.77,0,0,0,0.1h0.1v-0.1Zm0,15.55,0,0.1h0.1l0.1-.1-0.24-.1v0.1Zm0.14-5.18,0,0,0,0.1Zm0-15.94,0,0,0,0,0.1,0.14V119.5Zm-0.1,3.65,0,0.1h0.1v-0.1l-0.1,0Zm0.14,14.59-0.1-.1v0.1h0.1Zm0-22.27h0l-0.1-.1Zm0,0.43,0.14,0.14,0.14,0,0.14-.14v-0.14l-0.14.1-0.29,0v0.14Zm0,24.1,0.1,0.1,0.14-.24-0.1,0-0.1.1Zm0.43,1.25-0.34.14,0,0.14,0.58-.1,0.14-.19h-0.34ZM268.31,113l0,0.1h0.14V113l-0.14,0Zm0.14,31.63,0.1-.1,0-.14-0.1,0-0.1.19h0.14Zm-0.1-22.75v0h0.14l-0.1-.1Zm0,12.62,0.1,0,0.14,0-0.1-.14-0.14,0v0.19Zm0.14-15.75,0-.24,0,0.24h0.1Zm0,2.26h0v0.14l0.14-.1Zm0,1h-0.1l0,0h0.1Zm0,1.15,0,0.14,0.14-.14h-0.1Zm0,16.47,0,0,0.1,0v-0.24l-0.14.1v0.14Zm0-13.92,0.1,0,0.14-.14,0,0-0.19,0v0.1Zm0.1,18.29,0.14,0-0.14,0v0.1Zm0.24-29.71h-0.14l0,0.1,0.1,0,0.1,0v-0.1ZM268.7,146l0.1,0,0,0,0-.19h-0.1l-0.1.1V146h0.1Zm0-7.73,0.19,0,0.1-.14h-0.34Zm0,2.06,0,0,0,0.1Zm0-13.87,0,0,0,0.19,0.19,0v-0.19l-0.14-.1Zm0.1,15.12-0.14.1,0,0.1h0.1v-0.19Zm0,3.5,0.1-.29-0.1,0,0,0v0.34l0,0v-0.1Zm0.48-1.15-0.48-.53,0.24,0.72h0.24v-0.19Zm-0.43-27.84,0,0.1,0.1,0,0-.14Zm0.1,29.57,0-.1v0.1h0Zm0-31.35,0,0,0,0.1,0.1-.1Zm0,1.25h0.1l-0.1-.1v0.1Zm0.1,1.44,0.14-.34-0.24.19V117h0.1Zm0,7.78v-0.1l0,0.19Zm0,16.23H269v0.1l0.1,0,0.1,0Zm0.1,1.73,0,0-0.14,0,0,0.1h0.14v-0.1Zm0-15.84,0-.1v0.14Zm0.14-10.9,0.1,0,0.1-.29-0.1,0-0.19.19Zm-0.1,29,0.1,0.19,0.19,0-0.29-.24V145Zm0.24-31.15-0.14.34,0.1,0,0.14-.14v-0.24h-0.1Zm-0.1,28.71h0v0.14l0.14-.1Zm0-24.87,0.1,0,0.14-.14,0,0-0.24,0Zm0.14,24.05h-0.1l-0.1.14h0.19v-0.14Zm0-24.53-0.1-.1v0.1h0.1Zm0.24,27.65L270,145l-0.19-.38-0.14,0-0.14.1-0.1.24h0.29Zm-0.1-33,0,0-0.1.1,0,0.1h0.1v-0.14Zm0.1,2.45h-0.1l0,0.1,0,0.29,0.24-.14,0-.19Zm-0.14,28.71,0,0.1,0.29,0.1,0.1,0.14-0.14.1,0.43,0.19v-0.14l-0.24-.48-0.14-.14-0.34-.14v0.29Zm0.19-26.5,0-.1-0.14,0,0,0.14h0.14Zm0,28.85-0.1,0,0,0,0,0.1h0.1v-0.1ZM269.9,116v-0.1l-0.19,0V116l0.14,0.1ZM270,144l0-.24-0.1,0-0.14,0,0.1,0.14v0.48L270,144.6V144Zm-0.14-32.4,0,0,0,0.1Zm0.43,30-0.19,0-0.14.1,0.14,0.1,0.19,0v-0.1Zm0.1,3.22-0.24.43-0.19.19v0.29l0.1,0,0-.29,0.38-.34,0-.19,0-.19Zm-0.24-29.33,0.1,0v-0.1h-0.1l-0.1.1Zm0.1,0.67,0.14,0.14,0.19,0,0-.19-0.29-.1v0.1Zm0.62-.77-0.14-.14-0.34-.14-0.1.24h0.19l0.38,0.14v-0.1Zm-0.19,1.44,0.1-.14-0.19,0v0.14Zm-0.1,28.95v0l0.1,0h-0.1Zm0-1.68,0.1,0.1h0.43l0.1,0,0.19-.34-0.29,0L271,144h-0.24Zm0.19-2-0.1.14,0,0.38,0.14,0.1,0.1-.62h-0.1ZM271,115l0.1,0,0.14-.1,0-.1H271L271,115H271Zm0-.67,0.1,0,0-.14Zm0.38,31.35,0-.14h-0.1l0,0.19Zm0-2.5,0,0.19-0.14,0,0.1,0.24,0.19,0,0-.29,0.1-.14-0.19-.14,0,0v0.1Zm0.62,1.54,0-.19-0.14,0-0.24,0,0.19,0.29,0.19,0,0.1,0Zm-0.29-2,0,0,0,0.1Zm0,1-0.1,0h0.1v0ZM272,115.27l-0.1-.1,0,0.14Zm-0.1,28.95h0l0,0.1v-0.1Zm0,1.2,0.19,0,0.1-.14-0.24-.14-0.1.14Zm0.1-3.7,0,0,0,0.1Zm0.29,1.2-0.1,0-0.14.24-0.1.38,0.19,0,0-.14,0-.24,0.24-.24h-0.1ZM272.2,113l0,0,0.14,0h-0.1Zm0,2.59-0.1.14,0.14,0.14h0.1v-0.29h-0.14Zm0.24,0.91,0.14,0-0.48-.38,0.24,0.38Zm0.29,27.22,0,0-0.38,0V144l0.24,0.24,0.19-.24v-0.24Zm-0.14-30-0.1-.1-0.14,0,0.1,0.14h0.14v-0.1Zm-0.1,1.44,0,0,0-.14-0.14,0v0.24h0.14Zm0.1,28.66V144l-0.19,0Zm-0.1,1.44,0,0,0,0.1Zm0-29.62,0.19,0.14v-0.1ZM272.78,143l-0.24.24,0.29-.1,0-.14h-0.1Zm0-29.67h0.1l0-.1-0.1,0-0.1,0ZM273,145l0-.1,0-.19-0.14-.1,0,0.19,0,0.19H273Zm-0.14-2.74,0.19,0.19,0.1,0v-0.1l-0.1-.1-0.19,0v0.1Zm0.34,0.77,0,0,0,0,0.1-.1h-0.1Zm0.14-26.93,0-.1h-0.1ZM274.26,143v-0.1l-0.14-.14-0.38,0-0.19.19,0.1,0,0.14-.1,0.53,0.24Zm-0.58-1.3-0.1,0,0,0,0.14,0Zm0-.43,0.34,0.1-0.24-.29h-0.1v0.19Zm0.1,3.17h0.14l0.1-.19h-0.19l-0.1.14Zm0.62,0.53,0,0,0,0.1,0.1,0,0.1-.1h-0.1Zm0-30.15,0.19,0.1,0.1-.1-0.19-.1-0.14,0Zm0,28.42v0.1l0.1,0,0-.14-0.1,0Zm0.19,0.58,0,0,0,0.1Zm0.24-20.11-0.29.38,0.19,0,0.1-.14,0.29,0v-0.1l-0.1-.1-0.19,0v0.1Zm0,16.08-0.19,0,0,0.1,0.24,0v-0.1Zm-0.1,1.73-0.14.14v0.14h0.43l-0.1-.29-0.19-.1v0.1Zm0-16.95h0.1v-0.1l-0.1,0-0.1.1Zm0-1.58,0,0.19h0.1L275,123H274.7Zm0.19-5.52,0,0.1H275l0.1-.1-0.24-.1v0.1Zm0.34-1.44-0.24.1,0,0.19,0.19,0.1h0.19l0-.1,0-.24ZM275,142.68l0.14,0.14,0-.1-0.19-.19v0.14Zm0.14-22,0.14,0-0.19,0Zm0,2.69,0,0,0,0.1Zm0.24,19-0.14,0,0,0.14,0.19,0v-0.14Zm0.1-25.92-0.14,0h0.14v0Zm0.14,0.38-0.24,0,0,0.1,0,0.14,0.34,0Zm-0.1-.77,0,0,0,0.1Zm0.24,2.5-0.24-.1,0.1,0.19,0.1,0,0.1,0Zm-0.24,1.15,0.14,0.14-0.1-.24Zm0.1,4.42,0-.1-0.14,0v0.14h0.1Zm0,11.14,0.1,0.14h0.1l-0.14-.19Zm0,6,0.14,0.1v-0.1l-0.1-.1Zm0.14-21.31,0,0,0,0.1Zm-0.1,17.19,0,0.1,0.1-.14Zm0.1,8.3-0.1,0,0,0.1Zm0.19-26v-0.1l-0.14-.1,0,0.1,0,0.19H276Zm-0.1,19,0,0,0,0.14,0.19-.19h-0.19Zm0.19,1.06-0.14,0,0.1,0.1,0.1,0Zm0-23.52L276,116l0,0.1,0.19,0,0.19-.14h-0.29Zm0.14,6.1-0.1-.1-0.19,0V122l0.1,0.1,0.19,0V122Zm-0.1,2,0.1,0,0-.19-0.19,0,0,0.19h0.1Zm0.19-3.17,0-.29-0.14-.1-0.14,0,0,0.24,0.1,0.14Zm-0.1,14,0-.1-0.1,0v0.1Zm0-15.36v0l0,0h0Zm0.19,1,0,0,0.1,0,0-.19-0.14-.1,0,0.24Zm0.14,20.16-0.14-.14h-0.1l0.1,0.19,0.1,0,0.14,0Zm-0.1-20.88-0.1.14,0.19-.1Zm0,19.78,0.14,0.19,0-.1-0.14-.19Zm0-.38,0.1,0,0.1,0,0-.14h-0.24v0.14Zm0.1-22.95h0l0.14,0.38,0.19,0.1v-0.19l-0.14-.14,0-.19Zm0,25.54,0.1,0v-0.19l-0.19,0v0.29h0.1Zm0-22.23,0.1,0,0.1-.1-0.1,0Zm0,3.07,0,0.34,0.1,0,0.1-.34-0.1-.1Zm0-5.38,0,0.14,0-.1,0-.1Zm0,3.55,0.1,0.19,0.19,0.14,0.14-.14-0.19,0-0.1-.14,0.1-.24-0.1,0-0.19,0v0.19Zm0,13.39,0.19,0V134l-0.1-.1h-0.1v0.19Zm0.1,5.86,0,0,0,0.1Zm0-21,0,0,0.24,0-0.24-.14-0.1,0Zm0,2.83,0.1-.14-0.19.1Zm0,1.2-0.14,0V123l0.19,0Zm-0.1,15.84,0.1,0,0.19-.1v-0.14H276.9l-0.1.14Zm0.14-19.2-0.1,0,0,0,0.19,0Zm-0.1,14.16,0,0-0.1,0Zm0.1,1.78,0-.1h-0.19l0,0.14Zm0-20.4,0,0.14H277l0-.14H277Zm0.19,7.49-0.1,0,0,0.1,0.19,0Zm0-5.71-0.1,0v0.14l0.91,0.1-0.62-.19Zm0,3.65h0.1l0.1-.29-0.1-.14h-0.1l-0.1.38Zm0,17.43,0,0.1,0.1,0,0-.1Zm0,3-0.1,0v0.1l0.1,0V141Zm0.1-1.58v-0.19l-0.1,0,0,0.29,0.1,0Zm0-3,0,0v-0.1l-0.1,0Zm0.24,4.61h-0.1l-0.14.24,0.24,0.1,0-.19Zm0,3.89,0,0,0,0.1Zm0.1-22h0.1v-0.1l-0.1-.1V123Zm0.14,9.89,0,0,0,0.1Zm-0.1,2.78,0.1,0.1,0.1-.19-0.19,0v0.14Zm0.34,4-0.19,0-0.14.14,0.34,0.1v-0.19Zm-0.24-21.55,0,0.1,0.19,0.1,0-.1Zm0.19,22.61,0.1-.14-0.19,0v0.1h0.1Zm0.1-4.18,0-.14-0.1,0,0,0.24Zm0-1.78,0.1,0,0-.14Zm0.1,2.64,0,0-0.1-.1v0.14h0Zm0.14-14.88,0,0,0,0.1Zm0-2.93,0,0.1,0.14-.1h-0.1Zm0.1,3.7-0.1,0,0,0.14h0.14v-0.1Zm0.1-2.69-0.14,0,0,0.19,0.19,0v-0.1Zm0,3.41,0,0.1h0.1l0-.19Zm1,11.33-0.14-.1-0.1,0,0,0.14,0.19,0v-0.14Zm-0.1,6.43v-0.1l-0.1,0,0,0.1,0.1,0.14Zm0.24-5.76-0.1.1,0.14,0,0-.19Zm0.29-2.26,0,0.1h0.14v0Zm0,0.86v0.1l0.1,0,0.1-.34H280Zm0.1-1.25h0.14l-0.14,0v0Z" transform="translate(-211.1 -111.1)"/><path d="M299.42,145.9l-0.43.53-0.86.1h-0.77l-0.38-.1h-1.82l-0.82.1-0.1,0H293.7l-0.14-.1h-0.29l-0.19.1-0.62,0-0.48-.1-1.15.1-0.48-.1h-2.16l-0.38.1-0.14-.1H286.6l-0.1,0H286l-0.43.1h-0.67l-0.1,0h-0.38l-0.58-.34-0.1-.24,0-.19v-0.91l0,0v-0.82l0.1-.72-0.14-.29,0-.34,0.1-.62v-1.06l0-.1V139l0.1-.38v-2.11l0-.1v-0.53l0-.1v-0.48l0-.1v-0.58l0-.1v-0.38l0-.1,0-.86,0.1-.38-0.14-.24,0-.1,0-1,0-.1,0.1-.77v-1.1l0-.1v-2l0.1-.14-0.1-.38,0-.72,0.1-.1v-1.2l0-.1v-0.38l0-.1v-0.82l0.1-.1v-1.34l0-.1v-1.34l-0.1-.29,0.1-.72-0.1-.67,0-.29V117l0-.1,0-1.15,0-.1v-0.86l0-.1v-0.58l0-.1v-0.72l0.1-.34-0.1-.58,0-.19,0.24-.29,1.49-.24,0.14,0.14,0.72-.1,0.34,0.1,0.82-.1h1.92l0.1,0H290l0.1,0h1.78l0.1,0h0.86l0.1,0,0.58,0h2.26l0.24-.1,0.29,0.14,0.19,0h1.39l0.1,0,0.19,0,0.14,0.19,0.14,0,0-.14,0.14,0,0.29,0.24,0.14,0.24,0,0.77-0.1.53,0.14,0.14,0,0.19v0.82l-0.1.91,0.1,0.19-0.1.58,0,0.34-0.19.38-0.14.14-0.34.14h-0.67l-0.91-.1-0.1,0-0.82,0-0.14.1H295l-0.14-.1,0-.19-0.24.24h-2.16l-0.1,0-1.15,0-0.62.1-0.29.24-0.14.34,0,0.67,0,0.1v0.43l0,0.1v0.38l-0.14.58,0.1,0.14v0.48l-0.1.14,0.1,0.48v2.4l0,0.1v0.48l0,0.1v0.43l0,0.1,0.1,0.43,0.38,0.29,0.86,0,0.1,0h1.2l0.29-.1,1.3,0.14h0.82l0.1,0h0.86l0.34,0.14,0.14,0.14,0.14,0.38,0.1,0.53-0.14.34,0.14,0.53v1.1l0,0.1v1.54l-0.19.38-0.38.29-0.29,0-1.1,0-0.1,0h-0.48l-0.1,0H293l-0.29-.1-0.77,0-0.1,0h-0.38l-0.1,0h-0.82l-0.29.14-0.14.29v0.67l0,0.1v0.62l0,0.1v0.38l0,0-0.24-.14v0.14l0.1,0.1H290l0.14,0.14-0.1.48,0.1,1.44,0,0.1v1l0,0.1v0.58L290,138l0.19,0.34,0,0v1.15l0,0.1v0.72l0.14,0.24,0.14,0.1,0.53,0.1h1.87l0.1,0,1.15,0,0.19-.1,0.29,0.1,0.19,0h0.77l0.1,0h0.58l0.1,0H297l0.1,0h0.67l0.1,0,0.86,0,0.62,0.29,0.14,0.58V142l-0.1.58,0,0.34,0.1,0.14,0,0.19v2.54ZM284.49,125l-0.19-.19-0.19,0L284,125h0.48Zm-0.38,1.92-0.1.14h0.1v-0.14Zm0.48,7.78,0-.1h-0.1l0,0.14,0.14,0Zm0.1-8.26,0-.1-0.14,0,0.14,0.14Zm0.1-12.39-0.19.1,0,0.19,0.34-.1v-0.14Zm-0.19,13h0V127l-0.1,0Zm0.1-1.25-0.1.14,0.1,0.1H285l-0.24-.29Zm0,2.26,0,0.1,0.14,0,0-.1-0.24-.14v0.1Zm0.43,1,0,0h-0.38l0.34,0.48-0.1,0-0.1.1,0.1,0.1,0.1,0,0.14-.24v-0.19Zm-0.34,3.7,0.19,0.1,0,0.14,0.1-.1v-0.19l-0.29,0-0.1,0Zm0.14-12.1-0.1,0,0,0.1,0.19,0Zm0,3.65,0-.14h-0.1l-0.14.14h0.19Zm0-5.47,0-.14-0.19,0v0.1h0.14Zm0,4.85,0-.1,0,0.19,0,0Zm0,10,0.1,0,0.19,0v-0.1l-0.1,0-0.19,0v0.1Zm0.34,0.91-0.14-.34-0.19,0,0.1,0.38,0.19,0.1Zm-0.1-2.16,0.14,0.1,0.29,0,0-.1,0-.14-0.62-.1Zm0-15.7-0.1,0,0,0.24,0.14,0v-0.24H285Zm0-.24,0.1,0-0.1,0v0.1Zm0.1,2.69-0.1,0v0.29l0.1,0v-0.29Zm0.29,2.5-0.38.38,0,0.19,0,0.24,0.19,0.14,0.34,0,0.34-.72,0-.1-0.1,0-0.1.24-0.14.1-0.1-.1,0.19-.38h-0.19Zm-0.19,3.07-0.19,0,0.29,0h-0.1ZM285,127.23l0.19,0,0.1-.14,0-.1-0.1.1L285,127v0.24Zm0,0.58,0,0.19h0.1l0.19-.14,0.14,0,0-.29,0-.43h-0.1l-0.24.43H285v0.19Zm0.14,1,0.29-.14,0.14-.24-0.38,0-0.14.34h0.1Zm0,3.07h0.1l0-.19h-0.1l-0.14.14Zm0.1-6.48-0.14,0v0.1h0.19Zm0.14-5.86-0.24.38,0.29,0.38v0.29l0.19-.1,0.43,0-0.1-.14L285.4,120v-0.14l0.14-.14,0-.14-0.19-.14v0.1Zm-0.14,1.92h-0.1v0.1h0.14Zm0,1-0.1.1v-0.14Zm0,11.42-0.1-.1,0,0.14Zm-0.14,4.9v0.1l0.1,0,0.1-.29-0.1,0Zm0.62-16.13v0.14l-0.19,0-0.19.14-0.14.24,0,0.1,0.24,0,0-.29,0.43-.19,0-.24h-0.1Zm-0.48,4.08,0,0.24,0.29,0,0.43-.19,0.1-.19,0-.14h-0.24v0.1l-0.14.19-0.29,0Zm0.14-8.93v-0.1l-0.14-.1,0,0.19,0.14,0.1Zm0,19.59,0,0,0,0.1Zm0,4.18,0,0,0.1,0,0-.1h-0.14ZM285.54,124l0,0.24-0.1.14,0.1,0,0.14-.1,0.1-.29-0.14-.14h-0.1Zm0.29-4.75v-0.19l-0.1-.14-0.29-.1V119l0.1,0.19,0.24,0.14Zm-0.34,18,0,0,0.14-.14-0.1-.1-0.14,0Zm0.43-15.7,0.1-.24-0.24-.38-0.29-.1,0.19,0.29,0.14,0.48Zm-0.43,10.56h0.14l0-.19h-0.1v0.19Zm0.1,4,0.43,0.29,0-.19-0.19-.1,0-.24-0.24,0Zm0,2.06-0.1.14,0.19,0v-0.1h-0.1Zm0.24,3.55-0.19-.1-0.14.1,0.14,0.14,0.19,0v-0.1Zm0.1-7.73-0.14.34-0.19,0,0.19,0.34,0.14,0.1v-0.38l0-.1V133.9Zm-0.14,7.34-0.1,0-0.1,0,0.1,0.1h0.1v-0.1Zm0-10.8-0.1.48,0.29,0,0.1,0-0.1-.48-0.19-.1v0.1Zm0-5,0,0.14,0.29,0.1v0.1l-0.1,0,0,0.19,0.19,0,0.1-.14,0.1-.38h-0.48Zm0.34-7.58-0.19-.1-0.14.1L286,118l0.24,0.29,0.1-.24-0.19-.1Zm-0.29,9.7v0l0,0h0Zm0.29,5.23-0.29,0,0,0.19,0.24,0.1,0.14-.14Zm-0.24-18,0,0,0.1-.19-0.19,0Zm0.38,13.83h-0.1l-0.29.29,0,0.19,0.34,0,0.19-.29v-0.19Zm-0.43,2.78,0.1-.1-0.1,0v0.14Zm0.19,5.42v-0.1l-0.1,0-0.1,0v0.1H286Zm0-17.38,0,0-0.19-.1,0,0.19Zm0.29,3.26,0.14-.24,0-.1-0.24-.1,0-.19-0.19,0,0,0.1,0.1,0.34,0.29,0.14,0,0.14v0ZM286,125h0l0-.14V125Zm0,6.53h0v0.14l0.14-.1Zm0,1.78v0.1h0.1l0-.1H286Zm0,8.78,0.19,0v-0.1l-0.19-.1,0,0.1Zm0.62-17.38-0.34-.1-0.19.1-0.1.14h0.19l0.19,0.14,0.24-.19v-0.1Zm0.24,7.06,0.1,0,0.14-.24,0.1,0-0.29,0-0.34.24,0-.29h-0.43l0,0,0-.24-0.19,0v0.1l0.29,0.43,0,0.29h0.1l0.19-.1,0-.19,0.19,0.14h0.1Zm-0.82,1.92,0,0,0,0.1,0.1,0,0-.19ZM286.79,115l-0.58,0-0.1.14,0.29,0.1,1-.1-0.53-.14Zm-0.14,21.07,0.24-.24h-0.77l0.29,0.24h0.24Zm-0.24,3,0.1-.14,0-.19,0.24,0v-0.1l-0.19-.1-0.38,0,0.19,0.67Zm0,0.19-0.1,0-0.19.1,0,0.19,0.29,0,0.1-.19Zm-0.29-15.46,0,0.1h0.1v-0.1l-0.14-.1v0.1Zm0.14,22.51,0.1-.1v-0.1h-0.19l0,0.1,0,0.1h0.1Zm0-20.35-0.1,0,0,0.19,0.14,0.14,0.14-.1,0-.29h-0.1Zm0-6.58-0.1-.1v0.1h0.1Zm-0.1,8,0.29,0.34v-0.38l-0.1-.14h0.29l0.14-.1v-0.24l-0.1-.1-0.14.1V127l-0.38.1v0.29Zm0.34,0.53-0.19.1-0.14.24,0,0.19,0.14,0.1,0.24-.62h-0.1Zm-0.24,4.18,0,0.1,0.1,0,0-.1-0.1-.14v0.1Zm0,10.32,0.1,0v-0.1h-0.1l-0.1.14h0.1Zm0-7,0.1,0.1,0,0-0.1-.14Zm0.29-18.91,0-.1-0.19-.1,0.29,0.72h-0.1l-0.14.14,0,0.19,0.19,0,0.34-.67-0.38,0v-0.1Zm0,5.18,0-.1h-0.14l0,0.24,0.19,0,0-.1v-0.1ZM286.45,119l0.1,0,0.14-.14h-0.24V119Zm0,14.35,0.14,0.1v-0.1l-0.14-.1v0.1Zm0.1-12.48,0.1,0.14,0,0.29,0.24-.14,0.29-.38,0-.14-0.38.24,0.1-.14-0.29,0Zm0,2.3,0.29,0-0.29,0v0.1ZM286.65,142l0-.14,0,0-0.14.19h0.14Zm0-17.67,0.53,0.38,0-.1,0-.19-0.38-.24-0.19,0Zm0.1,6.77,0-.24-0.14.1,0,0.19,0.14,0v-0.1Zm0,9.12-0.1,0,0,0.14,0.1,0,0-.14h-0.1Zm0.14-14.69,0,0.1-0.24.43h0.24l0.1-.1,0.1-.29,0.14-.14,0.19,0.1,0,0,0-.14-0.14-.14-0.14.24-0.34-.19Zm0,3.84h0.1l0-.24h-0.1l-0.14.19,0.14,0.1Zm-0.14-13.15,0.19,0V116l-0.19,0v0.1ZM287,133.51h-0.14l-0.19.1,0,0.14,0,0.1,0.19,0,0.24-.29Zm-0.34-5,0.14,0,0.1-.14-0.24,0v0.14Zm0.1,7h0.29l0.1-.14-0.14-.1-0.29.1,0,0.1Zm0,1.92,0,0-0.14,0v0.1h0.1Zm0.58-18.48-0.14-.14,0.1-.24,0-.19-0.14.14,0,0.14-0.14.14-0.1-.1-0.1.1,0.19,0.19,0.53,0.1,0.34-.19,0-.19-0.19,0-0.1.19h-0.19Zm-0.38.72-0.14,0-0.1.14,0.1,0,0.14,0v-0.1Zm-0.19,15,0.19,0.1h0.38l0-.24,0-.24h-0.1l-0.19.19h-0.19l-0.14.14Zm0.1,6.62,0-.14-0.1,0-0.1.19h0.14Zm-0.1,1.06h0.1l0-.1-0.14-.1v0.19Zm0.14,1.58-0.14,0,0,0.19h0.1v-0.14Zm0-15.75H287V128l-0.14-.1,0,0.14Zm0-11.91-0.1,0v0.1l0.1,0v-0.1Zm0.29,6.67-0.14,0,0,0.1h0.1l0,0.14-0.24.14,0,0.14,0.48-.1,0-.1-0.14,0,0.1,0,0-.24Zm-0.19,9.22-0.19,0v0.1l0.19,0v-0.1Zm-0.1,6.72-0.1.1,0.1,0,0.1-.1Zm0,0.86-0.14.19,0.1,0,0.1,0,0-.14Zm0.14-9.26,0.1,0-0.14.67,0.1,0,0.34,0-0.1-.82,0.1-.29-0.38,0-0.19.14,0,0.19h0.24Zm0-15.75-0.1,0,0,0.14,0.1,0,0.1,0,0-.19h-0.1Zm0,15.12-0.1,0-0.1.1,0.1,0.1,0.1,0v-0.1Zm-0.14,3,0,0,0,0,0.1-.1H287Zm0,7.78,0.14-.19-0.24,0v0.19Zm0-24.77v0.1l0.14,0,0-.1-0.14-.14Zm0,4.46h0v0.14l0.1,0Zm0.1,6,0.1-.24h-0.1l-0.14.14,0,0.1h0.1ZM287,140.81l0.1,0-0.1,0v0.1Zm0.19-23.91-0.1.1v0.19l0.48,0.58,0-.19-0.43-.53,0-.14h0Zm0,5.33h0v-0.14h-0.1l0,0.1Zm0,10.47,0.29-.1,0.14,0.24,0.14,0-0.1-.29-0.24-.14-0.24,0-0.1.14Zm0,6.77h0.1l0-.14-0.1,0Zm0.24-15.22-0.14-.14,0,0.1,0,0.14h0.14v-0.1Zm-0.1,2.69,0.1,0v-0.1l-0.1,0-0.1.19h0.1Zm0.24,2.06-0.34-.19v0.1l0.14,0.14,0.19,0V129Zm-0.29-7.15h0.14l-0.1-.1Zm0.14,9.65-0.14.43,0.1,0,0.1-.1,0.14-.38-0.14-.1Zm0-15.31,0,0.19,0.43,0.14,0-.19-0.24-.19Zm0,17.19-0.1-.1v0.14Zm0,3.84,0.14,0.1,0.24-.29-0.1-.1h-0.29l-0.1.29h0.1Zm0.34-14.59-0.14-.38-0.1,0-0.14.24Zm0.53,4.9-0.38-.38L288,127l0.24,0.14,0.1,0-0.14-.14-0.24,0-0.19,0,0-.19h-0.1l0,0.1,0.14,0.14-0.34.34,0,0.14,0.24,0,0.14-.1,0.14,0.1,0,0.29,0.53-.1,0,0.19h-0.24l0,0.19h0.24l0.34,0.14,0-.24-0.14-.1,0-.19,0.14-.14,0.29,0.19,0-.29,0.1-.14-0.58-.14-0.14-.1-0.1.19,0,0.19Zm-0.67,8-0.14-.1-0.1,0,0,0.1,0.19,0.1,0,0ZM288.28,122l-0.43-.48-0.24-.1,0,0.14,0.14,0.24-0.29.19,0.19,0.1v0l0.29-.14,0.38,0.24V122Zm-0.82,4.46,0,0,0.1,0.1,0-.1Zm0.1,8.69,0.1-.1,0-.19-0.24.1v0.19h0.1Zm0,4.9v-0.29l-0.1-.19,0,0.14,0,0.34h0.1Zm-0.14,1.3,0.24,0.29v-0.1l0.29-.34-0.24,0-0.29.1v0.1Zm0.19-21.55-0.1,0,0,0.14,0.19,0,0.1-.14-0.14-.1v0.1Zm0.38,5.42-0.34.14-0.14.29,0.34,0.1v-0.1l0.34-.34Zm-0.38-6,0,0-0.1,0Zm0.29,22.9,0-.19H288v-0.1l-0.1,0-0.34,0,0,0.24,0.14,0.14h0.1Zm0.1-7.78,0-.1,0.38,0.1v-0.19l-0.19-.1H288l-0.14.14-0.1,0-0.1.1,0,0.43,0.29-.14,0.19,0.14,0,0-0.1-.14Zm0-4.32,0.34-.19,0-.14-0.19-.14-0.19,0,0,0.1-0.29.14V130h0.1l0.19-.14,0,0.19V130Zm-0.14.14-0.19,0v0.1l0.19,0v-0.1Zm0-13.92,0.1,0V116l-0.24,0,0,0.19h0.19Zm-0.1,15.94V132h-0.1v0.1h0.1Zm0.19-15,0.14-.19-0.14-.14-0.14,0-0.1.53,0.1,0.34,0.14-.1,0-.29Zm0.62,13.68,0.24-.14-0.1-.1h-0.14l-0.14.1-0.19.34h-0.1l-0.1-.19,0-.24-0.19,0-0.19.34,0.19,0.1,0.14,0.19,0.19,0,0.24-.1,0,0.1-0.1.29,0.19,0,0.1-.24-0.19-.43ZM288.13,124l0,0.14-0.34,0,0.1,0.19,0.34,0.19,0.1-.77-0.29-.1-0.1,0,0,0.14Zm-0.19,2.35-0.1.14h0.24l0.14-.29Zm0.1,2.74,0-.14h-0.14l-0.1.14H288Zm-0.1,2.35h-0.1v0.19l0.1,0v-0.24Zm0,4.66L288,136l0-.34-0.19,0,0,0.19,0,0.19Zm0-17.86,0,0.1,0.19,0-0.14-.14v0.1Zm0,17.19,0.14,0,0.14-.1-0.34,0Zm0,3.74,0-.1v0.14Zm0.14-23.76-0.1-.19h0l0,0.14Zm0,7,0.29,0.14,0-.19-0.14-.19-0.19.24h0.1Zm0,0.34h0.1l0-.14H288l0,0.1Zm0.19,9.07v-0.1l-0.14-.1-0.14.14,0,0.1,0.19,0.1Zm-0.19,5.09,0.14-.24-0.19.1,0,0.19Zm0-22.61,0,0.1,0,0.34,0.14,0.1,0.14-.1-0.14-.14,0-.29h-0.19Zm0,1.1,0.38,0.24,0.1-.19,0.24-.1,0-.19-0.34.14,0-.29-0.14-.14v0.38l0,0.1Zm0.1,24.48,0-.1h-0.1l0,0.1,0,0Zm0-14.26,0,0.14h0.1l0-.14h-0.1Zm0,7.3,0.19,0.34V133l-0.14-.14h-0.1Zm1.1-16.8,0-.24,0-.14-0.14-.1-0.24,0-0.1.29,0.1,0.14-0.14.14-0.29.14-0.29,0v0.19l0.24,0.24v-0.1l0.14-.19,0.19-.1,0,0,0,0.29,0.1,0.14,0.43,0.1-0.34-.34v-0.19l0.29-.24Zm-1,16.47,0.19-.1,0-.1,0-.14-0.34-.1,0,0.43h0.1Zm-0.1-11.42,0,0.1,0.19,0,0-.19-0.19,0v0.1Zm0.14,0.48-0.14,0,0.19,0.14,0.19,0,0-.19h-0.19Zm-0.14,19.63,0,0.1h0.1v-0.1l-0.14-.1v0.1Zm0.1-18,0.14,0,0.24-.19-0.43,0Zm0,11.62,0,0,0.14,0.1v-0.14h-0.1Zm0,0.86,0.1,0,0-.14h-0.14l-0.1.14Zm0,6.82-0.1,0v0.1l0.1,0v-0.1Zm0.1-8.78,0,0,0,0.1Zm0.14-8.64-0.14.24v0.19l0.1,0,0.19-.43-0.1-.14Zm0.14,1.39,0.1-.24h-0.1l-0.29.29,0.1,0.1,0.19,0v-0.19Zm0-.86-0.1.29-0.14.14,0.34,0,0-.24,0-.29Zm0.29,4.18v-0.19l0.14-.24,0.19,0-0.14-.38-0.14-.1-0.19,0-0.1.14,0,0.1,0.14,0,0,0-0.19.48-0.34-.1,0,0.19,0.14,0.1h0.38Zm0.14,13.63,0-.14-0.34,0-0.14-.14v-0.1l0.38-.14,0-.14-0.14-.1-0.29.1-0.19.19,0,0.19,0.14,0.19L289,143.6l0,0.1Zm-0.62-24.43,0,0,0,0,0-.1Zm0,23.57,0.1,0,0.1-.14h-0.19v0.1Zm0.19-18.53,0,0v-0.24l-0.19,0,0,0.24h0.1Zm0,15.79,0,0.1h0.1l0-.1h-0.1Zm0,1,0-.14-0.14.14h0.1Zm0-19.63,0,0.19H289l0-.1,0-.24Zm0.1,7.3-0.1.1H289Zm0,8.5,0,0,0,0.1Zm0.1,5.28-0.19.19,0.14,0,0.14-.14H289Zm0-27.51v0l-0.14,0H289Zm0,0.24,0-.1-0.14,0v0.14H289Zm0,17.52H289v-0.1l-0.14,0ZM289,119l0.1,0.14h0.19l-0.19-.24H288.9Zm1,22.8-0.43-.24H289l0,0,0.14,0.14L290,142v-0.14Zm-0.82,2.4H288.9l0.24,0.1v-0.1ZM289,131l0,0.29,0.34-.29v-0.1l-0.19-.1v0.1H289V131Zm0-15.22h0.1l0.1,0.19-0.1.14H289V115.8Zm0.1,16.42,0.1,0,0-.14h-0.14l-0.1.1v0.1h0.1Zm0,9.84,0,0,0-.1H289v0.14h0.14Zm0-4.9,0,0.14,0.14-.14h-0.1Zm0.1-3.6,0.14,0v-0.1l-0.14,0-0.1.14Zm0-3.22,0,0h0.1Zm0,12,0.14,0.1,0.1,0V142.3l-0.1-.1h-0.19l0,0.19h0.1Zm0.1-17.38v-0.1l-0.1-.1,0,0,0,0.14h0.1Zm-0.1,1.3v0.1l0.1,0,0-.1-0.1-.14Zm0,7.87,0,0.1h0.1l0.1-.14-0.1-.1-0.14,0v0.1Zm0.14-5.47,0.14,0,0-.24-0.14-.14-0.14.38Zm0,1.39,0.1,0,0.14-.14-0.19,0-0.1,0Zm0,7.54,0.1,0-0.1-.1v0.14Zm0.14-21.22v0l-0.1.1Zm0,24.87h-0.1l0.1,0.24,0.1-.19Zm0-13.39,0-.1,0-.14-0.1.24h0.1Zm0.14,16.66,0-.1-0.14,0v0.1l0.14,0.14Zm0-.34,0-.14h-0.14l0,0.19Zm0.14-.62-0.1-.1-0.14,0,0,0.19,0.14,0Zm0-22.51v0.14l0.1,0v-0.1h-0.1Zm0.1,8.54-0.1,0,0,0.14Zm0.43-1.92,0-.19-0.1-.1-0.29,0-0.1.24,0.14,0.14,0.19,0ZM290,129.15l0-.1-0.1.14Zm0-.43,0.14,0.14,0.1,0-0.24-.19v0.1Zm0.34-.29,0.19,0,0.14-.24-0.14,0-0.29.24h0.1Zm0.24,1.58-0.1,0,0,0.19,0.14,0V130Zm0-3,0,0,0.1,0v-0.1h-0.14V127Zm0.24,0.34,0,0,0,0v0.1Zm0.19,2.35,0.1-.14,0-.1h-0.1l-0.1.19,0.1,0.14Zm-0.1-.53,0.19,0v-0.1l-0.1,0Zm0.29,1.34,0,0-0.1.1Zm0-3,0,0.24L291.3,128l0.19-.34,0,0-0.1,0-0.34-.29v0.1Zm0.1,15.31,0-.1-0.1,0-0.1,0,0,0.14Zm0-12.87,0.1,0,0.14-.1-0.24,0V130Zm0.34-.43-0.1.34h0.1l0.1-.29Zm0-2.5h0.19l0-.14-0.24,0V127Zm0.1-10v0.1l0.14,0.14h0.14V117l-0.14-.14h-0.1Zm0.14,12-0.1,0,0,0.1,0.1,0Zm0-1.15v0.1h0.14l0-.19Zm0.19,2.54,0,0,0.14,0h-0.1Zm0.1-.91,0.1,0.1h0.1v-0.24l-0.19,0v0.1Zm0-.82,0.29,0.19,0.19,0,0.24-.19-0.1-.34-0.19.34-0.14.1-0.24-.14Zm0.53,1.82-0.1,0v0.14h0.14Zm0.24,11.76,0-.1-0.1,0,0,0.1Zm0-30,0.1,0-0.14,0Zm0.24,2.3-0.1-.19-0.19,0,0.14,0.34H293ZM292.89,144l-0.1-.1,0,0.14Zm0.19-28.75-0.1,0,0,0,0,0.1h0.1v-0.1Zm0,11.47,0,0.1,0.1,0.1,0-.19H293Zm0.29,4.42,0,0,0-.1h-0.14v0.14h0.14Zm-0.1-16.66,0.1,0,0-.1-0.1,0Zm0.1,13.68,0,0,0,0.1Zm0.1-1.3-0.1,0,0,0.1,0.19,0Zm0,3.5,0,0,0,0.1Zm0.43-.77-0.1-.14h-0.38l0.19,0.19,0.29,0v-0.1Zm-0.34-14v0h0.14l-0.1-.1Zm0,13.25,0,0,0,0.1h0.1V129Zm0-2.45,0,0,0-.1v0.14ZM294,128l-0.14-.14-0.14,0-0.1,0,0.14,0.29,0.24,0V128Zm0-1.44-0.1,0-0.19.14,0.1,0,0.19,0v-0.1Zm-0.19-10.27v0.19H294l0-.19-0.1,0Zm0.19,10.75,0-.19-0.1,0-0.1.14,0,0.14Zm0-10.94h0.1l-0.1,0v0Zm1.1,28.37-1.1,0h1.15ZM294.28,129l0.29-.19h-0.34l0,0.19h0.1Zm0.1-.48,0,0,0-.1h-0.14v0.14h0.14Zm0-1.49,0,0.1,0.19,0.1v-0.14l-0.1-.14h-0.1Zm0.19-1v0.34l0.1,0,0-.19-0.1-.19Zm0.24,3.26-0.14-.1v0.1l0.1,0.1h0.1Zm0-1.3,0.1,0.1H295l0-.14-0.19,0V128Zm0.58,1.15,0-.1h-0.1l-0.1.14,0.24,0v-0.1Zm0-1,0,0.34,0.14-.1,0-.19-0.1-.14Zm1.25,16.42,0,0,0,0.1Zm0-30.67,0,0,0,0.1Zm0,30.44,0,0h0v0Zm0.48,0,0.1,0,0-.19-0.19.1v0.1Zm0.53,0.34h0.24l-0.1-.14V144l-0.24,0v0.62ZM298,146v-0.1l-0.14.1,0.1,0.1Zm0.24-28.95,0-.1-0.1.14Zm0.1-.62-0.1,0-0.1.29,0.19,0,0-.19Zm0.1,28.51,0,0,0,0.1Zm0-30.53,0,0,0.1,0.1,0.1-.1v-0.1l-0.1,0Zm0.19,0.29-0.14,0v0.14h0.14v-0.1Zm0,1.49,0,0h0.1l0.1-.1Z" transform="translate(-211.1 -111.1)"/><path d="M318.86,139.47l-0.1.14v0.62l0,0.1v0.43l-0.43.91-0.1.58-0.19.1,0,0.19-0.48.91-0.34.24-0.19.38-0.77.86-0.43.19,0,0.1-0.86.58-1.3.62-0.82.24-1.15.24h-1.49l-0.1,0-0.58-.1h-1.2l-1.68-.53-1.39-.72-0.77-.53-0.82-.77L303.3,144l-0.1,0-1.1-1.87-0.14-.62-0.19-.24-0.34-1.68,0.1-.48-0.14-1.25v-2.21l0,0v-0.82l0.34-.43,0.48-.19,0.67,0,0.29,0.1,1,0,0.29,0.1,0.43-.1,0.82,0,0.1,0,0.91,0,0.38,0.24,0.14,0.29,0,0.86,0.1,0.48v2.69l0.24,1,0.58,1,1.1,0.72h1.3l0.48-.1,0.19,0.1,0-.1,0-.14,0.34-.14,0.34-.38,0.38-.14,0.1-.14,0.14-.72,0.14-.34,0-.19,0-.91-0.34-1.54-0.58-1.25-0.29-.38,0-.14,0-.34-0.34,0-0.38-.62-1.06-1.1-1.25-1.25-0.77-.62-1-1.06L305,128,304,126.7l-0.58-.91-0.34-.67-0.1,0-0.34-.58-0.1-.38-0.48-1.2-0.14-.91,0.29,0,0.14,0,0-.19H302l-0.14-.1-0.1-.58-0.14-.29,0-.91,0-.1,0.1-.67,0-1.06,0.19-1,0.53-1.63,0.43-.82,0.62-.82,0.67-.67,0.77-.62,1.25-.72,0.86-.34,0.38,0,0,0.24,0.14,0.14,0.1,0,0.14-.43,0.43-.14,0.62,0,0.19,0.34,0.19-.38h2.11l0.58,0.14,0.43,0.19H313l0.14,0.29,0.48-.1,1.25,0.62,0.38,0.29,0.67,0.67,0.19,0,0.58,0.58,0,0.29,0.38,0.34,0.29,0.48,0,0.29,0.62,1.2,0.19,0.72,0.1,1.34,0.14,0.86v1.87l0,0.1v1.15l0,0.19-0.24.38-0.43.19-0.34-.1-0.38.1h-1.54l-0.1,0H315l-0.29.1-0.38-.1-0.38,0-0.14,0,0-.19-0.1-.1-0.19.29h-0.24l-0.34-.14-0.24-.38-0.1-.91,0.1-.38,0-1-0.1-.14v-0.67l0-.1v-0.38l-0.43-1.25-0.43-.62-1.1-.53h-0.38l0,0-0.58,0-0.38.14-0.58.38-0.48.67-0.14.43,0,0.82-0.24.24,0.24,0.48,0,0.43,0,0.24,0.24,0.34v0.24l0.62,1.1,0.1,0.43-0.1.19,0,0,0.14-.14,0.34,0.24,0.24,0.43,0.1,0,0.1,0.19,0.38,0.38-0.14,0v0.1l0.38,0.14,0.82,0.82,0,0.29h0.1l0.1-.14,0.34,0.24,0.48,0.58,2.3,2.21,0.29,0.48,0,0.19-0.24.19,0.29,0,0.24-.29,0.14,0.1,0,0.14-0.14.19,0.1,0,0.29-.1,0.14,0.38,0.29,0.14,0.43,0.48L316.6,131l0.91,1.44,0.48,1-0.1.14,0.1,0,0.29,0.48,0.53,1.82,0,0.86,0,0.1v0.86l0,0.1v0.48l0,0.1v0.91ZM302.2,119.26l0.1,0v-0.1l-0.1,0-0.1.19h0.1Zm0.34,1.92,0-.14-0.1.14h0.14Zm-0.1-1.3,0.14,0,0-.1-0.1,0v0.1Zm0.1-2.93,0.24,0.19-0.14-.29-0.1,0V117Zm0.14,23,0.1,0,0,0-0.19.14Zm0-18.53-0.1-.1v0.14Zm0.43-3.12,0-.1-0.14,0-0.1.1v0.1l0.24,0.1Zm-0.24,17.38,0.1,0v-0.14h-0.1v0.19Zm0.34,4.51,0-.19-0.14-.1-0.14,0,0,0.19,0.24,0.14Zm-0.14-21.31,0.1,0v-0.1l-0.19,0v0.1h0.1Zm0,2.26,0-.1,0-.14-0.1.24h0.1Zm0.77-.58,0,0.34,0.14,0.14,0.1,0,0-.38,0.14-.38H304l0-.19,0.19-.29-0.1,0-0.29-.48-0.24-.14-0.29.14-0.1.14,0.14-.14,0.1,0.1,0,0.14,0.14,0.19,0-.24,0.19,0,0.1,0.29,0,0.19-0.29.38,0,0.19,0.24,0,0,0ZM303.35,136l-0.1-.1V136h0.1Zm0-14.64,0.1,0,0,0.14h0.1l0-.1-0.19-.19h-0.1v0.1Zm0.24,1.06,0.14,0-0.1-.1-0.29,0v0.1h0.24Zm0,0.91,0-.1-0.1.14Zm0.14-4.56-0.1,0v0.1l0.1,0,0.1-.14Zm0.19,16.37h0.1l-0.1-.14-0.19,0,0,0.1,0.1,0,0.1,0Zm0.24-18.29-0.43.14,0.1,0.14H304l0,0,0.1-.34h-0.1Zm-0.19.86,0.14-.14,0-.19,0-.14h-0.29l0,0.48h0.1Zm0,0.72,0,0.1,0.1-.1h0Zm0,17.57,0,0,0,0.1Zm0.43-18.67-0.1.14,0.1,0.24-0.1.14-0.19,0-0.1.14,0.1,0,0.34,0,0.14-.24-0.14-.58ZM304,122l0.1-.1-0.19,0Zm0.1-2.59,0.24-.1-0.14-.24-0.14.1,0,0.19Zm0,2.21,0.34,0.14-0.1-.19-0.24-.14-0.1.19h0.1Zm0.29,0.62-0.19-.14-0.1,0,0.29,0.24v-0.14Zm-0.1,1.1-0.19.14h0.19v-0.14Zm-0.19,12.29,0.19,0.19,0.1,0,0-.24-0.14-.1Zm0.14-21.12,0,0,0,0.1Zm0.1,6.63V121l0.29-.14-0.1,0-0.34.14v0.19l0.1,0.1h0.1Zm0.1,5.57,0-.1h-0.1v0.1h0.14Zm0.1-7.15,0,0,0.1,0.24-0.1,0-0.14.34h0.24l0.14-.14,0.1-.29,0.1,0.58,0.14,0.19v-0.24l0.1-.19-0.19-.34-0.29-.19Zm0,4.46,0,0,0,0.1Zm0.38-3.22-0.38.62,0,0.1,0.19,0.1,0.24-.43,0.29,0v-0.1l0.19-.19-0.58-.24v0.1Zm-0.19-2.3v-0.1l-0.14.1h0.14Zm0,4.85-0.1-.1,0,0.14Zm0-5.9,0,0.29,0.14,0.1,0.29,0,0.1-.14-0.24,0-0.19-.19Zm0.19,1.34-0.24,0,0,0.1,0.19,0.1,0.1-.1Zm-0.1,3.26,0.24-.14,0.1-.14-0.1,0-0.38.14,0,0.24Zm0,18V140h-0.1v0.14Zm0-26.31,0,0.1,0.19,0,0.24-.24-0.1,0-0.38,0v0.1ZM305,124.35l0,0,0-.1h-0.14v0.14H305Zm0-7.34,0-.1V117Zm0,1.34,0.24,0,0-.19-0.19.1,0,0.1Zm0.1,18v-0.1h-0.1v0.1h0.1Zm0.1-20.4,0.1-.1v-0.29l-0.14-.1,0,0,0.1,0.14-0.14.19v0.14Zm0,29.19,0,0,0,0.1Zm0-26.4,0.1,0,0.19-.29V118.2l-0.14-.1-0.14.53-0.1,0h0.1Zm0,6.19,0.19-.14,0-.19-0.24.14-0.1.19h0.1Zm0.48-2.54,0,0-0.29.1,0.1-.29,0-.14-0.24,0v0.24l0.19,0.14,0,0,0,0.24,0.14,0,0.1-.19v-0.1Zm-0.29-3,0.14-.14-0.19,0-0.14.1v0.1h0.19Zm0,0.62-0.19.29,0.34-.1,0-.1Zm-0.19,3.55,0.14,0.1,0-.19h-0.1v0.1Zm0.29-6.82,0-.1-0.14.62,0.14,0.14,0.19,0,0.1-.1-0.14-.14,0-.34Zm-0.1,24.48,0.24-.1,0.1-.19-0.1-.1-0.34.34Zm0.34-25.11-0.34,0,0,0.19,0.43-.14Zm-0.38,20.55,0.1,0-0.1-.1v0.14Zm0.14-21.94-0.1.1v0.1l0.14,0,0-.19Zm0.29,7.15,0.67-.48-0.1-.19-0.19,0-0.29.1-0.48-.1,0,0.19,0.38,0.1-0.1.19h-0.14l-0.1-.1,0,0,0.1,0.24,0.1,0h0.14Zm-0.29-7.63h0.14l-0.14-.14v0.14Zm0.19,5.14,0.1-.14-0.19,0,0,0.19h0.14Zm-0.1,16.8H306l0-.19-0.14-.1-0.14,0,0,0.19Zm0-16.51,0,0.1,0.19,0.1v-0.24l-0.24,0v0.1Zm0.14,0.67h-0.14l0,0.1h0.14Zm0-2.21,0-.14,0-.14-0.14-.1v0.48l0.14,0.1v-0.19Zm0.1,0.77v-0.14l-0.1,0,0,0.1L306,119Zm-0.1-1.63,0.14-.14-0.14-.1v0.24Zm0,20.55h0.1l0-.1-0.14,0v0.14Zm0.38-12.87-0.34-.14,0.19,0.24,0.19,0Zm0.53,1.25-0.24-.14-0.24,0,0,0.24-0.29.14,0,0.1,0.14,0,0.58-.14,0.1-.1Zm-0.72,14.74,0.1-.14-0.19,0v0.1h0.1Zm0.1-18.39-0.14,0,0,0.1,0.14,0Zm1.15,3.12,0.24,0.1-0.1-.24-0.29,0,0-.19-0.38-.29v-0.38l-0.19,0-0.29-.29h-0.1l0,0.19,0.1,0,0.19,0.34,0,0.29-0.19,0-0.19.14,0.1,0,0,0.29,0.29,0,0.43-.24,0,0.19,0,0.1h0.38Zm-1.15-6,0,0.1,0,0.1,0.1,0v-0.14h-0.1Zm0.1,4.13-0.14,0,0.1,0.19h0.1l0-.1Zm0-1.68v0.1l0.1-.1h-0.1Zm0.14,20.59,0-.19-0.1,0-0.1.14,0,0.1h0.1Zm0.24-26.55-0.29,0,0,0.14,0.38-.14Zm-0.14,5.9,0.14-.34-0.1,0-0.14.1-0.1.29h0.19Zm-0.19,1.58,0.14,0.1v-0.14l-0.1-.1,0,0v0.1Zm0.14-3.55,0-.1-0.1,0,0,0.19Zm0.19,5.28-0.19.1,0.1-.14Zm-0.14-12.87,0,0,0.19,0-0.1-.14-0.14,0v0.1Zm0.34,3,0-.14h-0.19l0,0.19,0.14,0Zm-0.19,4.13,0,0.1,0,0,0.14,0-0.1-.19h0v0.1Zm0.1,8.5h-0.1v0.1l0.1,0v-0.14ZM306.9,115l-0.14.1,0,0.1L307,115h-0.1Zm0,9,0.34,0.1,0.34,0,0-.14,0,0.1-0.58-.43-0.29-.34,0,0.77H307Zm-0.14,19.25,0,0.1,0.1,0,0-.1ZM307,117.15l0.14-.1V117l-0.24,0,0,0.14H307Zm0,28.37,0.1-.19-0.19.1v0ZM307,115.95l0.1,0.14-0.14,0,0,0.19H307l0.19-.19,0-.19-0.14-.19H307v0.19Zm0,5.47-0.1,0,0.1,0.1,0.1-.14H307Zm0-1.25h0.19l0-.14-0.1-.1H307l0,0.19Zm0.24,4.7,0-.24-0.29,0,0.1,0.29,0.14,0.1Zm0.1-6-0.1-.24-0.1,0L307,119l0.53,0.14Zm-0.34-4.18h0v-0.1h0v0.1Zm0,3.07,0.1,0-0.1,0v0.1Zm0.14,21.41-0.1,0,0,0,0.14,0.14v-0.14Zm-0.1-22.23,0.1,0v-0.1l-0.1,0v0.1Zm0.14,9.55,0,0.14,0-.19Zm0.14,2.78h0.1l0-.14-0.14-.1-0.1.19Zm0.14,14,0-.1-0.19,0,0,0.1Zm0-18.48,0.1-.14-0.14,0Zm0.29-7.68-0.29,0v0.14l0.29,0,0-.1ZM307.67,121l0,0-0.1,0,0.19,0.24h0.1l0-.14Zm0,5.81-0.1-.1,0,0.1,0.14,0.1v-0.1Zm0-8.69v-0.29l-0.14.14,0,0.19Zm0,24.53h-0.1v0.1l0.1,0v-0.14Zm0.62-15.75,0.19,0.14,0-.14,0-.34-0.29.1-0.48.62,0,0.29,0.19,0.24-0.24.14-0.1.19,0.24,0,0-.19,0.19-.19,0-.19-0.24,0,0-.14,0.29-.43Zm-0.14-3.55,0-.1-0.38-.29,0,0.19,0.14,0.14,0.29,0.14Zm-0.43,1.78,0.1-.1-0.14,0Zm0.38-1.25,0.1-.14-0.14,0-0.29.67,0.29-.1,0.1-.19-0.1,0V124ZM308,130.54l0-.1-0.1-.34-0.1.38,0.14,0.14v-0.1Zm0-8.83,0,0.14H308l0-.19Zm0,4.94,0,0,0,0.14,0.14,0Zm-0.1,18.63,0.19,0.14-0.1-.29-0.1,0v0.19ZM308,115.46l0,0.1h0.14v0ZM308.15,144l-0.1,0-0.1,0v0.1l0.1,0,0.1,0V144Zm0.1-18.72-0.14-.1,0,0.1,0,0.1,0.14,0v-0.14Zm-0.14-10.18h0.14l0.14-.1,0-.24-0.1-.1H308.1v0.43Zm0,1.2h0.14l0-.1h-0.1v0.1Zm0.29,11.33,0-.14-0.24-.24,0,0.43Zm0-2.93,0,0,0,0.1Zm0,0.58,0-.1v0.14Zm0.24,1.1,0-.14-0.14-.14-0.1,0,0.1,0.24h0.19Zm0.1-3.07-0.34.34,0.43-.24,0-.1h-0.14Zm-0.19.91-0.1.1,0,0.24,0.24,0.1,0.1,0h-0.1v-0.1l0.29,0,0.14,0.1,0.1-.24-0.43-.19h-0.19Zm0,3.6,0.14-.14-0.1-.1-0.14.1v0.14h0.1Zm0,1.49,0.1,0-0.14,0h0Zm0-4.46,0.29,0.34-0.14.34v0.19l0.29-.1,0.1-.14,0-.29-0.14-.1-0.19-.34h-0.1Zm0.1,4v0l0.19,0-0.14-.19Zm0.29-.24,0,0-0.1-.19-0.14,0,0,0.1,0,0.19,0.14,0.1Zm0,14v-0.1l-0.1,0-0.1,0,0.14,0.19Zm0-18.53,0,0v0.1Zm0,2.93,0.19,0.14,0.1-.1,0-.24H309Zm0,16.8,0-.1-0.1,0v0.14h0Zm0.24-20.16-0.14.19,0,0.19,0.19,0,0.1-.19v-0.14h-0.1Zm-0.1-8v0l0.14,0h-0.14Zm0.19,12.86,0-.19-0.14,0v0.14l0.14,0.14Zm0.53-3.94h-0.14l-0.43.19,0,0.1,0.29,0.14,0.34-.38Zm-0.24,4.66v-0.1h-0.1l-0.1.1v0.1Zm-0.1-13h0.14l0.14-.14-0.29,0v0.19Zm0.19,12.24,0.53,0.38,0.14-.24,0.19,0-0.19-.43-0.1,0-0.1.24-0.14.1-0.38-.48-0.14,0,0.14,0.24,0,0.19Zm0-1.1v0.1l0.1,0,0-.24h-0.1ZM310,128l0,0-0.14,0,0.1,0.1H310V128Zm0,1.54H310l0,0.1,0,0.1Zm0,12.77v0l0,0.14Zm0.1-26.45,0.1,0,0.14,0-0.14-.14-0.1,0v0.1Zm0.53,10.9-0.1,0-0.29,0,0.1,0.1,0.29,0,0-.1Zm0,2.16,0,0-0.24.1,0,0.1,0.14,0.1,0.19-.14v-0.1Zm-0.24,2,0,0,0,0.1Zm-0.1.38v0.1l0.1,0Zm0.14,12.38v-0.1h-0.1v0.1h0.1Zm0.1-18,0,0,0,0.1,0.1,0v-0.14Zm0,2.54,0.14,0.1,0-.29h-0.1v0.19Zm0.19-16.32,0,0,0,0.1Zm0,2,0,0,0.1-.19-0.19,0Zm0.24,1-0.1-.1-0.19,0v0.1l0.1,0.1,0.19,0v-0.1Zm-0.14-2.4-0.1,0v0.1Zm0,17,0,0.14,0.19,0v-0.1l-0.1-.1Zm0,15,0.14-.1-0.19,0,0,0.1Zm0-16,0.19,0.34,0,0.29,0.14,0.29,0.24,0.14,0.1,0-0.1-.48,0,0.1-0.19,0V129l-0.29-.48,0.19-.38H311l0,0.19-0.14.1v0.1Zm0,2h0.1l0-.1Zm0.14-.62,0-.1-0.1,0,0,0.19Zm0.14,1.06-0.1,0,0,0.14h0.19l0-.19h-0.1Zm0.29-3.46,0-.1-0.24,0-0.1.14,0.14,0.1,0.24,0v-0.14Zm-0.1,4.46,0-.19-0.24,0v0.1l0.1,0.1Zm0-18.29v0l-0.14.1Zm0,30.67h0.29l0-.1h-0.24l-0.19-.1Zm0.1-18.1-0.14.14,0.1,0,0.14-.14Zm0-12,0-.14-0.19,0,0,0.14Zm-0.1,17.28,0.1-.1-0.14,0Zm0.29,0.62-0.24-.14,0,0.19,0.14,0Zm0,10.37,0-.1,0-.14-0.14.1v0.14h0.14Zm0-11.81,0,0,0.1-.14-0.1,0-0.1,0Zm0.1,0.82,0,0,0,0.1Zm0.14-.38,0.1-.1-0.19,0-0.1,0v0.1h0.19Zm0,11,0-.1h-0.1l0,0.1h0.1Zm0-12.39,0,0.19h0.1l0-.1-0.14-.14Zm0.34,0.19-0.14.14-0.14.29,0.24-.14,0.1-.29h0ZM311.94,144l-0.1-.1h-0.1v0.14l0.19,0V144Zm-0.1-1.49v0l0.14,0-0.1-.14ZM312.38,112l-0.29,0-0.14.14,0,0,0.43,0Zm-0.29,19.25-0.1,0,0,0.19,0.14,0.14,0.19-.14-0.1-.14Zm0.1,2.54-0.1-.1H312v0.1l0.1,0.1h0.1v-0.1Zm-0.1,1.44,0,0,0,0.1Zm0,10.37,0,0,0-.1H312l0,0.19Zm0-14.88,0-.14-0.1-.1,0,0.29Zm0.53,1.49,0.1,0.1-0.1.24,0.34-.14,0.19,0.14,0,0.19,0.48,0.1,0-.29-0.48-.48-0.34.14-0.1-.24H313l0-.1-0.24-.14-0.24,0-0.14.43h-0.1l-0.14-.14h-0.1l0,0.29,0.24,0.38,0.19-.48Zm-0.29-2h-0.19v0.1l0.19,0,0.1-.1Zm-0.1.77,0.1,0v-0.1h-0.1l0,0.1Zm0.1,13.87-0.14,0,0.14,0v-0.1Zm-0.1-15.36,0.19,0v-0.1l-0.19,0v0.1Zm0.72,4.08,0.48,0.19,0.29,0-0.48-.38h-0.1l0-.1,0.34-.14-0.1-.14-0.58-.1,0,0.19-0.14.1,0-.1,0.1-.19-0.29-.1-0.14.1,0.1,0.24h-0.19l0,0.1,0.19,0.1v0.1l-0.29.29,0.14,0.1,0.19,0,0.1-.29,0.24-.1,0.14,0.14H313l0,0.1H313Zm-0.72,8.88,0.24,0.19,0.1,0-0.34-.24v0.1Zm0.19-13.73-0.14.24h0.19l0.29,0.29,0-.19-0.14-.19-0.1-.43Zm0.19,2.26-0.34.19,0.14,0.43,0.34-.62h-0.14Zm-0.19,13.35v-0.14l-0.1,0,0,0.1,0,0.1h0.1Zm0-31.83h-0.1l0,0.1,0.19,0Zm0,5.62,0.14-.14,0-.19-0.19,0v0.29h0.1Zm0,25.68,0.1,0v0l0,0Zm0.1-27.51,0,0.14,0.14-.14h-0.1Zm0,5.71,0,0.1h0.14v0Zm0.38,7.44,0,0-0.29,0,0,0.19,0.24,0.24v0.1l-0.29-.14V130l0.14,0.43,0.14,0.1,0-.29,0.14-.24,0.38,0,0-.1-0.29-.14-0.1-.14v-0.24Zm0,1.87H313l-0.14.24,0.24,0,0-.19ZM313,142.54v-0.1l-0.1,0Zm0.1-21.75,0-.14H313l0,0.14h0.14ZM313,131l0.19,0.1V131l-0.14-.1Zm0.43,12.29,0.14-.43-0.19-.1v0.34l-0.38.24,0.14,0.14,0.14-.14,0.19,0ZM313.19,137l-0.1,0,0,0.1,0.1,0Zm0-15.65,0-.1,0,0-0.1.1Zm-0.1,20.74,0,0.14,0.14-.24Zm0.14-25.73-0.1.1,0,0.1h0.1l0-.19h-0.1Zm0,11.33,0,0.1h0.1l0-.1h-0.1Zm0.1,1.39-0.1,0,0,0.1,0.19,0.19,0,0Zm0,14.59,0,0-0.19-.14,0,0.1,0,0.1h0.14Zm-0.14-21.41h0.1l0-.14-0.14,0v0.1Zm0.19,6.29v-0.1l-0.14,0,0,0.14,0.14,0.1Zm0-13,0,0,0-.24-0.1.19Zm0,7.06,0,0,0,0.1Zm0-5.52,0,0.1,0.29,0,0.1-.14h-0.34Zm0.19,14.35,0-.1-0.14,0,0.1,0.19,0.1,0v-0.1Zm-0.1,4.42,0,0,0-.1-0.1.1Zm0.1-4.13,0,0v0.1l0.1,0ZM314,118.68l0,0h-0.43l0.29,0.1Zm-0.34-2.54v0.24l0.14,0.19,0.24,0.1v-0.1l0.24-.19-0.19-.19-0.34,0h-0.1Zm0,14.31,0,0.1,0.24,0.1-0.1-.19h-0.1Zm0.19-16.32-0.1,0-0.1.14h0.19v-0.1Zm0.72,0.53,0-.14-0.43.19v-0.14l-0.19,0-0.1.19,0.1,0,0.19,0.58-0.29,0-0.14.14,0,0.19v-0.14l0.1,0,0.14,0,0.24,0v-0.43l-0.1-.43h0.43Zm-0.77.58,0-.14h-0.1v0.14h0.14ZM314,142.78l-0.29-.24,0.1,0.29,0.14,0Zm-0.1-2h-0.14l0,0.1H314Zm0,3.31,0.1,0,0-.24-0.1-.14-0.24,0,0.1,0.19,0,0.29H314Zm0.1-23.43-0.1-.1h-0.14v0.1l0.1,0.1H314Zm-0.14,21.22-0.1,0,0.19,0.1v-0.14h-0.1Zm0.43-24.72v-0.1l0.14-.14-0.19-.1-0.38.14,0,0.14,0,0.19h0.29l0.24-.1Zm-0.19,16.56-0.19.19-0.1.29,0.19,0,0.1-.29,0.53-.24v-0.1l-0.1,0-0.1.1-0.29,0Zm-0.24-20,0.24,0.1,0.29-.24-0.53,0v0.19ZM314.39,132l-0.19-.62-0.14-.1-0.14.1,0.24,0.53,0.29,0.14Zm-0.19,3.41-0.29.38,0.1,0,0.34-.14,0-.29h-0.1Zm-0.14,1,0.1,0.1,0.1,0.29,0.14,0.14v-0.34l-0.19-.38-0.14-.1-0.1.1v0.14Zm0,1.78-0.1-.1,0,0.19h0.14v-0.1Zm0,3.55,0.14,0.1v-0.1l-0.14-.1-0.1,0Zm0-27h0.14v0Zm0.14,25.87-0.14,0v0.14l0.14,0v-0.14Zm0-22.32,0,0,0,0.1Zm0.1,0.67,0-.19h-0.1l0,0.19h0.1Zm-0.1,15.31,0.1,0.24-0.1.1v0.1l0.24-.14,0-.34,0.67,0h-1v0.1Zm0.62,8.59h0v-0.14l-0.24-.38-0.1.19-0.1,0-0.24.43h0.1l0.19-.19h0.19Zm-0.34,1.2,0.1-.1v-0.14l-0.19,0-0.14.19h0.24Zm-0.19-29.14,0.24,0,0-.1-0.19,0v0.1Zm0.38,17.76-0.1-.19-0.14,0v0.24l0.1,0.19-0.19.29,0,0h0.24l0.48-.14,0.29-.29,0-.1-0.1.1-0.19,0,0-.29,0-.19-0.14-.1,0,0.1v0.38l-0.19.19V132.7Zm-0.19,5.09-0.1,0,0,0.1,0.19,0Zm-0.14,1.73,0.1,0,0-.1-0.14-.14v0.19Zm0-19.3,0.29,0.1v-0.1l-0.1,0Zm0.24,0.82,0,0,0-.1-0.19,0-0.14.1h0.24Zm0.14,14.16,0.1-.14,0.29-.1,0.29-.19,0-.29-0.34.29,0-.29-0.1-.14-0.29,0,0.24,0.29-0.1.19-0.38.29,0.38,0.19v-0.14Zm-0.38,5.09,0.14,0.14,0.19,0,0.19-.24-0.1,0-0.34,0-0.1,0v0.1ZM314.58,122l-0.14,0,0.14,0.14V122Zm0.48-6.62-0.1-.14-0.29.14-0.19,0,0.1,0.14H315l0.1,0v-0.14Zm-0.58,2h0.19v-0.1l-0.1,0-0.1,0v0.1ZM315,136.44l-0.38-.19-0.1.14,0.14,0.1,0.29,0Zm-0.38.91-0.1.1,0.1,0.1,0.1-.19h-0.1Zm0.19,2.11-0.29.34,0.19,0,0.19-.24ZM315.11,116l0,0-0.53,0v0.1h0.62Zm-0.58.19v0l0.14,0h-0.14Zm0.72,0.77v-0.14l-0.14-.24,0-.24-0.53.19,0.1,0.1,0,0.43,0.1,0,0.38-.1Zm-0.19,21.51v-0.1l-0.48,0,0.34,0.14h0.14Zm-0.24,2.4h-0.1l-0.14.14v0.1l0.19,0,0.14-.14Zm0-19.35,0-.19-0.1-.1-0.1.19,0,0.1h0.1Zm0.38,9.31-0.53-.19,0.19,0.24,0.34,0,0-.1h0Zm-0.48,1.06,0,0,0.14,0h-0.1Zm0,6,0.14,0.1,0.19,0-0.1-.14h-0.24v0.1Zm0.14-18.39,0.29-.1h-0.34Zm0.14,1.15-0.14-.14,0,0.14,0.14,0.1Zm-0.19,9.07h0.1l0.19-.14-0.29,0v0.1Zm0,4.08,0.1,0.19,0.29,0.1,0-.14,0-.24-0.14,0-0.24,0v0.1Zm0.1-14.74,0.14,0.1,0.1-.14-0.19-.1-0.1,0Zm0,20.26,0.14,0,0-.1-0.14,0Zm0.14,2.59,0-.1-0.19,0,0,0.14H315Zm-0.14-24.43,0.14,0.24,0.29-.29,0.29,0.24v-0.14l-0.1-.14-0.29-.14-0.1.14h-0.24v0.1Zm0.1,18.63,0.1,0,0.1,0V136l-0.29-.1Zm0.1-.58,0,0.14,0.14,0v-0.14Zm0,8.3,0.14-.1,0-.14-0.14,0,0,0.29h0.1Zm0-23.71-0.1-.1v0.14Zm0.1-1.25,0.24,0,0-.1-0.24-.1-0.19,0,0,0.19h0.1Zm-0.14,11h0.14l-0.14-.1v0.1Zm0.1,13,0.1,0,0.14-.14-0.19,0-0.14.14h0.1Zm0-4,0.29,0.1,0.1-.14-0.1-.14-0.29-.1v0.29Zm0.19-5.52-0.14,0v0.24l0.19,0.1,0.1,0,0-.24Zm0,6.48h-0.1l0,0.24,0.1,0,0.19-.14,0-.19-0.14,0Zm-0.1,1.68v0.1l0.14,0v-0.14l-0.1,0Zm0.19-5.81,0-.19-0.1,0-0.1.19,0.14,0.14v-0.1Zm0,0.62,0-.14h-0.1l0,0.14h0.1Zm-0.1.43,0,0.1,0.14,0,0.1-.1v-0.1l-0.24-.1Zm0.24,3.7-0.14-.1-0.1.24,0.24,0v-0.19Zm0-18.87,0.24-.24-0.29.1-0.1.14h0.14Zm0-2,0.29-.1,0-.1-0.34-.1-0.1.24Zm0,18.48,0,0,0,0.1Zm0.72,1-0.62.24-0.1-.19-0.1.1,0,0.14,0.19,0,0.19,0.19,0.24-.14,0.24-.34Zm-0.53,2.69-0.29.1,0.29,0.38,0.19,0.1,0-.1-0.19-.34,0-.1Zm-0.1-25-0.14.14,0.19,0.19-0.1-.14,0.19-.19h-0.14Zm0,3.6,0.19-.24-0.38.1v0.14h0.19Zm-0.1,23.67,0.24,0,0.1-.14-0.1,0-0.24.1-0.1.19Zm0.24-6.24-0.14.34,0.19,0.34,0.24,0,0-.19,0.14-.14-0.1,0-0.14.14h-0.1l0-.1,0.1-.38h-0.19Zm0,2.88,0,0h0.29v-0.1l-0.24-.29-0.19.19v0.1Zm0.38-4.37-0.38.1,0,0.1,0.24,0,0.19-.1v-0.1Zm-0.24-18.58-0.1,0H316Zm0,0.58v-0.1h-0.1l0,0.1,0.1,0Zm-0.14,17.38,0.19,0-0.1-.19-0.1,0v0.1Zm0.1-19.06H316l0-.14-0.14,0v0.1Zm0,17.76,0,0,0-.1-0.1,0v0.1Zm0.19,0.34-0.14.14,0,0.34,0,0.19,0.14,0.1v-0.1l0.19-.29-0.1-.14,0-.24h0Zm0.1,2.3-0.19-.1-0.1.14,0.14,0.1,0.19,0ZM316,138.79v-0.1h-0.1l0,0.14Zm0,2.35,0,0,0,0.1Zm0,1.49,0.38-.1-0.1-.19h-0.19l-0.14.1-0.1.19H316Zm0.29-21.51-0.14,0-0.14.1-0.1.29,0.43-.19Zm-0.19,18.67-0.19-.14,0.1,0.1Zm0.29,1.92-0.1-.19-0.24,0-0.14.24h0.19l0.29,0.19v-0.19Zm-0.29-24.48,0,0H316v0h0.14Zm0,18.53-0.1.1V136h0.1l0.1-.1v-0.1h-0.1Zm0-19.92v0.1l0.14-.14-0.1,0Zm0,3h0l0.14-.1v-0.19l-0.14,0-0.1.19Zm0,0.43v0Zm0.24,14.31-0.14-.14-0.1,0v0.1l0.19,0.1Zm0-16.61-0.1,0,0.14,0.14,0-.19h-0.1Zm0,19.78,0.1-.1-0.19,0v0.14h0.1Zm0-5.66,0.1-.1-0.1,0v0.14Zm0.24,10.32h0.1l-0.14-.48-0.1-.1-0.1.1,0.1,0.43Zm0.29-4.13-0.19-.19-0.19,0-0.1.19,0.53,0.24,0.1-.14Zm-0.38,2.45,0,0.1,0.1-.1h0Zm0-4.51v0.14l0.1,0,0.1-.29Zm0,0.34v0.1l0.14,0.14h0.14l-0.14-.29-0.1,0Zm0.14,3-0.14.1v0.29l0.1,0.14h0.1l0-.19,0.19-.24-0.19-.1h-0.1Zm0,0.86,0-.19h-0.14v0.19h0.1Zm0-6.48V133h0.1l0-.1-0.1-.1Zm0.53,4.8-0.14,0-0.19,0-0.19.38v0.19l0.29,0.1,0.14-.1-0.19-.19,0-.14,0.24-.19v0Zm-0.38-19.87,0,0.19,0.1,0,0-.14h-0.1Zm0,3.22,0,0.1h0.14Zm0,13.92,0.1,0-0.1,0V135Zm0.19,4.66,0-.1h-0.14l-0.1.14,0,0.1h0.14v-0.14Zm-0.14-21.12,0.14,0.1,0.1,0v-0.1l-0.19,0Zm0.14,23.23v0l-0.1.1Zm0.14-7-0.1.1,0.1,0.24,0.19-.19v-0.1l-0.1,0H317Zm0.1-18.87-0.1.1,0.1,0,0.1-.1Zm0.19,22.66,0-.1-0.24,0v0.19l0.29,0v-0.1Zm0.14-.48,0.14-.19v-0.24l-0.1,0,0,0.14L317,138l0,0.1h0.34Zm-0.19-4.8,0-.1,0,0-0.14.14h0.14Zm0.14-11.33,0,0-0.14,0,0.1,0.1h0.14Zm0,20.5,0.19-.19-0.1,0-0.19.19Zm0-5.42,0,0.1h0.1l-0.1-.14Zm0-14v0.1h0.14l-0.1-.19Zm0.14,10.75,0-.1-0.14.1,0.1,0.1v-0.1Zm0-17.57,0-.1h0v0.1Zm0.1,26,0.14,0.1,0.1,0-0.1-.19h-0.1l-0.14.14h0.1Zm0.1-19.39,0.1,0.14,0.14-.14H317.8ZM318.14,137l0,0,0,0.1Zm0.19,0.86h0.1l0-.14-0.24.1Zm0.14-1,0.1,0,0.14-.24h-0.1l-0.14.14,0,0.14h0Z" transform="translate(-211.1 -111.1)"/></svg>