<svg xmlns="http://www.w3.org/2000/svg" viewBox="1289.209 1407.496 417.27 71.609"><defs><style>.a{fill:#fff;}</style></defs><g transform="translate(1289.209 1407.496)"><g transform="translate(0)"><path class="a" d="M22.392,6.138l-6.82,11.48v7.729c.8,1.819,2.728,2.16,4.66,2.16V28.53H6.82V27.507c1.932-.114,4.206-.341,4.888-1.591V17.959L4.66,6.138A4.936,4.936,0,0,0,0,3.41V2.273H11.707V3.41c-2.273.114-2.955.455-3.524,1.023l6.479,11.253L21.028,4.547a6.707,6.707,0,0,0-3.751-1.023V2.273h10V3.41A4.976,4.976,0,0,0,22.392,6.138ZM35.918,28.985a3.215,3.215,0,0,1-3.41-2.614,7.259,7.259,0,0,1-5,2.614c-2.273,0-4.092-1.364-4.092-3.751a6.52,6.52,0,0,1,.909-3.3l8.3-2.955V15.913c0-1.819-.909-3.637-2.728-3.637-1.137,0-2.16,1.364-2.273,3.524l-3.751.568v-.455c1.25-3.751,5.342-5.229,7.388-5.229,3.751,0,5.115,2.046,5.115,5.115l-.114,8.752c0,1.7.909,2.16,1.7,2.16a3.337,3.337,0,0,0,2.16-1.25v1.25C38.987,27.734,37.4,28.985,35.918,28.985Zm-8.3-6.706a10.759,10.759,0,0,0-.341,2.16,2.229,2.229,0,0,0,2.046,2.5,4.832,4.832,0,0,0,3.069-1.25v-5.57C31.485,20.573,28.871,21.71,27.621,22.278Zm12.731,6.365v-.909c1.819-.114,2.387-.568,2.728-1.25V5c0-1.364-.227-2.046-3.069-2.273v-.8L47.626,0l.227.682L46.6,2.16V26.484c.455.8,1.25,1.137,2.955,1.25v.909Zm19.1.341c-4.319,0-7.729-3.41-7.729-8.3,0-5.911,3.637-9.889,8.752-9.889,4.092,0,6.365,2.273,6.365,6.024v.8L55.7,17.5a11.1,11.1,0,0,0-.114,2.16c0,4.206,2.614,7.047,6.138,7.047,2.16,0,3.183-.8,4.888-2.16l.568.909C64.789,27.621,62.857,28.985,59.447,28.985ZM59.9,12.162c-2.046,0-3.524,1.7-3.978,4.319l7.275-.114C63.2,14.094,61.72,12.162,59.9,12.162Z"/><g transform="translate(77.292 11.026)"><path class="a" d="M89.164,10.8a3.342,3.342,0,0,0-2.614,1.25v8.525c0,5-3.183,7.161-7.388,7.161-4.319,0-7.047-2.387-7.047-6.593V11.819a3.122,3.122,0,0,0-2.614-.909V10h8.3v.8c-1.25.114-2.387.455-2.614.909v8.752c0,3.524,1.7,5.456,4.888,5.456,3.3,0,4.888-2.046,4.888-5.911v-3.41c0-1.478-.114-3.751-.114-4.547-.227-.568-1.819-1.137-3.069-1.25V10h7.388Z" transform="translate(-67.795 -9.659)"/><path class="a" d="M109.132,10.8a3.342,3.342,0,0,0-2.614,1.25V22.5c0,1.478.114,3.978.227,5.115h-1.591L94.47,14.547l-1.137-1.7.114,1.591v6.252c0,1.478.114,3.524.227,4.66.227.568,1.819,1.137,3.069,1.137v.8H89.014v-.8c1.25-.114,2.5-.682,2.614-1.137V15.57c0-1.364,0-2.728-.114-3.751A3.527,3.527,0,0,0,88.9,10.682V10h5.456l1.478,1.932,8.866,10.8V16.479c0-1.478-.114-3.751-.114-4.66-.227-.568-1.819-1.137-3.069-1.25V10h7.388v.8Z" transform="translate(-65.144 -9.659)"/><path class="a" d="M117.438,27.277H108.8v-.8c1.25-.114,2.614-.455,2.728-.909V11.7c-.227-.568-1.478-.909-2.728-.909V10h8.639v.8c-1.25.114-2.614.455-2.728.909V25.572c.227.568,1.478.909,2.728.909Z" transform="translate(-62.425 -9.659)"/><path class="a" d="M137.437,10.8a3.37,3.37,0,0,0-2.842,1.478l-6.252,15.345H126.3l-5.342-15.572c-.341-.8-1.705-1.137-2.955-1.25V10h8.866v.8c-1.25.114-2.5.341-2.728.909l4.206,12.389L133,12.046c-.227-.682-1.591-1.25-2.842-1.25V10h7.275Z" transform="translate(-61.168 -9.659)"/><path class="a" d="M151.331,27.3h-9.093l-6.138.114v-.8c1.25-.114,3.069-.455,3.41-1.364V11.619c-.227-.568-1.364-.909-2.614-.909v-.682h11.253A4.707,4.707,0,0,0,149.74,9.8h.682v4.547h-.8c-.114-2.387-1.023-3.069-3.183-3.069h-3.978v6.479h3.751c1.819,0,2.614,0,2.842-2.046h.682v5.683h-.682c-.227-2.16-.8-2.16-2.842-2.16h-3.751v5.911c.114.341.227.8.682.909l4.319-.114c1.819,0,3.069-.8,3.069-3.183h.682V27.3Z" transform="translate(-58.694 -9.686)"/><path class="a" d="M171.564,27.4h-2.842c-2.614,0-2.842.227-4.433-1.819-1.932-2.5-2.842-3.978-3.751-5.229h-2.728v4.774c.341.909,1.7,1.364,2.955,1.364v.8H151.9v-.8c1.25-.114,2.5-.341,2.842-1.25V11.832c-.227-.682-1.591-.909-2.842-1.023v-.8c2.955,0,4.888-.114,8.07-.114,4.433,0,6.479,1.478,6.479,4.547,0,1.7-1.364,3.524-3.41,4.547l3.751,5a6.885,6.885,0,0,0,2.046,1.932,8.278,8.278,0,0,0,2.728.8ZM159.629,11.037h-1.7v8.184h1.932c2.614,0,3.41-1.819,3.41-4.66A3.312,3.312,0,0,0,159.629,11.037Z" transform="translate(-56.535 -9.673)"/><path class="a" d="M176.47,27.773a13.647,13.647,0,0,1-5.115-1.137l-.455-4.66h.8a7.075,7.075,0,0,0,2.046,3.41,6.7,6.7,0,0,0,3.183,1.25c2.273,0,3.524-1.478,3.524-2.955,0-2.046-1.25-2.5-3.41-3.41-3.978-1.7-5.456-2.728-5.456-5.456,0-3.069,3.069-5.115,7.047-5.115a10.207,10.207,0,0,1,4.319.909v4.547h-.8a4.387,4.387,0,0,0-1.591-3.3,5.347,5.347,0,0,0-2.728-.909c-2.273,0-3.41,1.364-3.41,2.728,0,1.819.909,2.614,3.637,3.637,3.751,1.478,5.229,2.614,5.229,5.342C183.289,25.727,180.22,27.773,176.47,27.773Z" transform="translate(-53.939 -9.7)"/><path class="a" d="M192.738,27.277H184.1v-.8c1.25-.114,2.614-.455,2.728-.909V11.7c-.227-.568-1.478-.909-2.728-.909V10h8.639v.8c-1.25.114-2.614.455-2.728.909V25.572c.227.568,1.478.909,2.728.909Z" transform="translate(-52.135 -9.659)"/><path class="a" d="M210.936,15.029h-.682c-.114-2.273-1.364-3.524-3.3-3.524H204v13.64c.568,1.25,2.046,1.478,3.3,1.478v.8h-9.775v-.8c1.25-.114,3.069-.341,3.41-1.137V11.391h-2.955c-1.932,0-3.183,1.25-3.183,3.524H194V9.8h.682a4.216,4.216,0,0,0,1.591.227h12.276A5.269,5.269,0,0,0,210.14,9.8h.682v5.229Z" transform="translate(-50.782 -9.686)"/><path class="a" d="M228.786,10.8a3.85,3.85,0,0,0-3.183,2.046l-4.433,7.275v5c.568,1.25,1.932,1.364,3.183,1.478v.8h-9.32v-.8c1.25-.114,2.842-.227,3.183-1.023V20.23l-4.433-7.616A3.412,3.412,0,0,0,210.6,10.8V10h8.3v.8a3.9,3.9,0,0,0-2.387.682l3.978,7.161,3.978-6.934a3.558,3.558,0,0,0-2.273-.909V10h6.479v.8Z" transform="translate(-48.514 -9.659)"/><path class="a" d="M248.89,27.277H234v-.8c1.137-.114,2.728-.341,3.183-1.25V11.7c-.227-.568-1.364-.909-2.614-.909V10h8.525v.8c-1.25.114-2.614.455-2.842.909V25.913l4.888-.114c1.819-.114,3.069-1.819,3.069-4.092h.8v5.57Z" transform="translate(-45.316 -9.659)"/><path class="a" d="M257.939,27.277H249.3v-.8c1.25-.114,2.614-.455,2.728-.909V11.7c-.227-.568-1.478-.909-2.728-.909V10h8.639v.8c-1.25.114-2.614.455-2.728.909V25.572c.227.568,1.478.909,2.728.909Z" transform="translate(-43.225 -9.659)"/><path class="a" d="M267.325,27.291H258.8v-.8c1.25-.114,2.955-.341,3.3-1.25V11.719c-.227-.568-1.478-.909-2.728-.909v-.8c3.524,0,5.911-.114,8.07-.114,3.978,0,6.024,1.591,6.024,3.637,0,1.7-.8,2.842-3.183,3.865,2.614.682,4.092,2.387,4.092,4.319C274.372,25.472,271.758,27.291,267.325,27.291Zm-.8-16.368h-1.364v6.138a13.052,13.052,0,0,1,2.046-.114c.568,0,1.25.114,1.705.114a3.892,3.892,0,0,0,1.364-3.069C270.28,12.287,268.8,10.923,266.529,10.923Zm0,7.161h-1.251v7.047c.341.8,1.023,1.137,2.273,1.137,2.5,0,3.751-1.932,3.751-4.433C271.19,19.448,268.8,18.084,266.529,18.084Z" transform="translate(-41.927 -9.673)"/><path class="a" d="M293.964,27.4h-2.842c-2.614,0-2.842.227-4.433-1.819-1.932-2.5-2.842-3.978-3.751-5.229h-2.728v4.774c.341.909,1.7,1.364,2.955,1.364v.8H274.3v-.8c1.25-.114,2.5-.341,2.842-1.25V11.832c-.227-.682-1.591-.909-2.842-1.023v-.8c2.955,0,4.888-.114,8.07-.114,4.433,0,6.479,1.478,6.479,4.547,0,1.7-1.364,3.524-3.41,4.547l3.751,5a6.888,6.888,0,0,0,2.046,1.932,8.28,8.28,0,0,0,2.728.8ZM281.915,11.037h-1.7v8.184h1.932c2.614,0,3.41-1.819,3.41-4.66A3.312,3.312,0,0,0,281.915,11.037Z" transform="translate(-39.809 -9.673)"/><path class="a" d="M311.709,27.291h-8.3v-.8c1.25-.114,2.273-.341,2.614-.909l-1.818-5.115h-5.57l-1.7,4.774c.227.682,1.364,1.137,2.614,1.25v.8H292.5v-.8c1.25-.114,2.16-.227,2.614-.909.8-1.819,1.591-3.978,2.387-6.138,1.137-3.069,2.273-6.024,2.955-7.843a14.913,14.913,0,0,0,.341-1.7h3.3a9.59,9.59,0,0,0,.341,2.046c.909,2.842,1.705,5.115,2.5,7.388.682,1.932,1.364,3.751,2.16,6.024.227.8,1.364,1.137,2.614,1.137v.8Zm-7.957-8.07-1.819-5.57-.341-1.364h-.114l-.341,1.364-1.932,5.57Z" transform="translate(-37.322 -9.673)"/><path class="a" d="M330.564,27.4h-2.842c-2.614,0-2.842.227-4.433-1.819-1.932-2.5-2.842-3.978-3.751-5.229H316.81v4.774c.341.909,1.705,1.364,2.955,1.364v.8H310.9v-.8c1.25-.114,2.5-.341,2.842-1.25V11.832c-.227-.682-1.591-.909-2.842-1.023v-.8c2.955,0,4.888-.114,8.07-.114,4.433,0,6.479,1.478,6.479,4.547,0,1.7-1.364,3.524-3.41,4.547l3.751,5a6.888,6.888,0,0,0,2.046,1.932,8.278,8.278,0,0,0,2.728.8ZM318.629,11.037h-1.705v8.184h1.932c2.614,0,3.41-1.819,3.41-4.66A3.312,3.312,0,0,0,318.629,11.037Z" transform="translate(-34.807 -9.673)"/><path class="a" d="M345.4,10.8a3.849,3.849,0,0,0-3.183,2.046l-4.433,7.275v5c.568,1.25,1.932,1.364,3.183,1.478v.8h-9.434v-.8c1.25-.114,2.842-.227,3.183-1.023V20.23l-4.433-7.616A3.412,3.412,0,0,0,327.1,10.8V10h8.3v.8a3.9,3.9,0,0,0-2.387.682l3.978,7.161,3.978-6.934a3.559,3.559,0,0,0-2.273-.909V10h6.479v.8Z" transform="translate(-32.594 -9.659)"/><path class="a" d="M77.548,58.741H68l.114-.682a3.677,3.677,0,0,0,2.842-1.023l3.183-14.89c-.114-.568-1.591-1.023-2.955-1.023l.114-.682c3.41-.114,5.683-.341,8.184-.341,5.911,0,9.093,3.069,9.093,7.616A10.5,10.5,0,0,1,77.548,58.741Zm.682-17.618H76.98l-3.41,15.8c.227.455,2.5.909,3.637.909,5.8,0,8.525-4.319,8.525-9.548C85.845,43.737,83,41.123,78.23,41.123Z" transform="translate(-68 -5.546)"/><path class="a" d="M94.193,55.64c-1.7,2.046-3.183,3.524-4.66,3.524-.682,0-.909-.909-.909-1.932a12.2,12.2,0,0,1,.455-2.387l1.25-5.229c.114-.682.341-1.591.341-1.7s.114-.341-.114-.341c-.341,0-1.25.8-2.387,2.387l-.568-.341c1.591-2.273,2.842-3.41,4.206-3.41.682,0,.909.8.909,1.7a3.147,3.147,0,0,1-.114,1.023L90.9,55.64a2.825,2.825,0,0,0-.114.909c0,.455.114.909.455.909s1.25-.909,2.387-2.273Zm-1.364-13.3a1.41,1.41,0,0,1-1.478-1.364,1.478,1.478,0,0,1,2.955,0A1.41,1.41,0,0,1,92.829,42.342Z" transform="translate(-65.322 -5.628)"/><path class="a" d="M107,46.082l-.341,1.137h-2.955a6.13,6.13,0,0,1,.568,1.819c0,2.16-1.023,3.751-3.3,5-1.591.909-2.614,1.25-2.614,2.046,0,.682.455,1.25,1.819,1.932l1.591.8c1.591.8,2.16,1.591,2.16,2.842,0,1.591-2.387,3.751-6.706,3.751-3.865,0-5.229-1.7-5.229-2.614,0-1.478,1.364-2.387,5.229-3.978a2.371,2.371,0,0,1-.682-1.7c0-.341.8-1.137,1.478-1.819-1.819-.909-2.728-1.932-2.728-3.978a5.833,5.833,0,0,1,2.273-4.206,6.25,6.25,0,0,1,3.978-1.7,2.417,2.417,0,0,1,1.7.8H107Zm-6.593,14.549L97.57,59.04c-2.5,1.137-3.524,2.5-3.524,3.637,0,.8,1.137,2.046,3.41,2.046,2.614,0,4.433-1.591,4.433-2.387C102,61.54,101.548,61.427,100.411,60.631ZM100.184,46.2c-1.137,0-2.955,2.273-2.955,5.115,0,1.591.8,2.728,1.819,2.728,1.364,0,3.069-2.387,3.069-5.115C102.116,47.332,101.207,46.2,100.184,46.2Z" transform="translate(-64.72 -4.822)"/><path class="a" d="M111.893,55.64c-1.7,2.046-3.183,3.524-4.66,3.524-.682,0-.909-.909-.909-1.932a12.2,12.2,0,0,1,.455-2.387l1.25-5.229c.114-.682.341-1.591.341-1.7s.114-.341-.114-.341c-.341,0-1.25.8-2.387,2.387l-.568-.341c1.591-2.273,2.842-3.41,4.206-3.41.682,0,.909.8.909,1.7a3.147,3.147,0,0,1-.114,1.023l-1.7,6.706a2.824,2.824,0,0,0-.114.909c0,.455.114.909.455.909s1.25-.909,2.387-2.273Zm-1.364-13.3a1.41,1.41,0,0,1-1.478-1.364,1.478,1.478,0,1,1,2.955,0A1.41,1.41,0,0,1,110.529,42.342Z" transform="translate(-62.903 -5.628)"/><path class="a" d="M119.875,46.169l-.341,1.25h-3.069l-1.478,7.616a4.263,4.263,0,0,0-.114,1.137c0,.568.227.909.455.909a9.535,9.535,0,0,0,2.842-2.614l.568.455c-1.819,2.273-3.524,3.751-5,3.751-.682,0-1.023-.909-1.023-1.932a9.187,9.187,0,0,1,.341-2.273l1.364-7.161-1.819.114.114-.568a7.937,7.937,0,0,0,4.206-3.751h.682l-.909,3.069Z" transform="translate(-61.905 -5.136)"/><path class="a" d="M131.69,54.82c-1.7,2.046-3.183,3.524-4.66,3.524-.682,0-.909-.909-.909-1.932l.8-3.3c-2.387,2.842-4.66,5.229-6.252,5.229-.455,0-1.364-.8-1.364-3.069a9.217,9.217,0,0,1,2.5-6.365,11.04,11.04,0,0,1,7.843-3.41h.909l-2.046,9.434a3.507,3.507,0,0,0-.114,1.023c0,.341,0,.682.341.682s1.364-1.023,2.5-2.273Zm-3.751-7.388a3.868,3.868,0,0,0-1.137-.114,5.927,5.927,0,0,0-2.842.568c-1.364,1.137-2.5,3.183-2.5,6.479,0,1.7.455,2.16.8,2.16.568,0,2.728-2.16,4.774-4.774Z" transform="translate(-60.99 -4.808)"/><path class="a" d="M137.283,38.614l-3.41,16.936a3.866,3.866,0,0,0-.114,1.137c0,.455.114.8.455.8s1.364-1.023,2.387-2.273l.568.455c-1.7,2.046-3.3,3.524-4.774,3.524-.682,0-.8-.909-.8-1.932a22.267,22.267,0,0,1,.341-2.273l2.614-12.844A9.525,9.525,0,0,0,134.783,41c0-.568-.227-.8-1.023-.8-.227,0-.682.114-1.023.114l.114-.682,4.206-1.137h.227Z" transform="translate(-59.309 -5.764)"/><path class="a" d="M166.552,40.5l-.114.682A3.826,3.826,0,0,0,163.71,42.2L160.527,57.1c.114.568,1.364.909,2.614,1.023l-.114.682h-7.957l.114-.682a3.4,3.4,0,0,0,2.728-1.023l1.478-6.934H148.934L147.456,57.1c.114.568,1.364.909,2.614,1.023l-.114.682H142l.114-.682a3.4,3.4,0,0,0,2.728-1.023l3.183-14.89c-.114-.568-1.364-1.023-2.614-1.023l.114-.682h7.957l-.114.682c-1.364.114-2.387.455-2.728,1.023L149.275,48.8h10.457L161.1,42.2c-.227-.568-1.364-1.023-2.614-1.023l.114-.682Z" transform="translate(-57.888 -5.491)"/><path class="a" d="M176.113,54.807c-1.705,2.046-3.183,3.524-4.66,3.524-.682,0-.909-.909-.909-1.932a39.056,39.056,0,0,1,.909-4.092c-2.5,3.3-5.229,6.024-6.706,6.024-.455,0-1.25-1.137-1.25-1.932a12.282,12.282,0,0,1,.455-2.16l1.364-5.229c.114-.568.455-1.591.455-1.7s.114-.341-.114-.341c-.341,0-1.25.8-2.387,2.387l-.568-.341c1.591-2.273,2.842-3.41,4.206-3.41.682,0,.909.8.909,1.7,0,.341-.114.568-.114.909-.8,3.069-1.591,6.365-1.819,7.5,0,.8.227,1.137.455,1.137.568,0,3.069-2.614,5.342-5.456l1.137-5.342h2.16l-2.046,9.207a3.507,3.507,0,0,0-.114,1.023c0,.455.114.8.341.8a9.148,9.148,0,0,0,2.387-2.273Z" transform="translate(-55.059 -4.794)"/><path class="a" d="M195.532,54.834c-1.705,2.046-3.183,3.524-4.66,3.524-.682,0-.8-.909-.8-1.932a11.342,11.342,0,0,1,.455-2.273s1.25-4.66,1.364-5.911c0-.909-.227-1.023-.455-1.023-.568,0-2.955,2.5-5.115,5.342l-1.25,5.57h-2.046s1.932-8.639,2.16-9.775c0-.909-.227-1.023-.455-1.023-.568,0-2.955,2.5-5.229,5.342l-1.137,5.57H176.1l1.932-9.321c.114-.455.341-1.591.341-1.705s.114-.341-.114-.341c-.341,0-1.25.8-2.387,2.387l-.568-.341c1.591-2.273,2.842-3.41,4.092-3.41.682,0,.909.8.909,1.7,0,.341-.114.682-.114,1.023l-.682,3.069c2.5-3.069,5-5.8,6.479-5.8.455,0,1.25,1.137,1.25,1.932a12.286,12.286,0,0,1-.455,2.16l-.455,1.591c2.5-3.069,4.888-5.8,6.479-5.8.455,0,1.25,1.137,1.25,1.932a6.606,6.606,0,0,1-.455,2.16l-1.364,5.229a4.216,4.216,0,0,0-.227,1.023c0,.568.114.8.341.8.341,0,1.364-1.023,2.387-2.273Z" transform="translate(-53.338 -4.822)"/><path class="a" d="M206.79,54.82c-1.7,2.046-3.183,3.524-4.66,3.524-.682,0-.909-.909-.909-1.932l.8-3.3c-2.387,2.842-4.66,5.229-6.252,5.229-.455,0-1.364-.8-1.364-3.069a9.218,9.218,0,0,1,2.5-6.365,11.04,11.04,0,0,1,7.843-3.41h.909l-2.046,9.434a3.506,3.506,0,0,0-.114,1.023c0,.341,0,.682.341.682s1.364-1.023,2.5-2.273Zm-3.751-7.388a3.868,3.868,0,0,0-1.137-.114,5.927,5.927,0,0,0-2.842.568c-1.364,1.137-2.5,3.183-2.5,6.479,0,1.7.455,2.16.8,2.16.568,0,2.728-2.16,4.774-4.774Z" transform="translate(-50.728 -4.808)"/><path class="a" d="M219.5,54.834c-1.7,2.046-3.183,3.524-4.66,3.524-.682,0-.8-.909-.8-1.932a11.337,11.337,0,0,1,.455-2.273s1.25-4.888,1.478-6.024c0-.8,0-.909-.455-.909-.568,0-3.183,2.614-5.342,5.456l-1.023,5.456H207l1.932-9.321c.114-.455.341-1.591.341-1.7s0-.341-.114-.341c-.341,0-1.25.8-2.387,2.387l-.568-.341c1.591-2.273,2.842-3.41,4.092-3.41.682,0,.909.8.909,1.7,0,.341-.114.682-.114,1.023l-.8,3.183c2.5-3.069,5.115-5.911,6.706-5.911.455,0,1.137,1.137,1.137,1.932a6.606,6.606,0,0,1-.455,2.16l-1.364,5.229a5,5,0,0,0-.227,1.137c0,.455,0,.682.341.682s1.364-1.023,2.387-2.273Z" transform="translate(-49.115 -4.822)"/><path class="a" d="M225.493,55.64c-1.705,2.046-3.183,3.524-4.66,3.524-.682,0-.909-.909-.909-1.932a12.2,12.2,0,0,1,.455-2.387l1.25-5.229c.114-.682.341-1.591.341-1.7s.114-.341-.114-.341c-.341,0-1.25.8-2.387,2.387l-.568-.341c1.591-2.273,2.842-3.41,4.206-3.41.682,0,.909.8.909,1.7a3.146,3.146,0,0,1-.114,1.023l-1.7,6.706a2.824,2.824,0,0,0-.114.909c0,.455.114.909.455.909s1.25-.909,2.387-2.273Zm-1.364-13.3a1.41,1.41,0,0,1-1.478-1.364,1.478,1.478,0,0,1,2.955,0A1.41,1.41,0,0,1,224.129,42.342Z" transform="translate(-47.38 -5.628)"/><path class="a" d="M233.475,46.169l-.341,1.25h-3.069l-1.478,7.616a4.262,4.262,0,0,0-.114,1.137c0,.568.227.909.455.909a9.535,9.535,0,0,0,2.842-2.614l.568.455c-1.819,2.273-3.524,3.751-5,3.751-.682,0-1.023-.909-1.023-1.932a9.191,9.191,0,0,1,.341-2.273l1.364-7.161-1.819.114.114-.568a7.938,7.938,0,0,0,4.206-3.751h.682l-.909,3.069Z" transform="translate(-46.382 -5.136)"/><path class="a" d="M239.393,55.64c-1.705,2.046-3.183,3.524-4.66,3.524-.682,0-.909-.909-.909-1.932a12.2,12.2,0,0,1,.455-2.387l1.25-5.229c.114-.682.341-1.591.341-1.7s0-.341-.114-.341c-.341,0-1.25.8-2.387,2.387l-.568-.341c1.591-2.273,2.842-3.41,4.206-3.41.682,0,.909.8.909,1.7a3.147,3.147,0,0,1-.114,1.023l-1.7,6.706a2.823,2.823,0,0,0-.114.909c0,.455.114.909.455.909s1.25-.909,2.387-2.273Zm-1.364-13.3a1.41,1.41,0,0,1-1.478-1.364,1.478,1.478,0,1,1,2.955,0A1.41,1.41,0,0,1,238.029,42.342Z" transform="translate(-45.48 -5.628)"/><path class="a" d="M242.287,52.347c0,.341-.114.8-.114,1.137,0,2.046.8,3.3,2.046,3.3.909,0,2.16-.909,3.524-2.387l.455.455c-1.819,2.273-3.865,3.41-5.342,3.41-1.819,0-2.955-1.819-2.955-4.433a9.75,9.75,0,0,1,2.387-6.024,5.976,5.976,0,0,1,4.319-2.5,2.174,2.174,0,0,1,2.387,2.273C248.993,49.278,246.833,51.1,242.287,52.347Zm2.614-5.8c-1.137.8-2.159,2.728-2.614,5a10.944,10.944,0,0,0,4.547-2.387,4.924,4.924,0,0,0,.114-.568C246.947,47.573,246.72,46.55,244.9,46.55Z" transform="translate(-44.51 -4.835)"/><path class="a" d="M255.915,48.469a3.938,3.938,0,0,0-2.728-1.7h-.227a2.6,2.6,0,0,0-.682,1.591,2.676,2.676,0,0,0,.568,1.478c.682.8,1.478,1.478,2.046,2.16a3.374,3.374,0,0,1,1.137,2.16c0,2.046-2.159,4.092-4.888,4.092-1.819,0-2.842-1.25-2.842-1.932,0-.455.909-1.137,1.364-1.364a4,4,0,0,0,3.41,2.046,1.024,1.024,0,0,0,.568-.114,2.223,2.223,0,0,0,.909-1.478c0-.909-1.136-1.819-2.16-2.842-1.023-1.137-1.819-1.932-1.819-2.955,0-1.819,2.5-4.206,4.546-4.206,1.591,0,2.5.909,2.5,1.591A7.264,7.264,0,0,1,255.915,48.469Z" transform="translate(-43.362 -4.822)"/><path class="a" d="M277.227,53.258l-1.137,5.456H261.2l.114-.682c1.25,0,2.841-.341,3.41-1.364L267.792,42c-.114-.568-1.364-.909-2.728-1.023l.114-.682h8.3l-.114.682A4.86,4.86,0,0,0,270.293,42L267,57.35l5.229-.114c2.046-.114,3.637-1.7,4.206-4.092h.8Z" transform="translate(-41.599 -5.519)"/><path class="a" d="M288.989,54.82c-1.7,2.046-3.183,3.524-4.66,3.524-.682,0-.909-.909-.909-1.932l.8-3.3c-2.387,2.842-4.66,5.229-6.251,5.229-.455,0-1.364-.8-1.364-3.069a9.218,9.218,0,0,1,2.5-6.365,11.04,11.04,0,0,1,7.843-3.41h.909l-2.046,9.434a3.51,3.51,0,0,0-.114,1.023c0,.341,0,.682.341.682s1.364-1.023,2.5-2.273Zm-3.637-7.388a3.869,3.869,0,0,0-1.137-.114,5.926,5.926,0,0,0-2.842.568c-1.364,1.137-2.5,3.183-2.5,6.479,0,1.7.455,2.16.8,2.16.569,0,2.728-2.16,4.774-4.774Z" transform="translate(-39.495 -4.808)"/><path class="a" d="M297.679,55.991c-1.7,2.16-3.524,3.3-5.229,3.3-.682,0-2.842-.341-3.751-1.7l3.183-15.345a9.512,9.512,0,0,0,.227-1.137c0-.568-.227-.8-1.023-.8-.227,0-.682.114-1.023.114l.114-.682,4.206-1.137h.455l-2.5,12.276c2.614-2.955,4.774-4.547,5.57-4.547s1.932,1.932,1.932,4.547A8.793,8.793,0,0,1,297.679,55.991ZM296.2,48.148c-.455,0-2.046,1.478-4.319,3.978l-.909,4.66a5.444,5.444,0,0,0,3.637,1.137c1.364-1.023,2.842-3.865,2.842-7.275C297.452,48.944,296.884,48.148,296.2,48.148Z" transform="translate(-37.841 -5.751)"/><path class="a" d="M308.2,55.062c-1.932,2.387-3.978,3.3-5,3.3-1.591,0-3.3-1.819-3.3-5a7.865,7.865,0,0,1,1.7-4.66c1.819-2.273,4.092-3.3,5-3.3,1.591,0,3.3,1.819,3.3,5A7.864,7.864,0,0,1,308.2,55.062ZM305.47,46.65c-1.25,0-3.41,2.5-3.41,6.479,0,2.728,1.023,4.092,2.16,4.092,1.25,0,3.41-2.614,3.41-6.593C307.629,48.014,306.606,46.65,305.47,46.65Z" transform="translate(-36.311 -4.822)"/><path class="a" d="M319.207,48.369h-.341a2.45,2.45,0,0,0-1.819-.682c-.8,0-2.614,3.069-2.728,3.978l-1.25,6.365h-2.16l1.819-9.32A14.22,14.22,0,0,0,312.955,47c0-.114,0-.341-.113-.341-.341,0-1.137.8-2.273,2.387L310,48.71c1.591-2.273,2.728-3.41,4.092-3.41.682,0,.909.8.909,1.7,0,.341-.114.682-.114,1.023l-.227,1.478a9.342,9.342,0,0,1,4.092-4.206,3.963,3.963,0,0,1,1.932.682Z" transform="translate(-34.931 -4.835)"/><path class="a" d="M330.989,54.82c-1.7,2.046-3.183,3.524-4.66,3.524-.682,0-.909-.909-.909-1.932l.8-3.3c-2.387,2.842-4.66,5.229-6.252,5.229-.455,0-1.364-.8-1.364-3.069a9.217,9.217,0,0,1,2.5-6.365,11.039,11.039,0,0,1,7.843-3.41h.909l-2.046,9.434a3.505,3.505,0,0,0-.114,1.023c0,.341,0,.682.341.682s1.364-1.023,2.5-2.273Zm-3.751-7.388a3.867,3.867,0,0,0-1.137-.114,5.927,5.927,0,0,0-2.842.568c-1.364,1.137-2.5,3.183-2.5,6.479,0,1.7.455,2.16.8,2.16.568,0,2.728-2.16,4.774-4.774Z" transform="translate(-33.755 -4.808)"/><path class="a" d="M338.074,46.169l-.341,1.25h-3.069l-1.478,7.616a4.262,4.262,0,0,0-.114,1.137c0,.568.227.909.455.909a9.536,9.536,0,0,0,2.842-2.614l.568.455c-1.819,2.273-3.524,3.751-5,3.751-.682,0-1.023-.909-1.023-1.932a9.182,9.182,0,0,1,.341-2.273l1.364-7.161-1.819.114.114-.568a7.938,7.938,0,0,0,4.206-3.751h.682l-.909,3.069Z" transform="translate(-32.088 -5.136)"/><path class="a" d="M345.9,55.062c-1.932,2.387-3.978,3.3-5,3.3-1.591,0-3.3-1.819-3.3-5a7.864,7.864,0,0,1,1.7-4.66c1.819-2.273,4.092-3.3,5-3.3,1.591,0,3.3,1.819,3.3,5A7.865,7.865,0,0,1,345.9,55.062ZM343.17,46.65c-1.25,0-3.41,2.5-3.41,6.479,0,2.728,1.023,4.092,2.16,4.092,1.25,0,3.41-2.614,3.41-6.593C345.443,48.014,344.307,46.65,343.17,46.65Z" transform="translate(-31.159 -4.822)"/><path class="a" d="M356.907,48.369h-.341a2.45,2.45,0,0,0-1.819-.682c-.8,0-2.614,3.069-2.728,3.978l-1.25,6.365h-2.16l1.819-9.32A14.288,14.288,0,0,0,350.656,47c0-.114,0-.341-.114-.341-.341,0-1.137.8-2.273,2.387l-.568-.341c1.591-2.273,2.728-3.41,4.092-3.41.682,0,.909.8.909,1.7,0,.341-.114.682-.114,1.023l-.227,1.478a9.342,9.342,0,0,1,4.092-4.206,3.962,3.962,0,0,1,1.932.682Z" transform="translate(-29.779 -4.835)"/><path class="a" d="M368.085,49.051c-.682,1.7-2.16,5.115-3.523,7.843-2.273,4.547-5.229,8.525-8.411,8.525a1.193,1.193,0,0,1-1.25-1.25,1.881,1.881,0,0,1,1.137-1.478,4.393,4.393,0,0,0,2.5.682c.682-.227,2.5-1.364,4.092-5,0-4.319-.455-7.5-1.819-10.571-.228-.455-.455-.8-1.023-.8-.341,0-1.477.455-1.477,2.387v.341h-.682v-.682c0-2.614,1.819-3.637,2.842-3.637a2.015,2.015,0,0,1,1.932,1.023c1.364,2.387,1.932,6.252,1.932,9.207a21.246,21.246,0,0,0,2.273-8.866c.114-1.25.568-1.478,1.023-1.478.8,0,1.023.341,1.023.909C368.994,47,368.54,48.028,368.085,49.051Z" transform="translate(-28.795 -4.835)"/></g></g></g></svg>