<svg xmlns="http://www.w3.org/2000/svg" xmlns:xlink="http://www.w3.org/1999/xlink" viewBox="2847 3952 167.47 128.364"><defs><style>.a{fill:#f5a847;}.b{fill:#fff;}.c{filter:url(#c);}.d{filter:url(#a);}</style><filter id="a" x="2874.298" y="3997.073" width="140.172" height="83.291" filterUnits="userSpaceOnUse"><feOffset dy="2" input="SourceAlpha"/><feGaussianBlur stdDeviation="2" result="b"/><feFlood flood-color="#aaa"/><feComposite operator="in" in2="b"/><feComposite in="SourceGraphic"/></filter><filter id="c" x="2847" y="3952" width="116.81" height="83.164" filterUnits="userSpaceOnUse"><feOffset dy="2" input="SourceAlpha"/><feGaussianBlur stdDeviation="2" result="d"/><feFlood flood-color="#aaa"/><feComposite operator="in" in2="d"/><feComposite in="SourceGraphic"/></filter></defs><g transform="translate(2851 3954)"><g class="d" transform="matrix(1, 0, 0, 1, -2851, -3954)"><path class="a" d="M34.07,99.618V53.4L21.5,35.5v74.783H53.369l7.618-10.792H34.07Zm69.832-.762a5.527,5.527,0,0,1-2.539-4.571V74.1a15.048,15.048,0,0,0-4.7-11.3,15.525,15.525,0,0,0-11.427-4.7,14.324,14.324,0,0,0-3.809.508L73.81,69.273h3.936c5.206,0,8.634,1.651,10.284,5.079L73.556,84.382H88.792V95.809a14.157,14.157,0,0,0,3.936,9.776A14.784,14.784,0,0,0,102,110.664l7.237-10.157a10.193,10.193,0,0,1-5.333-1.651Zm-20.315.508a9.292,9.292,0,0,1-6.856-2.793,8.859,8.859,0,0,1-2.92-6.6V84.255l-3.936,2.666c-4.19,2.793-6.221,6.475-6.221,10.792a11.525,11.525,0,0,0,4.952,10.03c2.666,1.9,6.221,2.793,10.665,2.793a7.413,7.413,0,0,0,2.539-.508l7.618-10.792h-5.84Zm65.007-36.312A16.482,16.482,0,0,0,136.531,58.1a10.822,10.822,0,0,0-2.92.381l-7.618,10.792h5.333a9.977,9.977,0,0,1,9.776,9.776V99.872l12.57-17.9V75.114a15.925,15.925,0,0,0-5.079-12.062ZM135.9,99.618a9.292,9.292,0,0,1-6.856-2.793,9.412,9.412,0,0,1-2.92-6.856V53.4l-12.57-17.9V93.9a16.4,16.4,0,0,0,4.952,11.935,16.121,16.121,0,0,0,11.808,4.952,18.874,18.874,0,0,0,3.174-.381l7.491-10.792Z" transform="translate(2856.8 3963.57)"/></g><g class="c" transform="matrix(1, 0, 0, 1, -2851, -3954)"><path class="b" d="M45.454,10.665A26.76,26.76,0,0,0,27.679,1.524L20.188,12.189h3.047A16.483,16.483,0,0,1,35.3,17.14,16.483,16.483,0,0,1,40.248,29.2V54.215a8.9,8.9,0,0,1-3.174,6.729,10.752,10.752,0,0,1-7.618,3.047H19.426l7.491,10.538a24.047,24.047,0,0,0,5.84.635,19.177,19.177,0,0,0,14.093-5.84c3.936-3.936,5.967-8.38,5.967-13.585V29.71a27.767,27.767,0,0,0-7.364-19.045ZM7.618,29.964V58.785a5.184,5.184,0,0,1-2.412,4.444A8.6,8.6,0,0,1,0,65.007L6.983,75.164a14.934,14.934,0,0,0,9.4-5.206A15.824,15.824,0,0,0,20.188,59.42V11.935L7.618,29.964ZM108.81,17.9,96.241,0V74.783h12.57V17.9ZM76.18,35.678v-17.9L63.61,0V74.783H76.18V46.724h12.57L96.241,35.8H76.18Z" transform="translate(2851 3954)"/></g></g></svg>